STARTFONT 2.1
FONT -Efont-Fixed-Medium-R-Normal--16-160-75-75-C-80-ISO10646-1
SIZE 16 75 75
FONTBOUNDINGBOX 8 16 0 -2
STARTPROPERTIES 18
COPYRIGHT "(c) Copyright 2000-2003 /efont/ The Electronic Font Open Laboratory."
FOUNDRY "Efont"
FAMILY_NAME "Fixed"
WEIGHT_NAME "Medium"
SLANT "R"
SETWIDTH_NAME "Normal"
ADD_STYLE_NAME ""
PIXEL_SIZE 16
POINT_SIZE 160
RESOLUTION_X 75
RESOLUTION_Y 75
AVERAGE_WIDTH 80
CHARSET_REGISTRY "ISO10646"
CHARSET_ENCODING "1"
_MULE_BASELINE_OFFSET -3
FONT_ASCENT 14
FONT_DESCENT 2
DEFAULT_CHAR 32
ENDPROPERTIES
CHARS 1840
STARTCHAR U+0020
ENCODING 32
SWIDTH 500 0
DWIDTH 8 0
BBX 8 16 0 -2
BITMAP
00
00
00
00
00
00
00
00
00
00
00
00
00
00
00
00
ENDCHAR
STARTCHAR U+0021
ENCODING 33
SWIDTH 500 0
DWIDTH 8 0
BBX 8 16 0 -2
BITMAP
00
00
00
00
08
08
08
08
08
08
08
00
08
08
00
00
ENDCHAR
STARTCHAR U+0022
ENCODING 34
SWIDTH 500 0
DWIDTH 8 0
BBX 8 16 0 -2
BITMAP
00
00
66
22
22
44
00
00
00
00
00
00
00
00
00
00
ENDCHAR
STARTCHAR U+0023
ENCODING 35
SWIDTH 500 0
DWIDTH 8 0
BBX 8 16 0 -2
BITMAP
00
00
00
00
12
12
12
7E
24
24
7E
48
48
48
00
00
ENDCHAR
STARTCHAR U+0024
ENCODING 36
SWIDTH 500 0
DWIDTH 8 0
BBX 8 16 0 -2
BITMAP
00
00
00
00
08
3E
49
48
38
0E
09
49
3E
08
00
00
ENDCHAR
STARTCHAR U+0025
ENCODING 37
SWIDTH 500 0
DWIDTH 8 0
BBX 8 16 0 -2
BITMAP
00
00
00
00
31
4A
4A
34
08
08
16
29
29
46
00
00
ENDCHAR
STARTCHAR U+0026
ENCODING 38
SWIDTH 500 0
DWIDTH 8 0
BBX 8 16 0 -2
BITMAP
00
00
00
00
1C
22
22
22
1C
39
45
42
46
39
00
00
ENDCHAR
STARTCHAR U+0027
ENCODING 39
SWIDTH 500 0
DWIDTH 8 0
BBX 8 16 0 -2
BITMAP
00
00
18
08
08
10
00
00
00
00
00
00
00
00
00
00
ENDCHAR
STARTCHAR U+0028
ENCODING 40
SWIDTH 500 0
DWIDTH 8 0
BBX 8 16 0 -2
BITMAP
00
00
00
04
08
08
10
10
10
10
10
10
08
08
04
00
ENDCHAR
STARTCHAR U+0029
ENCODING 41
SWIDTH 500 0
DWIDTH 8 0
BBX 8 16 0 -2
BITMAP
00
00
00
20
10
10
08
08
08
08
08
08
10
10
20
00
ENDCHAR
STARTCHAR U+002A
ENCODING 42
SWIDTH 500 0
DWIDTH 8 0
BBX 8 16 0 -2
BITMAP
00
00
00
00
00
00
08
49
2A
1C
2A
49
08
00
00
00
ENDCHAR
STARTCHAR U+002B
ENCODING 43
SWIDTH 500 0
DWIDTH 8 0
BBX 8 16 0 -2
BITMAP
00
00
00
00
00
00
08
08
08
7F
08
08
08
00
00
00
ENDCHAR
STARTCHAR U+002C
ENCODING 44
SWIDTH 500 0
DWIDTH 8 0
BBX 8 16 0 -2
BITMAP
00
00
00
00
00
00
00
00
00
00
00
00
18
08
08
10
ENDCHAR
STARTCHAR U+002D
ENCODING 45
SWIDTH 500 0
DWIDTH 8 0
BBX 8 16 0 -2
BITMAP
00
00
00
00
00
00
00
00
00
7E
00
00
00
00
00
00
ENDCHAR
STARTCHAR U+002E
ENCODING 46
SWIDTH 500 0
DWIDTH 8 0
BBX 8 16 0 -2
BITMAP
00
00
00
00
00
00
00
00
00
00
00
00
18
18
00
00
ENDCHAR
STARTCHAR U+002F
ENCODING 47
SWIDTH 500 0
DWIDTH 8 0
BBX 8 16 0 -2
BITMAP
00
00
00
00
02
02
04
08
08
10
10
20
40
40
00
00
ENDCHAR
STARTCHAR U+0030
ENCODING 48
SWIDTH 500 0
DWIDTH 8 0
BBX 8 16 0 -2
BITMAP
00
00
00
00
18
24
42
42
42
42
42
42
24
18
00
00
ENDCHAR
STARTCHAR U+0031
ENCODING 49
SWIDTH 500 0
DWIDTH 8 0
BBX 8 16 0 -2
BITMAP
00
00
00
00
08
18
28
08
08
08
08
08
08
3E
00
00
ENDCHAR
STARTCHAR U+0032
ENCODING 50
SWIDTH 500 0
DWIDTH 8 0
BBX 8 16 0 -2
BITMAP
00
00
00
00
3C
42
42
02
0C
10
20
40
40
7E
00
00
ENDCHAR
STARTCHAR U+0033
ENCODING 51
SWIDTH 500 0
DWIDTH 8 0
BBX 8 16 0 -2
BITMAP
00
00
00
00
3C
42
42
02
1C
02
02
42
42
3C
00
00
ENDCHAR
STARTCHAR U+0034
ENCODING 52
SWIDTH 500 0
DWIDTH 8 0
BBX 8 16 0 -2
BITMAP
00
00
00
00
04
0C
14
24
44
44
7E
04
04
04
00
00
ENDCHAR
STARTCHAR U+0035
ENCODING 53
SWIDTH 500 0
DWIDTH 8 0
BBX 8 16 0 -2
BITMAP
00
00
00
00
7E
40
40
40
7C
02
02
02
42
3C
00
00
ENDCHAR
STARTCHAR U+0036
ENCODING 54
SWIDTH 500 0
DWIDTH 8 0
BBX 8 16 0 -2
BITMAP
00
00
00
00
1C
20
40
40
7C
42
42
42
42
3C
00
00
ENDCHAR
STARTCHAR U+0037
ENCODING 55
SWIDTH 500 0
DWIDTH 8 0
BBX 8 16 0 -2
BITMAP
00
00
00
00
7E
02
02
04
04
04
08
08
08
08
00
00
ENDCHAR
STARTCHAR U+0038
ENCODING 56
SWIDTH 500 0
DWIDTH 8 0
BBX 8 16 0 -2
BITMAP
00
00
00
00
3C
42
42
42
3C
42
42
42
42
3C
00
00
ENDCHAR
STARTCHAR U+0039
ENCODING 57
SWIDTH 500 0
DWIDTH 8 0
BBX 8 16 0 -2
BITMAP
00
00
00
00
3C
42
42
42
3E
02
02
02
04
38
00
00
ENDCHAR
STARTCHAR U+003A
ENCODING 58
SWIDTH 500 0
DWIDTH 8 0
BBX 8 16 0 -2
BITMAP
00
00
00
00
00
00
18
18
00
00
00
18
18
00
00
00
ENDCHAR
STARTCHAR U+003B
ENCODING 59
SWIDTH 500 0
DWIDTH 8 0
BBX 8 16 0 -2
BITMAP
00
00
00
00
00
00
18
18
00
00
00
18
08
08
10
00
ENDCHAR
STARTCHAR U+003C
ENCODING 60
SWIDTH 500 0
DWIDTH 8 0
BBX 8 16 0 -2
BITMAP
00
00
00
00
00
02
04
08
10
20
10
08
04
02
00
00
ENDCHAR
STARTCHAR U+003D
ENCODING 61
SWIDTH 500 0
DWIDTH 8 0
BBX 8 16 0 -2
BITMAP
00
00
00
00
00
00
00
7E
00
00
00
7E
00
00
00
00
ENDCHAR
STARTCHAR U+003E
ENCODING 62
SWIDTH 500 0
DWIDTH 8 0
BBX 8 16 0 -2
BITMAP
00
00
00
00
00
40
20
10
08
04
08
10
20
40
00
00
ENDCHAR
STARTCHAR U+003F
ENCODING 63
SWIDTH 500 0
DWIDTH 8 0
BBX 8 16 0 -2
BITMAP
00
00
00
00
3C
42
42
02
04
08
08
00
08
08
00
00
ENDCHAR
STARTCHAR U+0040
ENCODING 64
SWIDTH 500 0
DWIDTH 8 0
BBX 8 16 0 -2
BITMAP
00
00
00
00
1C
22
4A
56
52
52
52
4E
20
1E
00
00
ENDCHAR
STARTCHAR U+0041
ENCODING 65
SWIDTH 500 0
DWIDTH 8 0
BBX 8 16 0 -2
BITMAP
00
00
00
00
18
24
24
42
42
7E
42
42
42
42
00
00
ENDCHAR
STARTCHAR U+0042
ENCODING 66
SWIDTH 500 0
DWIDTH 8 0
BBX 8 16 0 -2
BITMAP
00
00
00
00
7C
42
42
42
7C
42
42
42
42
7C
00
00
ENDCHAR
STARTCHAR U+0043
ENCODING 67
SWIDTH 500 0
DWIDTH 8 0
BBX 8 16 0 -2
BITMAP
00
00
00
00
3C
42
42
40
40
40
40
42
42
3C
00
00
ENDCHAR
STARTCHAR U+0044
ENCODING 68
SWIDTH 500 0
DWIDTH 8 0
BBX 8 16 0 -2
BITMAP
00
00
00
00
78
44
42
42
42
42
42
42
44
78
00
00
ENDCHAR
STARTCHAR U+0045
ENCODING 69
SWIDTH 500 0
DWIDTH 8 0
BBX 8 16 0 -2
BITMAP
00
00
00
00
7E
40
40
40
7C
40
40
40
40
7E
00
00
ENDCHAR
STARTCHAR U+0046
ENCODING 70
SWIDTH 500 0
DWIDTH 8 0
BBX 8 16 0 -2
BITMAP
00
00
00
00
7E
40
40
40
7C
40
40
40
40
40
00
00
ENDCHAR
STARTCHAR U+0047
ENCODING 71
SWIDTH 500 0
DWIDTH 8 0
BBX 8 16 0 -2
BITMAP
00
00
00
00
3C
42
42
40
40
4E
42
42
46
3A
00
00
ENDCHAR
STARTCHAR U+0048
ENCODING 72
SWIDTH 500 0
DWIDTH 8 0
BBX 8 16 0 -2
BITMAP
00
00
00
00
42
42
42
42
7E
42
42
42
42
42
00
00
ENDCHAR
STARTCHAR U+0049
ENCODING 73
SWIDTH 500 0
DWIDTH 8 0
BBX 8 16 0 -2
BITMAP
00
00
00
00
3E
08
08
08
08
08
08
08
08
3E
00
00
ENDCHAR
STARTCHAR U+004A
ENCODING 74
SWIDTH 500 0
DWIDTH 8 0
BBX 8 16 0 -2
BITMAP
00
00
00
00
1F
04
04
04
04
04
04
44
44
38
00
00
ENDCHAR
STARTCHAR U+004B
ENCODING 75
SWIDTH 500 0
DWIDTH 8 0
BBX 8 16 0 -2
BITMAP
00
00
00
00
42
44
48
50
60
60
50
48
44
42
00
00
ENDCHAR
STARTCHAR U+004C
ENCODING 76
SWIDTH 500 0
DWIDTH 8 0
BBX 8 16 0 -2
BITMAP
00
00
00
00
40
40
40
40
40
40
40
40
40
7E
00
00
ENDCHAR
STARTCHAR U+004D
ENCODING 77
SWIDTH 500 0
DWIDTH 8 0
BBX 8 16 0 -2
BITMAP
00
00
00
00
42
42
66
66
5A
5A
42
42
42
42
00
00
ENDCHAR
STARTCHAR U+004E
ENCODING 78
SWIDTH 500 0
DWIDTH 8 0
BBX 8 16 0 -2
BITMAP
00
00
00
00
42
62
62
52
52
4A
4A
46
46
42
00
00
ENDCHAR
STARTCHAR U+004F
ENCODING 79
SWIDTH 500 0
DWIDTH 8 0
BBX 8 16 0 -2
BITMAP
00
00
00
00
3C
42
42
42
42
42
42
42
42
3C
00
00
ENDCHAR
STARTCHAR U+0050
ENCODING 80
SWIDTH 500 0
DWIDTH 8 0
BBX 8 16 0 -2
BITMAP
00
00
00
00
7C
42
42
42
7C
40
40
40
40
40
00
00
ENDCHAR
STARTCHAR U+0051
ENCODING 81
SWIDTH 500 0
DWIDTH 8 0
BBX 8 16 0 -2
BITMAP
00
00
00
00
3C
42
42
42
42
42
42
5A
66
3C
03
00
ENDCHAR
STARTCHAR U+0052
ENCODING 82
SWIDTH 500 0
DWIDTH 8 0
BBX 8 16 0 -2
BITMAP
00
00
00
00
7C
42
42
42
7C
48
44
44
42
42
00
00
ENDCHAR
STARTCHAR U+0053
ENCODING 83
SWIDTH 500 0
DWIDTH 8 0
BBX 8 16 0 -2
BITMAP
00
00
00
00
3C
42
42
40
30
0C
02
42
42
3C
00
00
ENDCHAR
STARTCHAR U+0054
ENCODING 84
SWIDTH 500 0
DWIDTH 8 0
BBX 8 16 0 -2
BITMAP
00
00
00
00
7F
08
08
08
08
08
08
08
08
08
00
00
ENDCHAR
STARTCHAR U+0055
ENCODING 85
SWIDTH 500 0
DWIDTH 8 0
BBX 8 16 0 -2
BITMAP
00
00
00
00
42
42
42
42
42
42
42
42
42
3C
00
00
ENDCHAR
STARTCHAR U+0056
ENCODING 86
SWIDTH 500 0
DWIDTH 8 0
BBX 8 16 0 -2
BITMAP
00
00
00
00
41
41
41
22
22
22
14
14
08
08
00
00
ENDCHAR
STARTCHAR U+0057
ENCODING 87
SWIDTH 500 0
DWIDTH 8 0
BBX 8 16 0 -2
BITMAP
00
00
00
00
42
42
42
42
5A
5A
66
66
42
42
00
00
ENDCHAR
STARTCHAR U+0058
ENCODING 88
SWIDTH 500 0
DWIDTH 8 0
BBX 8 16 0 -2
BITMAP
00
00
00
00
42
42
24
24
18
18
24
24
42
42
00
00
ENDCHAR
STARTCHAR U+0059
ENCODING 89
SWIDTH 500 0
DWIDTH 8 0
BBX 8 16 0 -2
BITMAP
00
00
00
00
41
41
22
22
14
08
08
08
08
08
00
00
ENDCHAR
STARTCHAR U+005A
ENCODING 90
SWIDTH 500 0
DWIDTH 8 0
BBX 8 16 0 -2
BITMAP
00
00
00
00
7E
02
02
04
08
10
20
40
40
7E
00
00
ENDCHAR
STARTCHAR U+005B
ENCODING 91
SWIDTH 500 0
DWIDTH 8 0
BBX 8 16 0 -2
BITMAP
00
00
00
0E
08
08
08
08
08
08
08
08
08
08
0E
00
ENDCHAR
STARTCHAR U+005C
ENCODING 92
SWIDTH 500 0
DWIDTH 8 0
BBX 8 16 0 -2
BITMAP
00
00
00
00
40
40
20
10
10
08
08
04
02
02
00
00
ENDCHAR
STARTCHAR U+005D
ENCODING 93
SWIDTH 500 0
DWIDTH 8 0
BBX 8 16 0 -2
BITMAP
00
00
00
70
10
10
10
10
10
10
10
10
10
10
70
00
ENDCHAR
STARTCHAR U+005E
ENCODING 94
SWIDTH 500 0
DWIDTH 8 0
BBX 8 16 0 -2
BITMAP
00
00
18
24
42
00
00
00
00
00
00
00
00
00
00
00
ENDCHAR
STARTCHAR U+005F
ENCODING 95
SWIDTH 500 0
DWIDTH 8 0
BBX 8 16 0 -2
BITMAP
00
00
00
00
00
00
00
00
00
00
00
00
00
00
7F
00
ENDCHAR
STARTCHAR U+0060
ENCODING 96
SWIDTH 500 0
DWIDTH 8 0
BBX 8 16 0 -2
BITMAP
00
00
18
10
10
08
00
00
00
00
00
00
00
00
00
00
ENDCHAR
STARTCHAR U+0061
ENCODING 97
SWIDTH 500 0
DWIDTH 8 0
BBX 8 16 0 -2
BITMAP
00
00
00
00
00
00
3C
42
02
3E
42
42
46
3A
00
00
ENDCHAR
STARTCHAR U+0062
ENCODING 98
SWIDTH 500 0
DWIDTH 8 0
BBX 8 16 0 -2
BITMAP
00
00
00
40
40
40
5C
62
42
42
42
42
62
5C
00
00
ENDCHAR
STARTCHAR U+0063
ENCODING 99
SWIDTH 500 0
DWIDTH 8 0
BBX 8 16 0 -2
BITMAP
00
00
00
00
00
00
3C
42
40
40
40
40
42
3C
00
00
ENDCHAR
STARTCHAR U+0064
ENCODING 100
SWIDTH 500 0
DWIDTH 8 0
BBX 8 16 0 -2
BITMAP
00
00
00
02
02
02
3A
46
42
42
42
42
46
3A
00
00
ENDCHAR
STARTCHAR U+0065
ENCODING 101
SWIDTH 500 0
DWIDTH 8 0
BBX 8 16 0 -2
BITMAP
00
00
00
00
00
00
3C
42
42
7E
40
40
42
3C
00
00
ENDCHAR
STARTCHAR U+0066
ENCODING 102
SWIDTH 500 0
DWIDTH 8 0
BBX 8 16 0 -2
BITMAP
00
00
00
0C
10
10
10
7C
10
10
10
10
10
10
00
00
ENDCHAR
STARTCHAR U+0067
ENCODING 103
SWIDTH 500 0
DWIDTH 8 0
BBX 8 16 0 -2
BITMAP
00
00
00
00
00
02
3A
44
44
44
38
20
3C
42
42
3C
ENDCHAR
STARTCHAR U+0068
ENCODING 104
SWIDTH 500 0
DWIDTH 8 0
BBX 8 16 0 -2
BITMAP
00
00
00
40
40
40
5C
62
42
42
42
42
42
42
00
00
ENDCHAR
STARTCHAR U+0069
ENCODING 105
SWIDTH 500 0
DWIDTH 8 0
BBX 8 16 0 -2
BITMAP
00
00
00
08
08
00
18
08
08
08
08
08
08
3E
00
00
ENDCHAR
STARTCHAR U+006A
ENCODING 106
SWIDTH 500 0
DWIDTH 8 0
BBX 8 16 0 -2
BITMAP
00
00
00
04
04
00
0C
04
04
04
04
04
04
04
48
30
ENDCHAR
STARTCHAR U+006B
ENCODING 107
SWIDTH 500 0
DWIDTH 8 0
BBX 8 16 0 -2
BITMAP
00
00
00
00
40
40
44
48
50
60
50
48
44
42
00
00
ENDCHAR
STARTCHAR U+006C
ENCODING 108
SWIDTH 500 0
DWIDTH 8 0
BBX 8 16 0 -2
BITMAP
00
00
00
00
18
08
08
08
08
08
08
08
08
3E
00
00
ENDCHAR
STARTCHAR U+006D
ENCODING 109
SWIDTH 500 0
DWIDTH 8 0
BBX 8 16 0 -2
BITMAP
00
00
00
00
00
00
76
49
49
49
49
49
49
49
00
00
ENDCHAR
STARTCHAR U+006E
ENCODING 110
SWIDTH 500 0
DWIDTH 8 0
BBX 8 16 0 -2
BITMAP
00
00
00
00
00
00
5C
62
42
42
42
42
42
42
00
00
ENDCHAR
STARTCHAR U+006F
ENCODING 111
SWIDTH 500 0
DWIDTH 8 0
BBX 8 16 0 -2
BITMAP
00
00
00
00
00
00
3C
42
42
42
42
42
42
3C
00
00
ENDCHAR
STARTCHAR U+0070
ENCODING 112
SWIDTH 500 0
DWIDTH 8 0
BBX 8 16 0 -2
BITMAP
00
00
00
00
00
00
5C
62
42
42
42
42
62
5C
40
40
ENDCHAR
STARTCHAR U+0071
ENCODING 113
SWIDTH 500 0
DWIDTH 8 0
BBX 8 16 0 -2
BITMAP
00
00
00
00
00
00
3A
46
42
42
42
42
46
3A
02
02
ENDCHAR
STARTCHAR U+0072
ENCODING 114
SWIDTH 500 0
DWIDTH 8 0
BBX 8 16 0 -2
BITMAP
00
00
00
00
00
00
5C
62
42
40
40
40
40
40
00
00
ENDCHAR
STARTCHAR U+0073
ENCODING 115
SWIDTH 500 0
DWIDTH 8 0
BBX 8 16 0 -2
BITMAP
00
00
00
00
00
00
3C
42
40
30
0C
02
42
3C
00
00
ENDCHAR
STARTCHAR U+0074
ENCODING 116
SWIDTH 500 0
DWIDTH 8 0
BBX 8 16 0 -2
BITMAP
00
00
00
00
10
10
7C
10
10
10
10
10
10
0C
00
00
ENDCHAR
STARTCHAR U+0075
ENCODING 117
SWIDTH 500 0
DWIDTH 8 0
BBX 8 16 0 -2
BITMAP
00
00
00
00
00
00
42
42
42
42
42
42
46
3A
00
00
ENDCHAR
STARTCHAR U+0076
ENCODING 118
SWIDTH 500 0
DWIDTH 8 0
BBX 8 16 0 -2
BITMAP
00
00
00
00
00
00
42
42
42
24
24
24
18
18
00
00
ENDCHAR
STARTCHAR U+0077
ENCODING 119
SWIDTH 500 0
DWIDTH 8 0
BBX 8 16 0 -2
BITMAP
00
00
00
00
00
00
41
49
49
49
49
49
49
36
00
00
ENDCHAR
STARTCHAR U+0078
ENCODING 120
SWIDTH 500 0
DWIDTH 8 0
BBX 8 16 0 -2
BITMAP
00
00
00
00
00
00
42
42
24
18
18
24
42
42
00
00
ENDCHAR
STARTCHAR U+0079
ENCODING 121
SWIDTH 500 0
DWIDTH 8 0
BBX 8 16 0 -2
BITMAP
00
00
00
00
00
00
42
42
42
42
42
26
1A
02
02
3C
ENDCHAR
STARTCHAR U+007A
ENCODING 122
SWIDTH 500 0
DWIDTH 8 0
BBX 8 16 0 -2
BITMAP
00
00
00
00
00
00
7E
02
04
08
10
20
40
7E
00
00
ENDCHAR
STARTCHAR U+007B
ENCODING 123
SWIDTH 500 0
DWIDTH 8 0
BBX 8 16 0 -2
BITMAP
00
00
00
0C
10
10
08
08
10
10
08
08
10
10
0C
00
ENDCHAR
STARTCHAR U+007C
ENCODING 124
SWIDTH 500 0
DWIDTH 8 0
BBX 8 16 0 -2
BITMAP
00
00
08
08
08
08
08
08
08
08
08
08
08
08
08
08
ENDCHAR
STARTCHAR U+007D
ENCODING 125
SWIDTH 500 0
DWIDTH 8 0
BBX 8 16 0 -2
BITMAP
00
00
00
30
08
08
10
10
08
08
10
10
08
08
30
00
ENDCHAR
STARTCHAR U+007E
ENCODING 126
SWIDTH 500 0
DWIDTH 8 0
BBX 8 16 0 -2
BITMAP
00
00
00
31
49
46
00
00
00
00
00
00
00
00
00
00
ENDCHAR
STARTCHAR U+00A0
ENCODING 160
SWIDTH 500 0
DWIDTH 8 0
BBX 8 16 0 -2
BITMAP
00
00
00
00
00
00
00
00
00
00
00
00
00
00
00
00
ENDCHAR
STARTCHAR U+00A1
ENCODING 161
SWIDTH 500 0
DWIDTH 8 0
BBX 8 16 0 -2
BITMAP
00
00
00
00
08
08
00
08
08
08
08
08
08
08
00
00
ENDCHAR
STARTCHAR U+00A2
ENCODING 162
SWIDTH 500 0
DWIDTH 8 0
BBX 8 16 0 -2
BITMAP
00
00
00
00
08
08
3E
49
48
48
49
3E
08
08
00
00
ENDCHAR
STARTCHAR U+00A3
ENCODING 163
SWIDTH 500 0
DWIDTH 8 0
BBX 8 16 0 -2
BITMAP
00
00
00
00
0E
10
10
10
7C
10
10
10
3E
61
00
00
ENDCHAR
STARTCHAR U+00A4
ENCODING 164
SWIDTH 500 0
DWIDTH 8 0
BBX 8 16 0 -2
BITMAP
00
00
00
00
00
42
24
3C
24
24
3C
24
42
00
00
00
ENDCHAR
STARTCHAR U+00A5
ENCODING 165
SWIDTH 500 0
DWIDTH 8 0
BBX 8 16 0 -2
BITMAP
00
00
00
00
41
22
14
08
7F
08
7F
08
08
08
00
00
ENDCHAR
STARTCHAR U+00A6
ENCODING 166
SWIDTH 500 0
DWIDTH 8 0
BBX 8 16 0 -2
BITMAP
00
00
00
00
08
08
08
08
00
00
08
08
08
08
00
00
ENDCHAR
STARTCHAR U+00A7
ENCODING 167
SWIDTH 500 0
DWIDTH 8 0
BBX 8 16 0 -2
BITMAP
00
00
00
00
3C
42
40
3C
42
42
3C
02
42
3C
00
00
ENDCHAR
STARTCHAR U+00A8
ENCODING 168
SWIDTH 500 0
DWIDTH 8 0
BBX 8 16 0 -2
BITMAP
24
24
00
00
00
00
00
00
00
00
00
00
00
00
00
00
ENDCHAR
STARTCHAR U+00A9
ENCODING 169
SWIDTH 500 0
DWIDTH 8 0
BBX 8 16 0 -2
BITMAP
00
00
00
00
3C
42
5A
66
62
62
66
5A
42
3C
00
00
ENDCHAR
STARTCHAR U+00AA
ENCODING 170
SWIDTH 500 0
DWIDTH 8 0
BBX 8 16 0 -2
BITMAP
00
00
1C
02
1E
22
1E
00
3E
00
00
00
00
00
00
00
ENDCHAR
STARTCHAR U+00AB
ENCODING 171
SWIDTH 500 0
DWIDTH 8 0
BBX 8 16 0 -2
BITMAP
00
00
00
00
00
12
12
24
24
48
24
24
12
12
00
00
ENDCHAR
STARTCHAR U+00AC
ENCODING 172
SWIDTH 500 0
DWIDTH 8 0
BBX 8 16 0 -2
BITMAP
00
00
00
00
00
00
00
00
00
00
7E
02
02
02
00
00
ENDCHAR
STARTCHAR U+00AD
ENCODING 173
SWIDTH 500 0
DWIDTH 8 0
BBX 8 16 0 -2
BITMAP
00
00
00
00
00
00
00
00
00
7E
00
00
00
00
00
00
ENDCHAR
STARTCHAR U+00AE
ENCODING 174
SWIDTH 500 0
DWIDTH 8 0
BBX 8 16 0 -2
BITMAP
00
00
00
00
3C
42
7A
66
66
7A
6A
66
42
3C
00
00
ENDCHAR
STARTCHAR U+00AF
ENCODING 175
SWIDTH 500 0
DWIDTH 8 0
BBX 8 16 0 -2
BITMAP
00
00
7E
00
00
00
00
00
00
00
00
00
00
00
00
00
ENDCHAR
STARTCHAR U+00B0
ENCODING 176
SWIDTH 500 0
DWIDTH 8 0
BBX 8 16 0 -2
BITMAP
10
28
28
10
00
00
00
00
00
00
00
00
00
00
00
00
ENDCHAR
STARTCHAR U+00B1
ENCODING 177
SWIDTH 500 0
DWIDTH 8 0
BBX 8 16 0 -2
BITMAP
00
00
00
00
08
08
08
7F
08
08
08
00
7F
00
00
00
ENDCHAR
STARTCHAR U+00B2
ENCODING 178
SWIDTH 500 0
DWIDTH 8 0
BBX 8 16 0 -2
BITMAP
00
00
1C
22
02
1C
20
20
3E
00
00
00
00
00
00
00
ENDCHAR
STARTCHAR U+00B3
ENCODING 179
SWIDTH 500 0
DWIDTH 8 0
BBX 8 16 0 -2
BITMAP
00
00
1C
22
02
1C
02
22
1C
00
00
00
00
00
00
00
ENDCHAR
STARTCHAR U+00B4
ENCODING 180
SWIDTH 500 0
DWIDTH 8 0
BBX 8 16 0 -2
BITMAP
0C
30
00
00
00
00
00
00
00
00
00
00
00
00
00
00
ENDCHAR
STARTCHAR U+00B5
ENCODING 181
SWIDTH 500 0
DWIDTH 8 0
BBX 8 16 0 -2
BITMAP
00
00
00
00
00
00
00
00
22
22
22
22
36
2A
20
20
ENDCHAR
STARTCHAR U+00B6
ENCODING 182
SWIDTH 500 0
DWIDTH 8 0
BBX 8 16 0 -2
BITMAP
00
00
00
3E
7A
7A
7A
7A
3A
0A
0A
0A
0A
0A
0E
00
ENDCHAR
STARTCHAR U+00B7
ENCODING 183
SWIDTH 500 0
DWIDTH 8 0
BBX 8 16 0 -2
BITMAP
00
00
00
00
00
00
00
00
18
18
00
00
00
00
00
00
ENDCHAR
STARTCHAR U+00B8
ENCODING 184
SWIDTH 500 0
DWIDTH 8 0
BBX 8 16 0 -2
BITMAP
00
00
00
00
00
00
00
00
00
00
00
00
00
00
08
30
ENDCHAR
STARTCHAR U+00B9
ENCODING 185
SWIDTH 500 0
DWIDTH 8 0
BBX 8 16 0 -2
BITMAP
00
00
08
18
28
08
08
08
08
00
00
00
00
00
00
00
ENDCHAR
STARTCHAR U+00BA
ENCODING 186
SWIDTH 500 0
DWIDTH 8 0
BBX 8 16 0 -2
BITMAP
00
00
1C
22
22
22
1C
00
3E
00
00
00
00
00
00
00
ENDCHAR
STARTCHAR U+00BB
ENCODING 187
SWIDTH 500 0
DWIDTH 8 0
BBX 8 16 0 -2
BITMAP
00
00
00
00
00
48
48
24
24
12
24
24
48
48
00
00
ENDCHAR
STARTCHAR U+00BC
ENCODING 188
SWIDTH 500 0
DWIDTH 8 0
BBX 8 16 0 -2
BITMAP
00
00
00
00
22
62
24
28
28
12
16
2A
4E
42
00
00
ENDCHAR
STARTCHAR U+00BD
ENCODING 189
SWIDTH 500 0
DWIDTH 8 0
BBX 8 16 0 -2
BITMAP
00
00
00
00
22
62
24
28
28
14
1A
22
44
4E
00
00
ENDCHAR
STARTCHAR U+00BE
ENCODING 190
SWIDTH 500 0
DWIDTH 8 0
BBX 8 16 0 -2
BITMAP
00
00
00
00
62
12
24
18
68
12
16
2A
4E
42
00
00
ENDCHAR
STARTCHAR U+00BF
ENCODING 191
SWIDTH 500 0
DWIDTH 8 0
BBX 8 16 0 -2
BITMAP
00
00
00
00
08
08
00
08
08
30
42
42
42
3C
00
00
ENDCHAR
STARTCHAR U+00C0
ENCODING 192
SWIDTH 500 0
DWIDTH 8 0
BBX 8 16 0 -2
BITMAP
30
0C
00
00
18
24
24
42
42
7E
42
42
42
42
00
00
ENDCHAR
STARTCHAR U+00C1
ENCODING 193
SWIDTH 500 0
DWIDTH 8 0
BBX 8 16 0 -2
BITMAP
0C
30
00
00
18
24
24
42
42
7E
42
42
42
42
00
00
ENDCHAR
STARTCHAR U+00C2
ENCODING 194
SWIDTH 500 0
DWIDTH 8 0
BBX 8 16 0 -2
BITMAP
18
24
00
00
18
24
24
42
42
7E
42
42
42
42
00
00
ENDCHAR
STARTCHAR U+00C3
ENCODING 195
SWIDTH 500 0
DWIDTH 8 0
BBX 8 16 0 -2
BITMAP
32
4C
00
00
18
24
24
42
42
7E
42
42
42
42
00
00
ENDCHAR
STARTCHAR U+00C4
ENCODING 196
SWIDTH 500 0
DWIDTH 8 0
BBX 8 16 0 -2
BITMAP
24
24
00
00
18
24
24
42
42
7E
42
42
42
42
00
00
ENDCHAR
STARTCHAR U+00C5
ENCODING 197
SWIDTH 500 0
DWIDTH 8 0
BBX 8 16 0 -2
BITMAP
18
24
18
00
18
24
24
42
42
7E
42
42
42
42
00
00
ENDCHAR
STARTCHAR U+00C6
ENCODING 198
SWIDTH 500 0
DWIDTH 8 0
BBX 8 16 0 -2
BITMAP
00
00
00
00
1F
28
48
48
7F
48
48
48
48
4F
00
00
ENDCHAR
STARTCHAR U+00C7
ENCODING 199
SWIDTH 500 0
DWIDTH 8 0
BBX 8 16 0 -2
BITMAP
00
00
00
00
3C
42
42
40
40
40
40
42
42
3C
08
30
ENDCHAR
STARTCHAR U+00C8
ENCODING 200
SWIDTH 500 0
DWIDTH 8 0
BBX 8 16 0 -2
BITMAP
30
0C
00
00
7E
40
40
40
7C
40
40
40
40
7E
00
00
ENDCHAR
STARTCHAR U+00C9
ENCODING 201
SWIDTH 500 0
DWIDTH 8 0
BBX 8 16 0 -2
BITMAP
0C
30
00
00
7E
40
40
40
7C
40
40
40
40
7E
00
00
ENDCHAR
STARTCHAR U+00CA
ENCODING 202
SWIDTH 500 0
DWIDTH 8 0
BBX 8 16 0 -2
BITMAP
18
24
00
00
7E
40
40
40
7C
40
40
40
40
7E
00
00
ENDCHAR
STARTCHAR U+00CB
ENCODING 203
SWIDTH 500 0
DWIDTH 8 0
BBX 8 16 0 -2
BITMAP
24
24
00
00
7E
40
40
40
7C
40
40
40
40
7E
00
00
ENDCHAR
STARTCHAR U+00CC
ENCODING 204
SWIDTH 500 0
DWIDTH 8 0
BBX 8 16 0 -2
BITMAP
18
06
00
00
3E
08
08
08
08
08
08
08
08
3E
00
00
ENDCHAR
STARTCHAR U+00CD
ENCODING 205
SWIDTH 500 0
DWIDTH 8 0
BBX 8 16 0 -2
BITMAP
0C
30
00
00
3E
08
08
08
08
08
08
08
08
3E
00
00
ENDCHAR
STARTCHAR U+00CE
ENCODING 206
SWIDTH 500 0
DWIDTH 8 0
BBX 8 16 0 -2
BITMAP
18
24
00
00
3E
08
08
08
08
08
08
08
08
3E
00
00
ENDCHAR
STARTCHAR U+00CF
ENCODING 207
SWIDTH 500 0
DWIDTH 8 0
BBX 8 16 0 -2
BITMAP
24
24
00
00
3E
08
08
08
08
08
08
08
08
3E
00
00
ENDCHAR
STARTCHAR U+00D0
ENCODING 208
SWIDTH 500 0
DWIDTH 8 0
BBX 8 16 0 -2
BITMAP
00
00
00
00
78
44
42
42
F2
42
42
42
44
78
00
00
ENDCHAR
STARTCHAR U+00D1
ENCODING 209
SWIDTH 500 0
DWIDTH 8 0
BBX 8 16 0 -2
BITMAP
32
4C
00
00
42
62
62
52
52
4A
4A
46
46
42
00
00
ENDCHAR
STARTCHAR U+00D2
ENCODING 210
SWIDTH 500 0
DWIDTH 8 0
BBX 8 16 0 -2
BITMAP
30
0C
00
00
3C
42
42
42
42
42
42
42
42
3C
00
00
ENDCHAR
STARTCHAR U+00D3
ENCODING 211
SWIDTH 500 0
DWIDTH 8 0
BBX 8 16 0 -2
BITMAP
0C
30
00
00
3C
42
42
42
42
42
42
42
42
3C
00
00
ENDCHAR
STARTCHAR U+00D4
ENCODING 212
SWIDTH 500 0
DWIDTH 8 0
BBX 8 16 0 -2
BITMAP
18
24
00
00
3C
42
42
42
42
42
42
42
42
3C
00
00
ENDCHAR
STARTCHAR U+00D5
ENCODING 213
SWIDTH 500 0
DWIDTH 8 0
BBX 8 16 0 -2
BITMAP
32
4C
00
00
3C
42
42
42
42
42
42
42
42
3C
00
00
ENDCHAR
STARTCHAR U+00D6
ENCODING 214
SWIDTH 500 0
DWIDTH 8 0
BBX 8 16 0 -2
BITMAP
24
24
00
00
3C
42
42
42
42
42
42
42
42
3C
00
00
ENDCHAR
STARTCHAR U+00D7
ENCODING 215
SWIDTH 500 0
DWIDTH 8 0
BBX 8 16 0 -2
BITMAP
00
00
00
00
00
00
42
42
24
18
24
42
42
00
00
00
ENDCHAR
STARTCHAR U+00D8
ENCODING 216
SWIDTH 500 0
DWIDTH 8 0
BBX 8 16 0 -2
BITMAP
00
00
00
02
3A
44
46
4A
4A
52
52
62
22
5C
40
00
ENDCHAR
STARTCHAR U+00D9
ENCODING 217
SWIDTH 500 0
DWIDTH 8 0
BBX 8 16 0 -2
BITMAP
30
0C
00
00
42
42
42
42
42
42
42
42
42
3C
00
00
ENDCHAR
STARTCHAR U+00DA
ENCODING 218
SWIDTH 500 0
DWIDTH 8 0
BBX 8 16 0 -2
BITMAP
0C
30
00
00
42
42
42
42
42
42
42
42
42
3C
00
00
ENDCHAR
STARTCHAR U+00DB
ENCODING 219
SWIDTH 500 0
DWIDTH 8 0
BBX 8 16 0 -2
BITMAP
18
24
00
00
42
42
42
42
42
42
42
42
42
3C
00
00
ENDCHAR
STARTCHAR U+00DC
ENCODING 220
SWIDTH 500 0
DWIDTH 8 0
BBX 8 16 0 -2
BITMAP
24
24
00
00
42
42
42
42
42
42
42
42
42
3C
00
00
ENDCHAR
STARTCHAR U+00DD
ENCODING 221
SWIDTH 500 0
DWIDTH 8 0
BBX 8 16 0 -2
BITMAP
0C
30
00
00
41
41
22
22
14
08
08
08
08
08
00
00
ENDCHAR
STARTCHAR U+00DE
ENCODING 222
SWIDTH 500 0
DWIDTH 8 0
BBX 8 16 0 -2
BITMAP
00
00
00
40
40
78
44
42
42
44
78
40
40
40
00
00
ENDCHAR
STARTCHAR U+00DF
ENCODING 223
SWIDTH 500 0
DWIDTH 8 0
BBX 8 16 0 -2
BITMAP
00
00
00
00
38
44
44
44
7C
42
42
42
62
5C
00
00
ENDCHAR
STARTCHAR U+00E0
ENCODING 224
SWIDTH 500 0
DWIDTH 8 0
BBX 8 16 0 -2
BITMAP
00
00
30
0C
00
00
3C
42
02
3E
42
42
46
3A
00
00
ENDCHAR
STARTCHAR U+00E1
ENCODING 225
SWIDTH 500 0
DWIDTH 8 0
BBX 8 16 0 -2
BITMAP
00
00
0C
30
00
00
3C
42
02
3E
42
42
46
3A
00
00
ENDCHAR
STARTCHAR U+00E2
ENCODING 226
SWIDTH 500 0
DWIDTH 8 0
BBX 8 16 0 -2
BITMAP
00
00
18
24
00
00
3C
42
02
3E
42
42
46
3A
00
00
ENDCHAR
STARTCHAR U+00E3
ENCODING 227
SWIDTH 500 0
DWIDTH 8 0
BBX 8 16 0 -2
BITMAP
00
00
32
4C
00
00
3C
42
02
3E
42
42
46
3A
00
00
ENDCHAR
STARTCHAR U+00E4
ENCODING 228
SWIDTH 500 0
DWIDTH 8 0
BBX 8 16 0 -2
BITMAP
00
00
24
24
00
00
3C
42
02
3E
42
42
46
3A
00
00
ENDCHAR
STARTCHAR U+00E5
ENCODING 229
SWIDTH 500 0
DWIDTH 8 0
BBX 8 16 0 -2
BITMAP
00
18
24
18
00
00
3C
42
02
3E
42
42
46
3A
00
00
ENDCHAR
STARTCHAR U+00E6
ENCODING 230
SWIDTH 500 0
DWIDTH 8 0
BBX 8 16 0 -2
BITMAP
00
00
00
00
00
00
3E
49
09
3F
48
48
49
3E
00
00
ENDCHAR
STARTCHAR U+00E7
ENCODING 231
SWIDTH 500 0
DWIDTH 8 0
BBX 8 16 0 -2
BITMAP
00
00
00
00
00
00
3C
42
40
40
40
40
42
3C
08
30
ENDCHAR
STARTCHAR U+00E8
ENCODING 232
SWIDTH 500 0
DWIDTH 8 0
BBX 8 16 0 -2
BITMAP
00
00
30
0C
00
00
3C
42
42
7E
40
40
42
3C
00
00
ENDCHAR
STARTCHAR U+00E9
ENCODING 233
SWIDTH 500 0
DWIDTH 8 0
BBX 8 16 0 -2
BITMAP
00
00
0C
30
00
00
3C
42
42
7E
40
40
42
3C
00
00
ENDCHAR
STARTCHAR U+00EA
ENCODING 234
SWIDTH 500 0
DWIDTH 8 0
BBX 8 16 0 -2
BITMAP
00
00
18
24
00
00
3C
42
42
7E
40
40
42
3C
00
00
ENDCHAR
STARTCHAR U+00EB
ENCODING 235
SWIDTH 500 0
DWIDTH 8 0
BBX 8 16 0 -2
BITMAP
00
00
24
24
00
00
3C
42
42
7E
40
40
42
3C
00
00
ENDCHAR
STARTCHAR U+00EC
ENCODING 236
SWIDTH 500 0
DWIDTH 8 0
BBX 8 16 0 -2
BITMAP
00
00
30
0C
00
00
18
08
08
08
08
08
08
3E
00
00
ENDCHAR
STARTCHAR U+00ED
ENCODING 237
SWIDTH 500 0
DWIDTH 8 0
BBX 8 16 0 -2
BITMAP
00
00
0C
30
00
00
18
08
08
08
08
08
08
3E
00
00
ENDCHAR
STARTCHAR U+00EE
ENCODING 238
SWIDTH 500 0
DWIDTH 8 0
BBX 8 16 0 -2
BITMAP
00
00
18
24
00
00
18
08
08
08
08
08
08
3E
00
00
ENDCHAR
STARTCHAR U+00EF
ENCODING 239
SWIDTH 500 0
DWIDTH 8 0
BBX 8 16 0 -2
BITMAP
00
00
24
24
00
00
18
08
08
08
08
08
08
3E
00
00
ENDCHAR
STARTCHAR U+00F0
ENCODING 240
SWIDTH 500 0
DWIDTH 8 0
BBX 8 16 0 -2
BITMAP
00
00
32
0C
14
22
02
3E
42
42
42
42
42
3C
00
00
ENDCHAR
STARTCHAR U+00F1
ENCODING 241
SWIDTH 500 0
DWIDTH 8 0
BBX 8 16 0 -2
BITMAP
00
00
32
4C
00
00
5C
62
42
42
42
42
42
42
00
00
ENDCHAR
STARTCHAR U+00F2
ENCODING 242
SWIDTH 500 0
DWIDTH 8 0
BBX 8 16 0 -2
BITMAP
00
00
30
0C
00
00
3C
42
42
42
42
42
42
3C
00
00
ENDCHAR
STARTCHAR U+00F3
ENCODING 243
SWIDTH 500 0
DWIDTH 8 0
BBX 8 16 0 -2
BITMAP
00
00
0C
30
00
00
3C
42
42
42
42
42
42
3C
00
00
ENDCHAR
STARTCHAR U+00F4
ENCODING 244
SWIDTH 500 0
DWIDTH 8 0
BBX 8 16 0 -2
BITMAP
00
00
18
24
00
00
3C
42
42
42
42
42
42
3C
00
00
ENDCHAR
STARTCHAR U+00F5
ENCODING 245
SWIDTH 500 0
DWIDTH 8 0
BBX 8 16 0 -2
BITMAP
00
00
32
4C
00
00
3C
42
42
42
42
42
42
3C
00
00
ENDCHAR
STARTCHAR U+00F6
ENCODING 246
SWIDTH 500 0
DWIDTH 8 0
BBX 8 16 0 -2
BITMAP
00
00
24
24
00
00
3C
42
42
42
42
42
42
3C
00
00
ENDCHAR
STARTCHAR U+00F7
ENCODING 247
SWIDTH 500 0
DWIDTH 8 0
BBX 8 16 0 -2
BITMAP
00
00
00
00
00
00
18
00
00
7E
00
00
18
00
00
00
ENDCHAR
STARTCHAR U+00F8
ENCODING 248
SWIDTH 500 0
DWIDTH 8 0
BBX 8 16 0 -2
BITMAP
00
00
00
00
00
02
3C
46
4A
4A
52
52
62
3C
40
00
ENDCHAR
STARTCHAR U+00F9
ENCODING 249
SWIDTH 500 0
DWIDTH 8 0
BBX 8 16 0 -2
BITMAP
00
00
30
0C
00
00
42
42
42
42
42
42
46
3A
00
00
ENDCHAR
STARTCHAR U+00FA
ENCODING 250
SWIDTH 500 0
DWIDTH 8 0
BBX 8 16 0 -2
BITMAP
00
00
0C
30
00
00
42
42
42
42
42
42
46
3A
00
00
ENDCHAR
STARTCHAR U+00FB
ENCODING 251
SWIDTH 500 0
DWIDTH 8 0
BBX 8 16 0 -2
BITMAP
00
00
18
24
00
00
42
42
42
42
42
42
46
3A
00
00
ENDCHAR
STARTCHAR U+00FC
ENCODING 252
SWIDTH 500 0
DWIDTH 8 0
BBX 8 16 0 -2
BITMAP
00
00
24
24
00
00
42
42
42
42
42
42
46
3A
00
00
ENDCHAR
STARTCHAR U+00FD
ENCODING 253
SWIDTH 500 0
DWIDTH 8 0
BBX 8 16 0 -2
BITMAP
00
00
0C
30
00
00
42
42
42
42
42
26
1A
02
02
3C
ENDCHAR
STARTCHAR U+00FE
ENCODING 254
SWIDTH 500 0
DWIDTH 8 0
BBX 8 16 0 -2
BITMAP
00
00
00
00
20
20
3C
22
22
22
24
28
30
20
20
20
ENDCHAR
STARTCHAR U+00FF
ENCODING 255
SWIDTH 500 0
DWIDTH 8 0
BBX 8 16 0 -2
BITMAP
00
00
24
24
00
00
42
42
42
42
42
26
1A
02
02
3C
ENDCHAR
STARTCHAR U+0100
ENCODING 256
SWIDTH 500 0
DWIDTH 8 0
BBX 8 16 0 -2
BITMAP
00
3C
00
00
18
24
24
42
42
7E
42
42
42
42
00
00
ENDCHAR
STARTCHAR U+0101
ENCODING 257
SWIDTH 500 0
DWIDTH 8 0
BBX 8 16 0 -2
BITMAP
00
00
00
3C
00
00
3C
42
02
3E
42
42
46
3A
00
00
ENDCHAR
STARTCHAR U+0102
ENCODING 258
SWIDTH 500 0
DWIDTH 8 0
BBX 8 16 0 -2
BITMAP
42
42
3C
00
18
24
24
42
42
7E
42
42
42
42
00
00
ENDCHAR
STARTCHAR U+0103
ENCODING 259
SWIDTH 500 0
DWIDTH 8 0
BBX 8 16 0 -2
BITMAP
00
42
42
3C
00
00
3C
42
02
3E
42
42
46
3A
00
00
ENDCHAR
STARTCHAR U+0104
ENCODING 260
SWIDTH 500 0
DWIDTH 8 0
BBX 8 16 0 -2
BITMAP
00
00
00
00
18
24
24
42
42
7E
42
42
42
42
04
03
ENDCHAR
STARTCHAR U+0105
ENCODING 261
SWIDTH 500 0
DWIDTH 8 0
BBX 8 16 0 -2
BITMAP
00
00
00
00
00
00
3C
42
02
3E
42
42
46
3A
04
03
ENDCHAR
STARTCHAR U+0106
ENCODING 262
SWIDTH 500 0
DWIDTH 8 0
BBX 8 16 0 -2
BITMAP
0C
30
00
00
3C
42
42
40
40
40
40
42
42
3C
00
00
ENDCHAR
STARTCHAR U+0107
ENCODING 263
SWIDTH 500 0
DWIDTH 8 0
BBX 8 16 0 -2
BITMAP
00
00
0C
30
00
00
3C
42
40
40
40
40
42
3C
00
00
ENDCHAR
STARTCHAR U+0108
ENCODING 264
SWIDTH 500 0
DWIDTH 8 0
BBX 8 16 0 -2
BITMAP
18
24
00
00
3C
42
42
40
40
40
40
42
42
3C
00
00
ENDCHAR
STARTCHAR U+0109
ENCODING 265
SWIDTH 500 0
DWIDTH 8 0
BBX 8 16 0 -2
BITMAP
00
00
18
24
00
00
3C
42
40
40
40
40
42
3C
00
00
ENDCHAR
STARTCHAR U+010A
ENCODING 266
SWIDTH 500 0
DWIDTH 8 0
BBX 8 16 0 -2
BITMAP
10
10
00
00
3C
42
42
40
40
40
40
42
42
3C
00
00
ENDCHAR
STARTCHAR U+010B
ENCODING 267
SWIDTH 500 0
DWIDTH 8 0
BBX 8 16 0 -2
BITMAP
00
00
10
10
00
00
3C
42
40
40
40
40
42
3C
00
00
ENDCHAR
STARTCHAR U+010C
ENCODING 268
SWIDTH 500 0
DWIDTH 8 0
BBX 8 16 0 -2
BITMAP
24
18
00
00
3C
42
42
40
40
40
40
42
42
3C
00
00
ENDCHAR
STARTCHAR U+010D
ENCODING 269
SWIDTH 500 0
DWIDTH 8 0
BBX 8 16 0 -2
BITMAP
00
00
24
18
00
00
3C
42
40
40
40
40
42
3C
00
00
ENDCHAR
STARTCHAR U+010E
ENCODING 270
SWIDTH 500 0
DWIDTH 8 0
BBX 8 16 0 -2
BITMAP
48
30
00
00
78
44
42
42
42
42
42
42
44
78
00
00
ENDCHAR
STARTCHAR U+010F
ENCODING 271
SWIDTH 500 0
DWIDTH 8 0
BBX 8 16 0 -2
BITMAP
00
00
03
09
09
0A
38
48
48
48
48
48
58
28
00
00
ENDCHAR
STARTCHAR U+0110
ENCODING 272
SWIDTH 500 0
DWIDTH 8 0
BBX 8 16 0 -2
BITMAP
00
00
00
00
78
44
42
42
F2
42
42
42
44
78
00
00
ENDCHAR
STARTCHAR U+0111
ENCODING 273
SWIDTH 500 0
DWIDTH 8 0
BBX 8 16 0 -2
BITMAP
00
00
02
0F
02
02
3A
46
42
42
42
42
46
3A
00
00
ENDCHAR
STARTCHAR U+0112
ENCODING 274
SWIDTH 500 0
DWIDTH 8 0
BBX 8 16 0 -2
BITMAP
00
3C
00
00
7E
40
40
40
7C
40
40
40
40
7E
00
00
ENDCHAR
STARTCHAR U+0113
ENCODING 275
SWIDTH 500 0
DWIDTH 8 0
BBX 8 16 0 -2
BITMAP
00
00
00
3C
00
00
3C
42
42
7E
40
40
42
3C
00
00
ENDCHAR
STARTCHAR U+0114
ENCODING 276
SWIDTH 500 0
DWIDTH 8 0
BBX 8 16 0 -2
BITMAP
42
42
3C
00
7E
40
40
40
7C
40
40
40
40
7E
00
00
ENDCHAR
STARTCHAR U+0115
ENCODING 277
SWIDTH 500 0
DWIDTH 8 0
BBX 8 16 0 -2
BITMAP
00
00
42
42
3C
00
3C
42
42
7E
40
40
42
3C
00
00
ENDCHAR
STARTCHAR U+0116
ENCODING 278
SWIDTH 500 0
DWIDTH 8 0
BBX 8 16 0 -2
BITMAP
10
10
00
00
7E
40
40
40
7C
40
40
40
40
7E
00
00
ENDCHAR
STARTCHAR U+0117
ENCODING 279
SWIDTH 500 0
DWIDTH 8 0
BBX 8 16 0 -2
BITMAP
00
00
10
10
00
00
3C
42
42
7E
40
40
42
3C
00
00
ENDCHAR
STARTCHAR U+0118
ENCODING 280
SWIDTH 500 0
DWIDTH 8 0
BBX 8 16 0 -2
BITMAP
00
00
00
00
7E
40
40
40
7C
40
40
40
40
7E
08
06
ENDCHAR
STARTCHAR U+0119
ENCODING 281
SWIDTH 500 0
DWIDTH 8 0
BBX 8 16 0 -2
BITMAP
00
00
00
00
00
00
3C
42
42
7E
40
40
42
3C
10
0C
ENDCHAR
STARTCHAR U+011A
ENCODING 282
SWIDTH 500 0
DWIDTH 8 0
BBX 8 16 0 -2
BITMAP
24
18
00
00
7E
40
40
40
7C
40
40
40
40
7E
00
00
ENDCHAR
STARTCHAR U+011B
ENCODING 283
SWIDTH 500 0
DWIDTH 8 0
BBX 8 16 0 -2
BITMAP
00
00
24
18
00
00
3C
42
42
7E
40
40
42
3C
00
00
ENDCHAR
STARTCHAR U+011C
ENCODING 284
SWIDTH 500 0
DWIDTH 8 0
BBX 8 16 0 -2
BITMAP
18
24
00
00
3C
42
42
40
40
4E
42
42
46
3A
00
00
ENDCHAR
STARTCHAR U+011D
ENCODING 285
SWIDTH 500 0
DWIDTH 8 0
BBX 8 16 0 -2
BITMAP
00
00
18
24
00
02
3A
44
44
44
38
20
3C
42
42
3C
ENDCHAR
STARTCHAR U+011E
ENCODING 286
SWIDTH 500 0
DWIDTH 8 0
BBX 8 16 0 -2
BITMAP
42
42
3C
00
3C
42
42
40
40
4E
42
42
46
3A
00
00
ENDCHAR
STARTCHAR U+011F
ENCODING 287
SWIDTH 500 0
DWIDTH 8 0
BBX 8 16 0 -2
BITMAP
00
42
42
3C
00
02
3A
44
44
44
38
20
3C
42
42
3C
ENDCHAR
STARTCHAR U+0120
ENCODING 288
SWIDTH 500 0
DWIDTH 8 0
BBX 8 16 0 -2
BITMAP
10
10
00
00
3C
42
42
40
40
4E
42
42
46
3A
00
00
ENDCHAR
STARTCHAR U+0121
ENCODING 289
SWIDTH 500 0
DWIDTH 8 0
BBX 8 16 0 -2
BITMAP
00
00
10
10
00
02
3A
44
44
44
38
20
3C
42
42
3C
ENDCHAR
STARTCHAR U+0122
ENCODING 290
SWIDTH 500 0
DWIDTH 8 0
BBX 8 16 0 -2
BITMAP
00
00
00
00
3C
42
42
40
40
4E
42
42
46
3A
08
30
ENDCHAR
STARTCHAR U+0123
ENCODING 291
SWIDTH 500 0
DWIDTH 8 0
BBX 8 16 0 -2
BITMAP
00
00
0C
10
00
02
3A
44
44
44
38
20
3C
42
42
3C
ENDCHAR
STARTCHAR U+0124
ENCODING 292
SWIDTH 500 0
DWIDTH 8 0
BBX 8 16 0 -2
BITMAP
18
24
00
00
42
42
42
42
7E
42
42
42
42
42
00
00
ENDCHAR
STARTCHAR U+0125
ENCODING 293
SWIDTH 500 0
DWIDTH 8 0
BBX 8 16 0 -2
BITMAP
30
48
00
40
40
40
5C
62
42
42
42
42
42
42
00
00
ENDCHAR
STARTCHAR U+0126
ENCODING 294
SWIDTH 500 0
DWIDTH 8 0
BBX 8 16 0 -2
BITMAP
00
00
00
00
42
42
FF
42
42
7E
42
42
42
42
00
00
ENDCHAR
STARTCHAR U+0127
ENCODING 295
SWIDTH 500 0
DWIDTH 8 0
BBX 8 16 0 -2
BITMAP
00
00
40
F0
40
40
5C
62
42
42
42
42
42
00
00
00
ENDCHAR
STARTCHAR U+0128
ENCODING 296
SWIDTH 500 0
DWIDTH 8 0
BBX 8 16 0 -2
BITMAP
32
4C
00
00
3E
08
08
08
08
08
08
08
08
3E
00
00
ENDCHAR
STARTCHAR U+0129
ENCODING 297
SWIDTH 500 0
DWIDTH 8 0
BBX 8 16 0 -2
BITMAP
00
00
32
4C
00
00
18
08
08
08
08
08
08
3E
00
00
ENDCHAR
STARTCHAR U+012A
ENCODING 298
SWIDTH 500 0
DWIDTH 8 0
BBX 8 16 0 -2
BITMAP
00
3C
00
00
3E
08
08
08
08
08
08
08
08
3E
00
00
ENDCHAR
STARTCHAR U+012B
ENCODING 299
SWIDTH 500 0
DWIDTH 8 0
BBX 8 16 0 -2
BITMAP
00
00
00
3C
00
00
18
08
08
08
08
08
08
3E
00
00
ENDCHAR
STARTCHAR U+012C
ENCODING 300
SWIDTH 500 0
DWIDTH 8 0
BBX 8 16 0 -2
BITMAP
42
42
3C
00
3E
08
08
08
08
08
08
08
08
3E
00
00
ENDCHAR
STARTCHAR U+012D
ENCODING 301
SWIDTH 500 0
DWIDTH 8 0
BBX 8 16 0 -2
BITMAP
00
00
42
42
3C
00
18
08
08
08
08
08
08
3E
00
00
ENDCHAR
STARTCHAR U+012E
ENCODING 302
SWIDTH 500 0
DWIDTH 8 0
BBX 8 16 0 -2
BITMAP
00
00
00
00
3E
08
08
08
08
08
08
08
08
3E
08
06
ENDCHAR
STARTCHAR U+012F
ENCODING 303
SWIDTH 500 0
DWIDTH 8 0
BBX 8 16 0 -2
BITMAP
00
00
00
08
08
00
18
08
08
08
08
08
08
3E
08
06
ENDCHAR
STARTCHAR U+0130
ENCODING 304
SWIDTH 500 0
DWIDTH 8 0
BBX 8 16 0 -2
BITMAP
08
08
00
00
3E
08
08
08
08
08
08
08
08
3E
00
00
ENDCHAR
STARTCHAR U+0131
ENCODING 305
SWIDTH 500 0
DWIDTH 8 0
BBX 8 16 0 -2
BITMAP
00
00
00
00
00
00
18
08
08
08
08
08
08
3E
00
00
ENDCHAR
STARTCHAR U+0132
ENCODING 306
SWIDTH 500 0
DWIDTH 8 0
BBX 8 16 0 -2
BITMAP
00
00
00
00
77
22
22
22
22
22
22
2A
2A
76
00
00
ENDCHAR
STARTCHAR U+0133
ENCODING 307
SWIDTH 500 0
DWIDTH 8 0
BBX 8 16 0 -2
BITMAP
00
00
00
22
22
00
66
22
22
22
22
22
22
72
04
18
ENDCHAR
STARTCHAR U+0134
ENCODING 308
SWIDTH 500 0
DWIDTH 8 0
BBX 8 16 0 -2
BITMAP
0C
12
00
00
1F
04
04
04
04
04
04
44
44
38
00
00
ENDCHAR
STARTCHAR U+0135
ENCODING 309
SWIDTH 500 0
DWIDTH 8 0
BBX 8 16 0 -2
BITMAP
00
00
0C
12
00
00
0C
04
04
04
04
04
04
04
48
30
ENDCHAR
STARTCHAR U+0136
ENCODING 310
SWIDTH 500 0
DWIDTH 8 0
BBX 8 16 0 -2
BITMAP
00
00
00
00
42
44
48
50
60
60
50
48
44
42
20
C0
ENDCHAR
STARTCHAR U+0137
ENCODING 311
SWIDTH 500 0
DWIDTH 8 0
BBX 8 16 0 -2
BITMAP
00
00
00
00
40
40
44
48
50
60
50
48
44
42
20
C0
ENDCHAR
STARTCHAR U+0138
ENCODING 312
SWIDTH 500 0
DWIDTH 8 0
BBX 8 16 0 -2
BITMAP
00
00
00
00
00
00
42
44
48
70
70
48
44
42
00
00
ENDCHAR
STARTCHAR U+0139
ENCODING 313
SWIDTH 500 0
DWIDTH 8 0
BBX 8 16 0 -2
BITMAP
18
60
00
00
40
40
40
40
40
40
40
40
40
7E
00
00
ENDCHAR
STARTCHAR U+013A
ENCODING 314
SWIDTH 500 0
DWIDTH 8 0
BBX 8 16 0 -2
BITMAP
0C
30
00
00
18
08
08
08
08
08
08
08
08
3E
00
00
ENDCHAR
STARTCHAR U+013B
ENCODING 315
SWIDTH 500 0
DWIDTH 8 0
BBX 8 16 0 -2
BITMAP
00
00
00
00
40
40
40
40
40
40
40
40
40
7E
08
30
ENDCHAR
STARTCHAR U+013C
ENCODING 316
SWIDTH 500 0
DWIDTH 8 0
BBX 8 16 0 -2
BITMAP
00
00
00
00
18
08
08
08
08
08
08
08
08
3E
08
30
ENDCHAR
STARTCHAR U+013D
ENCODING 317
SWIDTH 500 0
DWIDTH 8 0
BBX 8 16 0 -2
BITMAP
00
00
00
18
48
48
50
40
40
40
40
40
40
7E
00
00
ENDCHAR
STARTCHAR U+013E
ENCODING 318
SWIDTH 500 0
DWIDTH 8 0
BBX 8 16 0 -2
BITMAP
00
00
00
06
32
12
14
10
10
10
10
10
10
7C
00
00
ENDCHAR
STARTCHAR U+013F
ENCODING 319
SWIDTH 500 0
DWIDTH 8 0
BBX 8 16 0 -2
BITMAP
00
00
00
00
40
40
40
40
44
44
40
40
40
7E
00
00
ENDCHAR
STARTCHAR U+0140
ENCODING 320
SWIDTH 500 0
DWIDTH 8 0
BBX 8 16 0 -2
BITMAP
00
00
00
00
30
10
10
10
14
14
10
10
10
7C
00
00
ENDCHAR
STARTCHAR U+0141
ENCODING 321
SWIDTH 500 0
DWIDTH 8 0
BBX 8 16 0 -2
BITMAP
00
00
00
00
40
40
48
50
60
C0
40
40
40
7E
00
00
ENDCHAR
STARTCHAR U+0142
ENCODING 322
SWIDTH 500 0
DWIDTH 8 0
BBX 8 16 0 -2
BITMAP
00
00
00
00
18
08
0A
0C
18
28
08
08
08
3E
00
00
ENDCHAR
STARTCHAR U+0143
ENCODING 323
SWIDTH 500 0
DWIDTH 8 0
BBX 8 16 0 -2
BITMAP
0C
30
00
00
42
62
62
52
52
4A
4A
46
46
42
00
00
ENDCHAR
STARTCHAR U+0144
ENCODING 324
SWIDTH 500 0
DWIDTH 8 0
BBX 8 16 0 -2
BITMAP
00
00
0C
30
00
00
5C
62
42
42
42
42
42
42
00
00
ENDCHAR
STARTCHAR U+0145
ENCODING 325
SWIDTH 500 0
DWIDTH 8 0
BBX 8 16 0 -2
BITMAP
00
00
00
00
42
62
62
52
52
4A
4A
46
46
42
20
C0
ENDCHAR
STARTCHAR U+0146
ENCODING 326
SWIDTH 500 0
DWIDTH 8 0
BBX 8 16 0 -2
BITMAP
00
00
00
00
00
00
5C
62
42
42
42
42
42
42
20
C0
ENDCHAR
STARTCHAR U+0147
ENCODING 327
SWIDTH 500 0
DWIDTH 8 0
BBX 8 16 0 -2
BITMAP
24
18
00
00
42
62
62
52
52
4A
4A
46
46
42
00
00
ENDCHAR
STARTCHAR U+0148
ENCODING 328
SWIDTH 500 0
DWIDTH 8 0
BBX 8 16 0 -2
BITMAP
00
00
24
18
00
00
5C
62
42
42
42
42
42
42
00
00
ENDCHAR
STARTCHAR U+0149
ENCODING 329
SWIDTH 500 0
DWIDTH 8 0
BBX 8 16 0 -2
BITMAP
00
60
20
20
40
00
5C
62
42
42
42
42
42
42
00
00
ENDCHAR
STARTCHAR U+014A
ENCODING 330
SWIDTH 500 0
DWIDTH 8 0
BBX 8 16 0 -2
BITMAP
00
00
00
00
5C
62
42
42
42
42
42
42
42
4C
00
00
ENDCHAR
STARTCHAR U+014B
ENCODING 331
SWIDTH 500 0
DWIDTH 8 0
BBX 8 16 0 -2
BITMAP
00
00
00
00
00
00
5C
62
42
42
42
42
42
42
02
0C
ENDCHAR
STARTCHAR U+014C
ENCODING 332
SWIDTH 500 0
DWIDTH 8 0
BBX 8 16 0 -2
BITMAP
00
3C
00
00
3C
42
42
42
42
42
42
42
42
3C
00
00
ENDCHAR
STARTCHAR U+014D
ENCODING 333
SWIDTH 500 0
DWIDTH 8 0
BBX 8 16 0 -2
BITMAP
00
00
00
3C
00
00
3C
42
42
42
42
42
42
3C
00
00
ENDCHAR
STARTCHAR U+014E
ENCODING 334
SWIDTH 500 0
DWIDTH 8 0
BBX 8 16 0 -2
BITMAP
42
42
3C
00
3C
42
42
42
42
42
42
42
42
3C
00
00
ENDCHAR
STARTCHAR U+014F
ENCODING 335
SWIDTH 500 0
DWIDTH 8 0
BBX 8 16 0 -2
BITMAP
00
00
42
42
3C
00
3C
42
42
42
42
42
42
3C
00
00
ENDCHAR
STARTCHAR U+0150
ENCODING 336
SWIDTH 500 0
DWIDTH 8 0
BBX 8 16 0 -2
BITMAP
33
44
00
00
3C
42
42
42
42
42
42
42
42
3C
00
00
ENDCHAR
STARTCHAR U+0151
ENCODING 337
SWIDTH 500 0
DWIDTH 8 0
BBX 8 16 0 -2
BITMAP
00
00
33
44
00
00
3C
42
42
42
42
42
42
3C
00
00
ENDCHAR
STARTCHAR U+0152
ENCODING 338
SWIDTH 500 0
DWIDTH 8 0
BBX 8 16 0 -2
BITMAP
00
00
00
00
37
48
48
48
4E
48
48
48
48
37
00
00
ENDCHAR
STARTCHAR U+0153
ENCODING 339
SWIDTH 500 0
DWIDTH 8 0
BBX 8 16 0 -2
BITMAP
00
00
00
00
00
00
36
49
49
4F
48
48
49
36
00
00
ENDCHAR
STARTCHAR U+0154
ENCODING 340
SWIDTH 500 0
DWIDTH 8 0
BBX 8 16 0 -2
BITMAP
0C
30
00
00
7C
42
42
42
7C
48
44
44
42
42
00
00
ENDCHAR
STARTCHAR U+0155
ENCODING 341
SWIDTH 500 0
DWIDTH 8 0
BBX 8 16 0 -2
BITMAP
00
00
0C
30
00
00
5C
62
42
40
40
40
40
40
00
00
ENDCHAR
STARTCHAR U+0156
ENCODING 342
SWIDTH 500 0
DWIDTH 8 0
BBX 8 16 0 -2
BITMAP
00
00
00
00
7C
42
42
42
7C
48
44
44
42
42
20
C0
ENDCHAR
STARTCHAR U+0157
ENCODING 343
SWIDTH 500 0
DWIDTH 8 0
BBX 8 16 0 -2
BITMAP
00
00
00
00
00
00
5C
62
42
40
40
40
40
40
20
C0
ENDCHAR
STARTCHAR U+0158
ENCODING 344
SWIDTH 500 0
DWIDTH 8 0
BBX 8 16 0 -2
BITMAP
24
18
00
00
7C
42
42
42
7C
48
44
44
42
42
00
00
ENDCHAR
STARTCHAR U+0159
ENCODING 345
SWIDTH 500 0
DWIDTH 8 0
BBX 8 16 0 -2
BITMAP
00
00
24
18
00
00
5C
62
42
40
40
40
40
40
00
00
ENDCHAR
STARTCHAR U+015A
ENCODING 346
SWIDTH 500 0
DWIDTH 8 0
BBX 8 16 0 -2
BITMAP
0C
30
00
00
3C
42
42
40
30
0C
02
42
42
3C
00
00
ENDCHAR
STARTCHAR U+015B
ENCODING 347
SWIDTH 500 0
DWIDTH 8 0
BBX 8 16 0 -2
BITMAP
00
00
0C
30
00
00
3C
42
40
30
0C
42
42
3C
00
00
ENDCHAR
STARTCHAR U+015C
ENCODING 348
SWIDTH 500 0
DWIDTH 8 0
BBX 8 16 0 -2
BITMAP
18
24
00
00
3C
42
42
40
30
0C
02
42
42
3C
00
00
ENDCHAR
STARTCHAR U+015D
ENCODING 349
SWIDTH 500 0
DWIDTH 8 0
BBX 8 16 0 -2
BITMAP
00
00
18
24
00
00
3C
42
40
30
0C
02
42
3C
00
00
ENDCHAR
STARTCHAR U+015E
ENCODING 350
SWIDTH 500 0
DWIDTH 8 0
BBX 8 16 0 -2
BITMAP
00
00
00
00
3C
42
42
40
30
0C
02
42
42
3C
08
30
ENDCHAR
STARTCHAR U+015F
ENCODING 351
SWIDTH 500 0
DWIDTH 8 0
BBX 8 16 0 -2
BITMAP
00
00
00
00
00
00
3C
42
40
30
0C
02
42
3C
08
30
ENDCHAR
STARTCHAR U+0160
ENCODING 352
SWIDTH 500 0
DWIDTH 8 0
BBX 8 16 0 -2
BITMAP
24
18
00
00
3C
42
42
40
30
0C
02
42
42
3C
00
00
ENDCHAR
STARTCHAR U+0161
ENCODING 353
SWIDTH 500 0
DWIDTH 8 0
BBX 8 16 0 -2
BITMAP
00
00
24
18
00
00
3C
42
40
30
0C
02
42
3C
00
00
ENDCHAR
STARTCHAR U+0162
ENCODING 354
SWIDTH 500 0
DWIDTH 8 0
BBX 8 16 0 -2
BITMAP
00
00
00
00
7F
08
08
08
08
08
08
08
08
08
08
30
ENDCHAR
STARTCHAR U+0163
ENCODING 355
SWIDTH 500 0
DWIDTH 8 0
BBX 8 16 0 -2
BITMAP
00
00
00
00
10
10
7C
10
10
10
10
10
10
0C
08
30
ENDCHAR
STARTCHAR U+0164
ENCODING 356
SWIDTH 500 0
DWIDTH 8 0
BBX 8 16 0 -2
BITMAP
24
18
00
00
7F
08
08
08
08
08
08
08
08
08
00
00
ENDCHAR
STARTCHAR U+0165
ENCODING 357
SWIDTH 500 0
DWIDTH 8 0
BBX 8 16 0 -2
BITMAP
00
00
06
02
12
14
10
7C
10
10
10
10
10
0C
00
00
ENDCHAR
STARTCHAR U+0166
ENCODING 358
SWIDTH 500 0
DWIDTH 8 0
BBX 8 16 0 -2
BITMAP
00
00
00
00
7F
08
08
0A
0C
18
28
08
08
08
00
00
ENDCHAR
STARTCHAR U+0167
ENCODING 359
SWIDTH 500 0
DWIDTH 8 0
BBX 8 16 0 -2
BITMAP
00
00
00
00
10
10
7C
10
14
18
30
50
10
0C
00
00
ENDCHAR
STARTCHAR U+0168
ENCODING 360
SWIDTH 500 0
DWIDTH 8 0
BBX 8 16 0 -2
BITMAP
32
4C
00
00
42
42
42
42
42
42
42
42
42
3C
00
00
ENDCHAR
STARTCHAR U+0169
ENCODING 361
SWIDTH 500 0
DWIDTH 8 0
BBX 8 16 0 -2
BITMAP
00
00
32
4C
00
00
42
42
42
42
42
42
46
3A
00
00
ENDCHAR
STARTCHAR U+016A
ENCODING 362
SWIDTH 500 0
DWIDTH 8 0
BBX 8 16 0 -2
BITMAP
00
3C
00
00
42
42
42
42
42
42
42
42
42
3C
00
00
ENDCHAR
STARTCHAR U+016B
ENCODING 363
SWIDTH 500 0
DWIDTH 8 0
BBX 8 16 0 -2
BITMAP
00
00
00
3C
00
00
42
42
42
42
42
42
46
3A
00
00
ENDCHAR
STARTCHAR U+016C
ENCODING 364
SWIDTH 500 0
DWIDTH 8 0
BBX 8 16 0 -2
BITMAP
42
42
3C
00
42
42
42
42
42
42
42
42
42
3C
00
00
ENDCHAR
STARTCHAR U+016D
ENCODING 365
SWIDTH 500 0
DWIDTH 8 0
BBX 8 16 0 -2
BITMAP
00
42
42
3C
00
00
42
42
42
42
42
42
46
3A
00
00
ENDCHAR
STARTCHAR U+016E
ENCODING 366
SWIDTH 500 0
DWIDTH 8 0
BBX 8 16 0 -2
BITMAP
18
24
18
00
42
42
42
42
42
42
42
42
42
3C
00
00
ENDCHAR
STARTCHAR U+016F
ENCODING 367
SWIDTH 500 0
DWIDTH 8 0
BBX 8 16 0 -2
BITMAP
00
00
18
24
18
00
42
42
42
42
42
42
46
3A
00
00
ENDCHAR
STARTCHAR U+0170
ENCODING 368
SWIDTH 500 0
DWIDTH 8 0
BBX 8 16 0 -2
BITMAP
33
44
00
00
42
42
42
42
42
42
42
42
42
3C
00
00
ENDCHAR
STARTCHAR U+0171
ENCODING 369
SWIDTH 500 0
DWIDTH 8 0
BBX 8 16 0 -2
BITMAP
00
00
33
44
00
00
42
42
42
42
42
42
46
3A
00
00
ENDCHAR
STARTCHAR U+0172
ENCODING 370
SWIDTH 500 0
DWIDTH 8 0
BBX 8 16 0 -2
BITMAP
00
00
00
00
42
42
42
42
42
42
42
42
42
3C
10
0C
ENDCHAR
STARTCHAR U+0173
ENCODING 371
SWIDTH 500 0
DWIDTH 8 0
BBX 8 16 0 -2
BITMAP
00
00
00
00
00
00
42
42
42
42
42
42
46
3A
04
03
ENDCHAR
STARTCHAR U+0174
ENCODING 372
SWIDTH 500 0
DWIDTH 8 0
BBX 8 16 0 -2
BITMAP
18
24
00
00
42
42
42
42
5A
5A
66
66
42
42
00
00
ENDCHAR
STARTCHAR U+0175
ENCODING 373
SWIDTH 500 0
DWIDTH 8 0
BBX 8 16 0 -2
BITMAP
00
00
18
24
00
00
41
49
49
49
49
49
49
36
00
00
ENDCHAR
STARTCHAR U+0176
ENCODING 374
SWIDTH 500 0
DWIDTH 8 0
BBX 8 16 0 -2
BITMAP
18
24
00
00
41
41
22
22
14
08
08
08
08
08
00
00
ENDCHAR
STARTCHAR U+0177
ENCODING 375
SWIDTH 500 0
DWIDTH 8 0
BBX 8 16 0 -2
BITMAP
00
00
18
24
00
00
42
42
42
42
42
26
1A
02
02
3C
ENDCHAR
STARTCHAR U+0178
ENCODING 376
SWIDTH 500 0
DWIDTH 8 0
BBX 8 16 0 -2
BITMAP
24
24
00
00
41
41
22
22
14
08
08
08
08
08
00
00
ENDCHAR
STARTCHAR U+0179
ENCODING 377
SWIDTH 500 0
DWIDTH 8 0
BBX 8 16 0 -2
BITMAP
0C
30
00
00
7E
02
02
04
08
10
20
40
40
7E
00
00
ENDCHAR
STARTCHAR U+017A
ENCODING 378
SWIDTH 500 0
DWIDTH 8 0
BBX 8 16 0 -2
BITMAP
00
00
0C
30
00
00
7E
02
04
08
10
20
40
7E
00
00
ENDCHAR
STARTCHAR U+017B
ENCODING 379
SWIDTH 500 0
DWIDTH 8 0
BBX 8 16 0 -2
BITMAP
10
10
00
00
7E
02
02
04
08
10
20
40
40
7E
00
00
ENDCHAR
STARTCHAR U+017C
ENCODING 380
SWIDTH 500 0
DWIDTH 8 0
BBX 8 16 0 -2
BITMAP
00
00
10
10
00
00
7E
02
04
08
10
20
40
7E
00
00
ENDCHAR
STARTCHAR U+017D
ENCODING 381
SWIDTH 500 0
DWIDTH 8 0
BBX 8 16 0 -2
BITMAP
24
18
00
00
7E
02
02
04
08
10
20
40
40
7E
00
00
ENDCHAR
STARTCHAR U+017E
ENCODING 382
SWIDTH 500 0
DWIDTH 8 0
BBX 8 16 0 -2
BITMAP
00
00
24
18
00
00
7E
02
04
08
10
20
40
7E
00
00
ENDCHAR
STARTCHAR U+017F
ENCODING 383
SWIDTH 500 0
DWIDTH 8 0
BBX 8 16 0 -2
BITMAP
00
00
00
0C
10
10
10
30
10
10
10
10
10
10
00
00
ENDCHAR
STARTCHAR U+0180
ENCODING 384
SWIDTH 500 0
DWIDTH 8 0
BBX 8 16 0 -2
BITMAP
00
00
00
40
F0
40
5C
62
42
42
42
42
62
5C
00
00
ENDCHAR
STARTCHAR U+0181
ENCODING 385
SWIDTH 500 0
DWIDTH 8 0
BBX 8 16 0 -2
BITMAP
00
00
00
00
7C
A2
A2
22
3C
22
22
22
22
3C
00
00
ENDCHAR
STARTCHAR U+0182
ENCODING 386
SWIDTH 500 0
DWIDTH 8 0
BBX 8 16 0 -2
BITMAP
00
00
00
00
7E
40
40
40
7C
42
42
42
42
7C
00
00
ENDCHAR
STARTCHAR U+0183
ENCODING 387
SWIDTH 500 0
DWIDTH 8 0
BBX 8 16 0 -2
BITMAP
00
00
00
00
7E
40
40
5C
62
42
42
42
62
5C
00
00
ENDCHAR
STARTCHAR U+0184
ENCODING 388
SWIDTH 500 0
DWIDTH 8 0
BBX 8 16 0 -2
BITMAP
00
00
00
00
60
20
20
20
3C
22
22
22
22
3C
00
00
ENDCHAR
STARTCHAR U+0185
ENCODING 389
SWIDTH 500 0
DWIDTH 8 0
BBX 8 16 0 -2
BITMAP
00
00
00
00
00
00
60
20
20
20
3C
22
22
3C
00
00
ENDCHAR
STARTCHAR U+0186
ENCODING 390
SWIDTH 500 0
DWIDTH 8 0
BBX 8 16 0 -2
BITMAP
00
00
00
00
3C
42
42
02
02
02
02
42
42
7C
00
00
ENDCHAR
STARTCHAR U+0187
ENCODING 391
SWIDTH 500 0
DWIDTH 8 0
BBX 8 16 0 -2
BITMAP
00
00
03
04
3C
44
44
40
40
40
40
44
44
38
00
00
ENDCHAR
STARTCHAR U+0188
ENCODING 392
SWIDTH 500 0
DWIDTH 8 0
BBX 8 16 0 -2
BITMAP
00
00
00
00
03
04
3C
44
40
40
40
40
44
38
00
00
ENDCHAR
STARTCHAR U+0189
ENCODING 393
SWIDTH 500 0
DWIDTH 8 0
BBX 8 16 0 -2
BITMAP
00
00
00
00
78
44
42
42
F2
42
42
42
44
78
00
00
ENDCHAR
STARTCHAR U+018A
ENCODING 394
SWIDTH 500 0
DWIDTH 8 0
BBX 8 16 0 -2
BITMAP
00
00
00
00
78
A4
A2
22
22
22
22
22
24
38
00
00
ENDCHAR
STARTCHAR U+018B
ENCODING 395
SWIDTH 500 0
DWIDTH 8 0
BBX 8 16 0 -2
BITMAP
00
00
00
00
7E
02
02
02
3E
42
42
42
42
3E
00
00
ENDCHAR
STARTCHAR U+018C
ENCODING 396
SWIDTH 500 0
DWIDTH 8 0
BBX 8 16 0 -2
BITMAP
00
00
00
00
7E
02
02
3A
46
42
42
42
46
3A
00
00
ENDCHAR
STARTCHAR U+018D
ENCODING 397
SWIDTH 500 0
DWIDTH 8 0
BBX 8 16 0 -2
BITMAP
00
00
00
00
00
00
3C
42
42
42
42
24
18
04
04
38
ENDCHAR
STARTCHAR U+018E
ENCODING 398
SWIDTH 500 0
DWIDTH 8 0
BBX 8 16 0 -2
BITMAP
00
00
00
00
7E
02
02
02
3E
02
02
02
02
7E
00
00
ENDCHAR
STARTCHAR U+018F
ENCODING 399
SWIDTH 500 0
DWIDTH 8 0
BBX 8 16 0 -2
BITMAP
00
00
00
00
18
24
42
02
02
7E
42
42
24
18
00
00
ENDCHAR
STARTCHAR U+0190
ENCODING 400
SWIDTH 500 0
DWIDTH 8 0
BBX 8 16 0 -2
BITMAP
00
00
00
00
3C
42
42
40
38
40
40
42
42
3C
00
00
ENDCHAR
STARTCHAR U+0191
ENCODING 401
SWIDTH 500 0
DWIDTH 8 0
BBX 8 16 0 -2
BITMAP
00
00
00
00
1F
10
10
10
1E
10
10
10
10
10
60
00
ENDCHAR
STARTCHAR U+0192
ENCODING 402
SWIDTH 500 0
DWIDTH 8 0
BBX 8 16 0 -2
BITMAP
00
00
00
0C
10
10
10
7C
10
10
10
10
10
10
60
00
ENDCHAR
STARTCHAR U+0193
ENCODING 403
SWIDTH 500 0
DWIDTH 8 0
BBX 8 16 0 -2
BITMAP
00
00
00
03
3C
44
44
40
40
5C
44
44
4C
34
00
00
ENDCHAR
STARTCHAR U+0194
ENCODING 404
SWIDTH 500 0
DWIDTH 8 0
BBX 8 16 0 -2
BITMAP
00
00
00
00
42
42
42
24
24
18
18
24
24
18
00
00
ENDCHAR
STARTCHAR U+0195
ENCODING 405
SWIDTH 500 0
DWIDTH 8 0
BBX 8 16 0 -2
BITMAP
00
00
00
40
40
40
40
72
4A
4A
4A
4A
4A
44
00
00
ENDCHAR
STARTCHAR U+0196
ENCODING 406
SWIDTH 500 0
DWIDTH 8 0
BBX 8 16 0 -2
BITMAP
00
00
00
00
70
10
10
10
10
10
10
10
10
0C
00
00
ENDCHAR
STARTCHAR U+0197
ENCODING 407
SWIDTH 500 0
DWIDTH 8 0
BBX 8 16 0 -2
BITMAP
00
00
00
00
3E
08
08
08
3E
08
08
08
08
3E
00
00
ENDCHAR
STARTCHAR U+0198
ENCODING 408
SWIDTH 500 0
DWIDTH 8 0
BBX 8 16 0 -2
BITMAP
00
00
00
00
46
4A
50
50
60
60
50
48
44
42
00
00
ENDCHAR
STARTCHAR U+0199
ENCODING 409
SWIDTH 500 0
DWIDTH 8 0
BBX 8 16 0 -2
BITMAP
00
00
00
30
40
40
44
48
50
60
50
48
44
42
00
00
ENDCHAR
STARTCHAR U+019A
ENCODING 410
SWIDTH 500 0
DWIDTH 8 0
BBX 8 16 0 -2
BITMAP
00
00
00
00
18
08
08
08
3E
08
08
08
08
3E
00
00
ENDCHAR
STARTCHAR U+019B
ENCODING 411
SWIDTH 500 0
DWIDTH 8 0
BBX 8 16 0 -2
BITMAP
00
00
00
00
24
28
10
30
48
18
24
24
42
42
00
00
ENDCHAR
STARTCHAR U+019C
ENCODING 412
SWIDTH 500 0
DWIDTH 8 0
BBX 8 16 0 -2
BITMAP
00
00
00
00
49
49
49
49
49
49
49
49
49
37
00
00
ENDCHAR
STARTCHAR U+019D
ENCODING 413
SWIDTH 500 0
DWIDTH 8 0
BBX 8 16 0 -2
BITMAP
00
00
00
00
22
22
32
32
2A
2A
26
26
22
22
C0
00
ENDCHAR
STARTCHAR U+019E
ENCODING 414
SWIDTH 500 0
DWIDTH 8 0
BBX 8 16 0 -2
BITMAP
00
00
00
00
00
00
5C
62
42
42
42
42
42
42
02
02
ENDCHAR
STARTCHAR U+019F
ENCODING 415
SWIDTH 500 0
DWIDTH 8 0
BBX 8 16 0 -2
BITMAP
00
00
00
00
3C
42
42
42
7E
42
42
42
42
3C
00
00
ENDCHAR
STARTCHAR U+01A0
ENCODING 416
SWIDTH 500 0
DWIDTH 8 0
BBX 8 16 0 -2
BITMAP
00
00
00
02
3A
44
44
44
44
44
44
44
44
38
00
00
ENDCHAR
STARTCHAR U+01A1
ENCODING 417
SWIDTH 500 0
DWIDTH 8 0
BBX 8 16 0 -2
BITMAP
00
00
00
00
00
02
3A
44
44
44
44
44
44
38
00
00
ENDCHAR
STARTCHAR U+01A2
ENCODING 418
SWIDTH 500 0
DWIDTH 8 0
BBX 8 16 0 -2
BITMAP
00
00
00
00
36
4A
4A
4A
4A
4A
4A
4A
4A
32
02
02
ENDCHAR
STARTCHAR U+01A3
ENCODING 419
SWIDTH 500 0
DWIDTH 8 0
BBX 8 16 0 -2
BITMAP
00
00
00
00
00
00
36
4A
4A
4A
4A
4A
4A
32
02
02
ENDCHAR
STARTCHAR U+01A4
ENCODING 420
SWIDTH 500 0
DWIDTH 8 0
BBX 8 16 0 -2
BITMAP
00
00
00
00
3E
51
51
11
1E
10
10
10
10
10
00
00
ENDCHAR
STARTCHAR U+01A5
ENCODING 421
SWIDTH 500 0
DWIDTH 8 0
BBX 8 16 0 -2
BITMAP
00
00
00
00
00
03
5C
64
44
44
44
44
64
58
40
40
ENDCHAR
STARTCHAR U+01A6
ENCODING 422
SWIDTH 500 0
DWIDTH 8 0
BBX 8 16 0 -2
BITMAP
00
00
00
00
70
20
3C
22
22
3C
28
24
22
21
00
00
ENDCHAR
STARTCHAR U+01A7
ENCODING 423
SWIDTH 500 0
DWIDTH 8 0
BBX 8 16 0 -2
BITMAP
00
00
00
00
3C
42
42
02
0C
30
40
42
42
3C
00
00
ENDCHAR
STARTCHAR U+01A8
ENCODING 424
SWIDTH 500 0
DWIDTH 8 0
BBX 8 16 0 -2
BITMAP
00
00
00
00
00
00
3C
42
02
0C
30
40
42
3C
00
00
ENDCHAR
STARTCHAR U+01A9
ENCODING 425
SWIDTH 500 0
DWIDTH 8 0
BBX 8 16 0 -2
BITMAP
00
00
00
00
7E
40
20
10
08
08
10
20
40
7E
00
00
ENDCHAR
STARTCHAR U+01AA
ENCODING 426
SWIDTH 500 0
DWIDTH 8 0
BBX 8 16 0 -2
BITMAP
00
00
00
20
50
50
30
10
10
10
10
10
10
10
0C
00
ENDCHAR
STARTCHAR U+01AB
ENCODING 427
SWIDTH 500 0
DWIDTH 8 0
BBX 8 16 0 -2
BITMAP
00
00
00
00
10
10
7C
10
10
10
10
10
10
0C
04
18
ENDCHAR
STARTCHAR U+01AC
ENCODING 428
SWIDTH 500 0
DWIDTH 8 0
BBX 8 16 0 -2
BITMAP
00
00
00
00
3F
48
48
08
08
08
08
08
08
08
00
00
ENDCHAR
STARTCHAR U+01AD
ENCODING 429
SWIDTH 500 0
DWIDTH 8 0
BBX 8 16 0 -2
BITMAP
00
00
00
0C
10
10
10
7C
10
10
10
10
10
0C
00
00
ENDCHAR
STARTCHAR U+01AE
ENCODING 430
SWIDTH 500 0
DWIDTH 8 0
BBX 8 16 0 -2
BITMAP
00
00
00
00
7F
08
08
08
08
08
08
08
08
08
06
00
ENDCHAR
STARTCHAR U+01AF
ENCODING 431
SWIDTH 500 0
DWIDTH 8 0
BBX 8 16 0 -2
BITMAP
00
00
01
01
46
44
44
44
44
44
44
44
44
38
00
00
ENDCHAR
STARTCHAR U+01B0
ENCODING 432
SWIDTH 500 0
DWIDTH 8 0
BBX 8 16 0 -2
BITMAP
00
00
00
00
01
01
46
44
44
44
44
44
4C
34
00
00
ENDCHAR
STARTCHAR U+01B1
ENCODING 433
SWIDTH 500 0
DWIDTH 8 0
BBX 8 16 0 -2
BITMAP
00
00
00
00
42
24
24
42
42
42
42
42
24
18
00
00
ENDCHAR
STARTCHAR U+01B2
ENCODING 434
SWIDTH 500 0
DWIDTH 8 0
BBX 8 16 0 -2
BITMAP
00
00
00
00
4C
42
42
42
42
42
42
44
48
30
00
00
ENDCHAR
STARTCHAR U+01B3
ENCODING 435
SWIDTH 500 0
DWIDTH 8 0
BBX 8 16 0 -2
BITMAP
00
00
00
00
31
51
11
0A
0A
04
04
04
04
04
00
00
ENDCHAR
STARTCHAR U+01B4
ENCODING 436
SWIDTH 500 0
DWIDTH 8 0
BBX 8 16 0 -2
BITMAP
00
00
00
00
00
03
44
44
44
44
44
24
1C
04
04
38
ENDCHAR
STARTCHAR U+01B5
ENCODING 437
SWIDTH 500 0
DWIDTH 8 0
BBX 8 16 0 -2
BITMAP
00
00
00
00
7E
02
04
08
3C
10
20
40
40
7E
00
00
ENDCHAR
STARTCHAR U+01B6
ENCODING 438
SWIDTH 500 0
DWIDTH 8 0
BBX 8 16 0 -2
BITMAP
00
00
00
00
00
00
7E
04
08
3C
10
20
40
7E
00
00
ENDCHAR
STARTCHAR U+01B7
ENCODING 439
SWIDTH 500 0
DWIDTH 8 0
BBX 8 16 0 -2
BITMAP
00
00
00
00
7E
04
08
10
1C
02
02
02
46
3C
00
00
ENDCHAR
STARTCHAR U+01B8
ENCODING 440
SWIDTH 500 0
DWIDTH 8 0
BBX 8 16 0 -2
BITMAP
00
00
00
00
7E
20
10
08
38
40
40
40
62
3C
00
00
ENDCHAR
STARTCHAR U+01B9
ENCODING 441
SWIDTH 500 0
DWIDTH 8 0
BBX 8 16 0 -2
BITMAP
00
00
00
00
00
00
7C
20
10
08
38
40
40
40
42
3C
ENDCHAR
STARTCHAR U+01BA
ENCODING 442
SWIDTH 500 0
DWIDTH 8 0
BBX 8 16 0 -2
BITMAP
00
00
00
00
00
00
3E
04
08
1C
02
02
3C
40
42
3C
ENDCHAR
STARTCHAR U+01BB
ENCODING 443
SWIDTH 500 0
DWIDTH 8 0
BBX 8 16 0 -2
BITMAP
00
00
00
00
3C
42
42
04
08
7E
20
40
40
7E
00
00
ENDCHAR
STARTCHAR U+01BC
ENCODING 444
SWIDTH 500 0
DWIDTH 8 0
BBX 8 16 0 -2
BITMAP
00
00
00
00
7E
20
20
20
3C
02
02
02
42
3C
00
00
ENDCHAR
STARTCHAR U+01BD
ENCODING 445
SWIDTH 500 0
DWIDTH 8 0
BBX 8 16 0 -2
BITMAP
00
00
00
00
00
00
7E
20
20
3C
02
02
42
3C
00
00
ENDCHAR
STARTCHAR U+01BE
ENCODING 446
SWIDTH 500 0
DWIDTH 8 0
BBX 8 16 0 -2
BITMAP
00
00
00
00
10
10
7C
10
10
18
04
04
44
38
00
00
ENDCHAR
STARTCHAR U+01BF
ENCODING 447
SWIDTH 500 0
DWIDTH 8 0
BBX 8 16 0 -2
BITMAP
00
00
00
00
00
00
5C
62
42
42
44
48
50
60
40
40
ENDCHAR
STARTCHAR U+01C0
ENCODING 448
SWIDTH 500 0
DWIDTH 8 0
BBX 8 16 0 -2
BITMAP
00
00
00
10
10
10
10
10
10
10
10
10
10
10
00
00
ENDCHAR
STARTCHAR U+01C1
ENCODING 449
SWIDTH 500 0
DWIDTH 8 0
BBX 8 16 0 -2
BITMAP
00
00
00
28
28
28
28
28
28
28
28
28
28
28
00
00
ENDCHAR
STARTCHAR U+01C2
ENCODING 450
SWIDTH 500 0
DWIDTH 8 0
BBX 8 16 0 -2
BITMAP
00
00
00
10
10
10
10
7C
10
7C
10
10
10
10
00
00
ENDCHAR
STARTCHAR U+01C3
ENCODING 451
SWIDTH 500 0
DWIDTH 8 0
BBX 8 16 0 -2
BITMAP
00
00
00
00
08
08
08
08
08
08
08
00
08
08
00
00
ENDCHAR
STARTCHAR U+01C4
ENCODING 452
SWIDTH 500 0
DWIDTH 8 0
BBX 8 16 0 -2
BITMAP
05
02
00
00
67
51
51
51
52
52
54
54
54
67
00
00
ENDCHAR
STARTCHAR U+01C5
ENCODING 453
SWIDTH 500 0
DWIDTH 8 0
BBX 8 16 0 -2
BITMAP
00
00
05
02
60
50
57
51
51
52
52
54
54
67
00
00
ENDCHAR
STARTCHAR U+01C6
ENCODING 454
SWIDTH 500 0
DWIDTH 8 0
BBX 8 16 0 -2
BITMAP
00
00
05
12
10
10
37
51
51
52
52
54
54
37
00
00
ENDCHAR
STARTCHAR U+01C7
ENCODING 455
SWIDTH 500 0
DWIDTH 8 0
BBX 8 16 0 -2
BITMAP
00
00
00
00
47
41
41
41
41
41
41
49
49
76
00
00
ENDCHAR
STARTCHAR U+01C8
ENCODING 456
SWIDTH 500 0
DWIDTH 8 0
BBX 8 16 0 -2
BITMAP
00
00
00
01
41
40
43
41
41
41
41
41
41
79
02
0C
ENDCHAR
STARTCHAR U+01C9
ENCODING 457
SWIDTH 500 0
DWIDTH 8 0
BBX 8 16 0 -2
BITMAP
00
00
00
01
61
20
23
21
21
21
21
21
21
F9
02
0C
ENDCHAR
STARTCHAR U+01CA
ENCODING 458
SWIDTH 500 0
DWIDTH 8 0
BBX 8 16 0 -2
BITMAP
00
00
00
00
4B
49
49
69
69
59
59
4D
4D
4A
00
00
ENDCHAR
STARTCHAR U+01CB
ENCODING 459
SWIDTH 500 0
DWIDTH 8 0
BBX 8 16 0 -2
BITMAP
00
00
00
01
49
48
6B
69
69
59
59
59
49
49
12
0C
ENDCHAR
STARTCHAR U+01CC
ENCODING 460
SWIDTH 500 0
DWIDTH 8 0
BBX 8 16 0 -2
BITMAP
00
00
00
01
01
00
53
69
49
49
49
49
49
49
12
0C
ENDCHAR
STARTCHAR U+01CD
ENCODING 461
SWIDTH 500 0
DWIDTH 8 0
BBX 8 16 0 -2
BITMAP
24
18
00
00
18
24
24
42
42
7E
42
42
42
42
00
00
ENDCHAR
STARTCHAR U+01CE
ENCODING 462
SWIDTH 500 0
DWIDTH 8 0
BBX 8 16 0 -2
BITMAP
00
00
24
18
00
00
3C
42
02
3E
42
42
46
3A
00
00
ENDCHAR
STARTCHAR U+01CF
ENCODING 463
SWIDTH 500 0
DWIDTH 8 0
BBX 8 16 0 -2
BITMAP
24
18
00
00
3E
08
08
08
08
08
08
08
08
3E
00
00
ENDCHAR
STARTCHAR U+01D0
ENCODING 464
SWIDTH 500 0
DWIDTH 8 0
BBX 8 16 0 -2
BITMAP
00
00
24
18
00
00
18
08
08
08
08
08
08
3E
00
00
ENDCHAR
STARTCHAR U+01D1
ENCODING 465
SWIDTH 500 0
DWIDTH 8 0
BBX 8 16 0 -2
BITMAP
24
18
00
00
3C
42
42
42
42
42
42
42
42
3C
00
00
ENDCHAR
STARTCHAR U+01D2
ENCODING 466
SWIDTH 500 0
DWIDTH 8 0
BBX 8 16 0 -2
BITMAP
00
00
24
18
00
00
3C
42
42
42
42
42
42
3C
00
00
ENDCHAR
STARTCHAR U+01D3
ENCODING 467
SWIDTH 500 0
DWIDTH 8 0
BBX 8 16 0 -2
BITMAP
24
18
00
00
42
42
42
42
42
42
42
42
42
3C
00
00
ENDCHAR
STARTCHAR U+01D4
ENCODING 468
SWIDTH 500 0
DWIDTH 8 0
BBX 8 16 0 -2
BITMAP
00
00
24
18
00
00
42
42
42
42
42
42
46
3A
00
00
ENDCHAR
STARTCHAR U+01D5
ENCODING 469
SWIDTH 500 0
DWIDTH 8 0
BBX 8 16 0 -2
BITMAP
3C
00
24
00
42
42
42
42
42
42
42
42
42
3C
00
00
ENDCHAR
STARTCHAR U+01D6
ENCODING 470
SWIDTH 500 0
DWIDTH 8 0
BBX 8 16 0 -2
BITMAP
00
3C
00
24
24
00
42
42
42
42
42
42
46
3A
00
00
ENDCHAR
STARTCHAR U+01D7
ENCODING 471
SWIDTH 500 0
DWIDTH 8 0
BBX 8 16 0 -2
BITMAP
0C
30
00
24
00
42
42
42
42
42
42
42
42
3C
00
00
ENDCHAR
STARTCHAR U+01D8
ENCODING 472
SWIDTH 500 0
DWIDTH 8 0
BBX 8 16 0 -2
BITMAP
0C
30
00
24
24
00
42
42
42
42
42
42
46
3A
00
00
ENDCHAR
STARTCHAR U+01D9
ENCODING 473
SWIDTH 500 0
DWIDTH 8 0
BBX 8 16 0 -2
BITMAP
24
18
00
24
00
42
42
42
42
42
42
42
42
3C
00
00
ENDCHAR
STARTCHAR U+01DA
ENCODING 474
SWIDTH 500 0
DWIDTH 8 0
BBX 8 16 0 -2
BITMAP
24
18
00
24
24
00
42
42
42
42
42
42
46
3A
00
00
ENDCHAR
STARTCHAR U+01DB
ENCODING 475
SWIDTH 500 0
DWIDTH 8 0
BBX 8 16 0 -2
BITMAP
30
0C
00
24
00
42
42
42
42
42
42
42
42
3C
00
00
ENDCHAR
STARTCHAR U+01DC
ENCODING 476
SWIDTH 500 0
DWIDTH 8 0
BBX 8 16 0 -2
BITMAP
30
0C
00
24
24
00
42
42
42
42
42
42
46
3A
00
00
ENDCHAR
STARTCHAR U+01DD
ENCODING 477
SWIDTH 500 0
DWIDTH 8 0
BBX 8 16 0 -2
BITMAP
00
00
00
00
00
00
3C
42
02
02
7E
42
42
3C
00
00
ENDCHAR
STARTCHAR U+01DE
ENCODING 478
SWIDTH 500 0
DWIDTH 8 0
BBX 8 16 0 -2
BITMAP
3C
00
24
00
18
24
24
42
42
7E
42
42
42
42
00
00
ENDCHAR
STARTCHAR U+01DF
ENCODING 479
SWIDTH 500 0
DWIDTH 8 0
BBX 8 16 0 -2
BITMAP
00
3C
00
24
24
00
3C
42
02
3E
42
42
46
3A
00
00
ENDCHAR
STARTCHAR U+01E0
ENCODING 480
SWIDTH 500 0
DWIDTH 8 0
BBX 8 16 0 -2
BITMAP
3C
00
18
00
18
24
24
42
42
7E
42
42
42
42
00
00
ENDCHAR
STARTCHAR U+01E1
ENCODING 481
SWIDTH 500 0
DWIDTH 8 0
BBX 8 16 0 -2
BITMAP
00
3C
00
10
10
00
3C
42
02
3E
42
42
46
3A
00
00
ENDCHAR
STARTCHAR U+01E2
ENCODING 482
SWIDTH 500 0
DWIDTH 8 0
BBX 8 16 0 -2
BITMAP
00
3C
00
00
1F
28
48
48
7F
48
48
48
48
4F
00
00
ENDCHAR
STARTCHAR U+01E3
ENCODING 483
SWIDTH 500 0
DWIDTH 8 0
BBX 8 16 0 -2
BITMAP
00
00
00
3C
00
00
3E
49
09
3F
48
48
49
3E
00
00
ENDCHAR
STARTCHAR U+01E4
ENCODING 484
SWIDTH 500 0
DWIDTH 8 0
BBX 8 16 0 -2
BITMAP
00
00
00
00
3C
42
42
40
40
4E
42
4F
42
3E
00
00
ENDCHAR
STARTCHAR U+01E5
ENCODING 485
SWIDTH 500 0
DWIDTH 8 0
BBX 8 16 0 -2
BITMAP
00
00
00
00
00
02
3A
44
44
44
38
20
3C
4F
42
3C
ENDCHAR
STARTCHAR U+01E6
ENCODING 486
SWIDTH 500 0
DWIDTH 8 0
BBX 8 16 0 -2
BITMAP
24
18
00
00
3C
42
42
40
40
4E
42
42
46
3A
00
00
ENDCHAR
STARTCHAR U+01E7
ENCODING 487
SWIDTH 500 0
DWIDTH 8 0
BBX 8 16 0 -2
BITMAP
00
00
24
18
00
02
3A
44
44
44
38
20
3C
42
42
3C
ENDCHAR
STARTCHAR U+01E8
ENCODING 488
SWIDTH 500 0
DWIDTH 8 0
BBX 8 16 0 -2
BITMAP
24
18
00
00
42
44
48
50
60
60
50
48
44
42
00
00
ENDCHAR
STARTCHAR U+01E9
ENCODING 489
SWIDTH 500 0
DWIDTH 8 0
BBX 8 16 0 -2
BITMAP
48
30
00
00
40
40
44
48
50
60
50
48
44
42
00
00
ENDCHAR
STARTCHAR U+01EA
ENCODING 490
SWIDTH 500 0
DWIDTH 8 0
BBX 8 16 0 -2
BITMAP
00
00
00
00
3C
42
42
42
42
42
42
42
42
3C
10
0C
ENDCHAR
STARTCHAR U+01EB
ENCODING 491
SWIDTH 500 0
DWIDTH 8 0
BBX 8 16 0 -2
BITMAP
00
00
00
00
00
00
3C
42
42
42
42
42
42
3C
10
0C
ENDCHAR
STARTCHAR U+01EC
ENCODING 492
SWIDTH 500 0
DWIDTH 8 0
BBX 8 16 0 -2
BITMAP
00
3C
00
00
3C
42
42
42
42
42
42
42
42
3C
10
0C
ENDCHAR
STARTCHAR U+01ED
ENCODING 493
SWIDTH 500 0
DWIDTH 8 0
BBX 8 16 0 -2
BITMAP
00
00
00
3C
00
00
3C
42
42
42
42
42
42
3C
10
0C
ENDCHAR
STARTCHAR U+01EE
ENCODING 494
SWIDTH 500 0
DWIDTH 8 0
BBX 8 16 0 -2
BITMAP
24
18
00
00
7E
04
08
10
1C
02
02
02
46
3C
00
00
ENDCHAR
STARTCHAR U+01EF
ENCODING 495
SWIDTH 500 0
DWIDTH 8 0
BBX 8 16 0 -2
BITMAP
00
00
24
18
00
00
3E
04
08
10
1C
02
02
02
42
3C
ENDCHAR
STARTCHAR U+01F0
ENCODING 496
SWIDTH 500 0
DWIDTH 8 0
BBX 8 16 0 -2
BITMAP
00
00
12
0C
00
00
0C
04
04
04
04
04
04
04
48
30
ENDCHAR
STARTCHAR U+01F1
ENCODING 497
SWIDTH 500 0
DWIDTH 8 0
BBX 8 16 0 -2
BITMAP
00
00
00
00
67
51
51
51
52
52
54
54
54
67
00
00
ENDCHAR
STARTCHAR U+01F2
ENCODING 498
SWIDTH 500 0
DWIDTH 8 0
BBX 8 16 0 -2
BITMAP
00
00
00
00
60
50
57
51
51
52
52
54
54
67
00
00
ENDCHAR
STARTCHAR U+01F3
ENCODING 499
SWIDTH 500 0
DWIDTH 8 0
BBX 8 16 0 -2
BITMAP
00
00
00
10
10
10
37
51
51
52
52
54
54
37
00
00
ENDCHAR
STARTCHAR U+01F4
ENCODING 500
SWIDTH 500 0
DWIDTH 8 0
BBX 8 16 0 -2
BITMAP
0C
30
00
00
3C
42
42
40
40
4E
42
42
46
3A
00
00
ENDCHAR
STARTCHAR U+01F5
ENCODING 501
SWIDTH 500 0
DWIDTH 8 0
BBX 8 16 0 -2
BITMAP
00
00
0C
30
00
02
3A
44
44
44
38
20
3C
42
42
3C
ENDCHAR
STARTCHAR U+01FA
ENCODING 506
SWIDTH 500 0
DWIDTH 8 0
BBX 8 16 0 -2
BITMAP
0C
30
18
24
18
18
24
24
42
7E
42
42
42
42
00
00
ENDCHAR
STARTCHAR U+01FB
ENCODING 507
SWIDTH 500 0
DWIDTH 8 0
BBX 8 16 0 -2
BITMAP
0C
30
00
18
24
18
00
3C
42
02
3E
42
46
3A
00
00
ENDCHAR
STARTCHAR U+01FC
ENCODING 508
SWIDTH 500 0
DWIDTH 8 0
BBX 8 16 0 -2
BITMAP
06
18
00
00
1F
28
48
48
7F
48
48
48
48
4F
00
00
ENDCHAR
STARTCHAR U+01FD
ENCODING 509
SWIDTH 500 0
DWIDTH 8 0
BBX 8 16 0 -2
BITMAP
00
00
06
18
00
00
3E
49
09
3F
48
48
49
3E
00
00
ENDCHAR
STARTCHAR U+01FE
ENCODING 510
SWIDTH 500 0
DWIDTH 8 0
BBX 8 16 0 -2
BITMAP
0C
30
00
02
3A
44
46
4A
4A
52
52
62
22
5C
40
00
ENDCHAR
STARTCHAR U+01FF
ENCODING 511
SWIDTH 500 0
DWIDTH 8 0
BBX 8 16 0 -2
BITMAP
00
00
0C
30
00
02
3C
46
4A
4A
52
52
62
3C
40
00
ENDCHAR
STARTCHAR U+0200
ENCODING 512
SWIDTH 500 0
DWIDTH 8 0
BBX 8 16 0 -2
BITMAP
CC
22
00
00
18
24
24
42
42
7E
42
42
42
42
00
00
ENDCHAR
STARTCHAR U+0201
ENCODING 513
SWIDTH 500 0
DWIDTH 8 0
BBX 8 16 0 -2
BITMAP
00
00
CC
22
00
00
3C
42
02
3E
42
42
46
3A
00
00
ENDCHAR
STARTCHAR U+0202
ENCODING 514
SWIDTH 500 0
DWIDTH 8 0
BBX 8 16 0 -2
BITMAP
3C
42
42
00
18
24
24
42
42
7E
42
42
42
42
00
00
ENDCHAR
STARTCHAR U+0203
ENCODING 515
SWIDTH 500 0
DWIDTH 8 0
BBX 8 16 0 -2
BITMAP
00
00
3C
42
42
00
3C
42
02
3E
42
42
46
3A
00
00
ENDCHAR
STARTCHAR U+0204
ENCODING 516
SWIDTH 500 0
DWIDTH 8 0
BBX 8 16 0 -2
BITMAP
CC
22
00
00
7E
40
40
40
7C
40
40
40
40
7E
00
00
ENDCHAR
STARTCHAR U+0205
ENCODING 517
SWIDTH 500 0
DWIDTH 8 0
BBX 8 16 0 -2
BITMAP
00
00
CC
22
00
00
3C
42
42
7E
40
40
42
3C
00
00
ENDCHAR
STARTCHAR U+0206
ENCODING 518
SWIDTH 500 0
DWIDTH 8 0
BBX 8 16 0 -2
BITMAP
3C
42
42
00
7E
40
40
40
7C
40
40
40
40
7E
00
00
ENDCHAR
STARTCHAR U+0207
ENCODING 519
SWIDTH 500 0
DWIDTH 8 0
BBX 8 16 0 -2
BITMAP
00
00
3C
42
42
00
3C
42
42
7E
40
40
42
3C
00
00
ENDCHAR
STARTCHAR U+0208
ENCODING 520
SWIDTH 500 0
DWIDTH 8 0
BBX 8 16 0 -2
BITMAP
CC
22
00
00
3E
08
08
08
08
08
08
08
08
3E
00
00
ENDCHAR
STARTCHAR U+0209
ENCODING 521
SWIDTH 500 0
DWIDTH 8 0
BBX 8 16 0 -2
BITMAP
00
00
CC
22
00
00
18
08
08
08
08
08
08
3E
00
00
ENDCHAR
STARTCHAR U+020A
ENCODING 522
SWIDTH 500 0
DWIDTH 8 0
BBX 8 16 0 -2
BITMAP
3C
42
42
00
3E
08
08
08
08
08
08
08
08
3E
00
00
ENDCHAR
STARTCHAR U+020B
ENCODING 523
SWIDTH 500 0
DWIDTH 8 0
BBX 8 16 0 -2
BITMAP
00
00
3C
42
42
00
18
08
08
08
08
08
08
3E
00
00
ENDCHAR
STARTCHAR U+020C
ENCODING 524
SWIDTH 500 0
DWIDTH 8 0
BBX 8 16 0 -2
BITMAP
CC
22
00
00
3C
42
42
42
42
42
42
42
42
3C
00
00
ENDCHAR
STARTCHAR U+020D
ENCODING 525
SWIDTH 500 0
DWIDTH 8 0
BBX 8 16 0 -2
BITMAP
00
00
CC
22
00
00
3C
42
42
42
42
42
42
3C
00
00
ENDCHAR
STARTCHAR U+020E
ENCODING 526
SWIDTH 500 0
DWIDTH 8 0
BBX 8 16 0 -2
BITMAP
3C
42
42
00
3C
42
42
42
42
42
42
42
42
3C
00
00
ENDCHAR
STARTCHAR U+020F
ENCODING 527
SWIDTH 500 0
DWIDTH 8 0
BBX 8 16 0 -2
BITMAP
00
00
3C
42
42
00
3C
42
42
42
42
42
42
3C
00
00
ENDCHAR
STARTCHAR U+0210
ENCODING 528
SWIDTH 500 0
DWIDTH 8 0
BBX 8 16 0 -2
BITMAP
CC
22
00
00
7C
42
42
42
7C
48
44
44
42
42
00
00
ENDCHAR
STARTCHAR U+0211
ENCODING 529
SWIDTH 500 0
DWIDTH 8 0
BBX 8 16 0 -2
BITMAP
00
00
CC
22
00
00
5C
62
42
40
40
40
40
40
00
00
ENDCHAR
STARTCHAR U+0212
ENCODING 530
SWIDTH 500 0
DWIDTH 8 0
BBX 8 16 0 -2
BITMAP
3C
42
42
00
7C
42
42
42
7C
48
44
44
42
42
00
00
ENDCHAR
STARTCHAR U+0213
ENCODING 531
SWIDTH 500 0
DWIDTH 8 0
BBX 8 16 0 -2
BITMAP
00
00
3C
42
42
00
5C
62
42
40
40
40
40
40
00
00
ENDCHAR
STARTCHAR U+0214
ENCODING 532
SWIDTH 500 0
DWIDTH 8 0
BBX 8 16 0 -2
BITMAP
CC
22
00
00
42
42
42
42
42
42
42
42
42
3C
00
00
ENDCHAR
STARTCHAR U+0215
ENCODING 533
SWIDTH 500 0
DWIDTH 8 0
BBX 8 16 0 -2
BITMAP
00
00
CC
22
00
00
42
42
42
42
42
42
46
3A
00
00
ENDCHAR
STARTCHAR U+0216
ENCODING 534
SWIDTH 500 0
DWIDTH 8 0
BBX 8 16 0 -2
BITMAP
3C
42
42
00
42
42
42
42
42
42
42
42
42
3C
00
00
ENDCHAR
STARTCHAR U+0217
ENCODING 535
SWIDTH 500 0
DWIDTH 8 0
BBX 8 16 0 -2
BITMAP
00
00
3C
42
42
00
42
42
42
42
42
42
46
3A
00
00
ENDCHAR
STARTCHAR U+0250
ENCODING 592
SWIDTH 500 0
DWIDTH 8 0
BBX 8 16 0 -2
BITMAP
00
00
00
00
00
00
5C
62
42
42
7C
40
42
3C
00
00
ENDCHAR
STARTCHAR U+0251
ENCODING 593
SWIDTH 500 0
DWIDTH 8 0
BBX 8 16 0 -2
BITMAP
00
00
00
00
00
00
3A
46
42
42
42
46
4A
32
00
00
ENDCHAR
STARTCHAR U+0252
ENCODING 594
SWIDTH 500 0
DWIDTH 8 0
BBX 8 16 0 -2
BITMAP
00
00
00
00
00
00
4C
52
62
42
42
42
62
5C
00
00
ENDCHAR
STARTCHAR U+0253
ENCODING 595
SWIDTH 500 0
DWIDTH 8 0
BBX 8 16 0 -2
BITMAP
00
00
00
38
40
40
5C
62
42
42
42
42
62
5C
00
00
ENDCHAR
STARTCHAR U+0254
ENCODING 596
SWIDTH 500 0
DWIDTH 8 0
BBX 8 16 0 -2
BITMAP
00
00
00
00
00
00
3C
42
02
02
02
02
42
3C
00
00
ENDCHAR
STARTCHAR U+0255
ENCODING 597
SWIDTH 500 0
DWIDTH 8 0
BBX 8 16 0 -2
BITMAP
00
00
00
00
00
00
3C
42
40
40
40
4C
52
3C
40
00
ENDCHAR
STARTCHAR U+0256
ENCODING 598
SWIDTH 500 0
DWIDTH 8 0
BBX 8 16 0 -2
BITMAP
00
00
00
04
04
04
34
4C
44
44
44
44
4C
34
03
00
ENDCHAR
STARTCHAR U+0257
ENCODING 599
SWIDTH 500 0
DWIDTH 8 0
BBX 8 16 0 -2
BITMAP
00
00
00
03
04
04
34
4C
44
44
44
44
4C
34
00
00
ENDCHAR
STARTCHAR U+0258
ENCODING 600
SWIDTH 500 0
DWIDTH 8 0
BBX 8 16 0 -2
BITMAP
00
00
00
00
00
00
3C
42
42
7E
02
02
42
3C
00
00
ENDCHAR
STARTCHAR U+0259
ENCODING 601
SWIDTH 500 0
DWIDTH 8 0
BBX 8 16 0 -2
BITMAP
00
00
00
00
00
00
3C
42
02
02
7E
42
42
3C
00
00
ENDCHAR
STARTCHAR U+025A
ENCODING 602
SWIDTH 500 0
DWIDTH 8 0
BBX 8 16 0 -2
BITMAP
00
00
00
00
00
00
39
46
04
04
7C
44
44
38
00
00
ENDCHAR
STARTCHAR U+025B
ENCODING 603
SWIDTH 500 0
DWIDTH 8 0
BBX 8 16 0 -2
BITMAP
00
00
00
00
00
00
3C
42
40
3C
40
40
42
3C
00
00
ENDCHAR
STARTCHAR U+025C
ENCODING 604
SWIDTH 500 0
DWIDTH 8 0
BBX 8 16 0 -2
BITMAP
00
00
00
00
00
00
3C
42
02
3C
02
02
42
3C
00
00
ENDCHAR
STARTCHAR U+025D
ENCODING 605
SWIDTH 500 0
DWIDTH 8 0
BBX 8 16 0 -2
BITMAP
00
00
00
00
00
00
39
46
04
38
04
04
44
38
00
00
ENDCHAR
STARTCHAR U+025E
ENCODING 606
SWIDTH 500 0
DWIDTH 8 0
BBX 8 16 0 -2
BITMAP
00
00
00
00
00
00
3C
42
42
5C
42
42
42
3C
00
00
ENDCHAR
STARTCHAR U+025F
ENCODING 607
SWIDTH 500 0
DWIDTH 8 0
BBX 8 16 0 -2
BITMAP
00
00
00
00
00
00
0C
04
04
04
1F
04
04
04
48
30
ENDCHAR
STARTCHAR U+0260
ENCODING 608
SWIDTH 500 0
DWIDTH 8 0
BBX 8 16 0 -2
BITMAP
00
00
00
00
00
03
3D
44
44
44
38
20
3C
42
42
3C
ENDCHAR
STARTCHAR U+0261
ENCODING 609
SWIDTH 500 0
DWIDTH 8 0
BBX 8 16 0 -2
BITMAP
00
00
00
00
00
00
3A
46
42
42
42
46
3A
02
42
3C
ENDCHAR
STARTCHAR U+0262
ENCODING 610
SWIDTH 500 0
DWIDTH 8 0
BBX 8 16 0 -2
BITMAP
00
00
00
00
00
00
3C
42
40
40
4E
42
42
3E
00
00
ENDCHAR
STARTCHAR U+0263
ENCODING 611
SWIDTH 500 0
DWIDTH 8 0
BBX 8 16 0 -2
BITMAP
00
00
00
00
00
00
42
42
42
24
24
18
18
24
24
18
ENDCHAR
STARTCHAR U+0264
ENCODING 612
SWIDTH 500 0
DWIDTH 8 0
BBX 8 16 0 -2
BITMAP
00
00
00
00
00
00
42
42
24
24
18
18
24
18
00
00
ENDCHAR
STARTCHAR U+0265
ENCODING 613
SWIDTH 500 0
DWIDTH 8 0
BBX 8 16 0 -2
BITMAP
00
00
00
00
00
42
42
42
42
42
42
46
3A
02
02
02
ENDCHAR
STARTCHAR U+0266
ENCODING 614
SWIDTH 500 0
DWIDTH 8 0
BBX 8 16 0 -2
BITMAP
00
00
00
38
40
40
5C
62
42
42
42
42
42
42
00
00
ENDCHAR
STARTCHAR U+0267
ENCODING 615
SWIDTH 500 0
DWIDTH 8 0
BBX 8 16 0 -2
BITMAP
00
00
00
38
40
40
5C
62
42
42
42
42
42
4C
00
00
ENDCHAR
STARTCHAR U+0268
ENCODING 616
SWIDTH 500 0
DWIDTH 8 0
BBX 8 16 0 -2
BITMAP
00
00
00
08
08
00
18
08
08
3E
08
08
08
3E
00
00
ENDCHAR
STARTCHAR U+0269
ENCODING 617
SWIDTH 500 0
DWIDTH 8 0
BBX 8 16 0 -2
BITMAP
00
00
00
00
00
00
10
10
10
10
10
10
10
0C
00
00
ENDCHAR
STARTCHAR U+026A
ENCODING 618
SWIDTH 500 0
DWIDTH 8 0
BBX 8 16 0 -2
BITMAP
00
00
00
00
00
00
3E
08
08
08
08
08
08
3E
00
00
ENDCHAR
STARTCHAR U+026B
ENCODING 619
SWIDTH 500 0
DWIDTH 8 0
BBX 8 16 0 -2
BITMAP
00
00
00
00
18
08
08
08
3A
4C
08
08
08
3E
00
00
ENDCHAR
STARTCHAR U+026C
ENCODING 620
SWIDTH 500 0
DWIDTH 8 0
BBX 8 16 0 -2
BITMAP
00
00
00
00
18
08
08
38
48
3E
08
08
08
3E
00
00
ENDCHAR
STARTCHAR U+026D
ENCODING 621
SWIDTH 500 0
DWIDTH 8 0
BBX 8 16 0 -2
BITMAP
00
00
00
00
18
08
08
08
08
08
08
08
08
08
06
00
ENDCHAR
STARTCHAR U+026E
ENCODING 622
SWIDTH 500 0
DWIDTH 8 0
BBX 8 16 0 -2
BITMAP
00
00
00
00
30
10
1F
11
12
14
16
11
11
7D
09
06
ENDCHAR
STARTCHAR U+026F
ENCODING 623
SWIDTH 500 0
DWIDTH 8 0
BBX 8 16 0 -2
BITMAP
00
00
00
00
00
00
49
49
49
49
49
49
49
37
00
00
ENDCHAR
STARTCHAR U+0270
ENCODING 624
SWIDTH 500 0
DWIDTH 8 0
BBX 8 16 0 -2
BITMAP
00
00
00
00
00
00
49
49
49
49
49
49
49
37
01
01
ENDCHAR
STARTCHAR U+0271
ENCODING 625
SWIDTH 500 0
DWIDTH 8 0
BBX 8 16 0 -2
BITMAP
00
00
00
00
00
00
76
49
49
49
49
49
49
41
06
00
ENDCHAR
STARTCHAR U+0272
ENCODING 626
SWIDTH 500 0
DWIDTH 8 0
BBX 8 16 0 -2
BITMAP
00
00
00
00
00
00
16
19
11
11
11
11
11
11
60
00
ENDCHAR
STARTCHAR U+0273
ENCODING 627
SWIDTH 500 0
DWIDTH 8 0
BBX 8 16 0 -2
BITMAP
00
00
00
00
00
00
58
64
44
44
44
44
44
44
03
00
ENDCHAR
STARTCHAR U+0274
ENCODING 628
SWIDTH 500 0
DWIDTH 8 0
BBX 8 16 0 -2
BITMAP
00
00
00
00
00
00
42
42
62
52
4A
46
42
42
00
00
ENDCHAR
STARTCHAR U+0275
ENCODING 629
SWIDTH 500 0
DWIDTH 8 0
BBX 8 16 0 -2
BITMAP
00
00
00
00
00
00
3C
42
42
7E
42
42
42
3C
00
00
ENDCHAR
STARTCHAR U+0276
ENCODING 630
SWIDTH 500 0
DWIDTH 8 0
BBX 8 16 0 -2
BITMAP
00
00
00
00
00
00
37
48
48
4E
48
48
48
37
00
00
ENDCHAR
STARTCHAR U+0277
ENCODING 631
SWIDTH 500 0
DWIDTH 8 0
BBX 8 16 0 -2
BITMAP
00
00
00
00
00
00
3E
41
41
49
49
49
49
36
00
00
ENDCHAR
STARTCHAR U+0278
ENCODING 632
SWIDTH 500 0
DWIDTH 8 0
BBX 8 16 0 -2
BITMAP
00
00
00
00
08
08
3E
49
49
49
49
49
49
3E
08
08
ENDCHAR
STARTCHAR U+0279
ENCODING 633
SWIDTH 500 0
DWIDTH 8 0
BBX 8 16 0 -2
BITMAP
00
00
00
00
00
00
02
02
02
02
02
42
46
3A
00
00
ENDCHAR
STARTCHAR U+027A
ENCODING 634
SWIDTH 500 0
DWIDTH 8 0
BBX 8 16 0 -2
BITMAP
00
00
00
00
02
02
02
02
02
02
02
42
46
3A
00
00
ENDCHAR
STARTCHAR U+027B
ENCODING 635
SWIDTH 500 0
DWIDTH 8 0
BBX 8 16 0 -2
BITMAP
00
00
00
00
00
00
04
04
04
04
04
44
4C
34
03
00
ENDCHAR
STARTCHAR U+027C
ENCODING 636
SWIDTH 500 0
DWIDTH 8 0
BBX 8 16 0 -2
BITMAP
00
00
00
00
00
00
5C
62
42
40
40
40
40
40
40
40
ENDCHAR
STARTCHAR U+027D
ENCODING 637
SWIDTH 500 0
DWIDTH 8 0
BBX 8 16 0 -2
BITMAP
00
00
00
00
00
00
5C
62
42
40
40
40
40
40
30
00
ENDCHAR
STARTCHAR U+027E
ENCODING 638
SWIDTH 500 0
DWIDTH 8 0
BBX 8 16 0 -2
BITMAP
00
00
00
00
00
00
3C
42
42
40
40
40
40
40
00
00
ENDCHAR
STARTCHAR U+027F
ENCODING 639
SWIDTH 500 0
DWIDTH 8 0
BBX 8 16 0 -2
BITMAP
00
00
00
00
00
00
3C
42
42
02
02
02
02
02
00
00
ENDCHAR
STARTCHAR U+0280
ENCODING 640
SWIDTH 500 0
DWIDTH 8 0
BBX 8 16 0 -2
BITMAP
00
00
00
00
00
00
7C
42
42
7C
44
42
42
42
00
00
ENDCHAR
STARTCHAR U+0281
ENCODING 641
SWIDTH 500 0
DWIDTH 8 0
BBX 8 16 0 -2
BITMAP
00
00
00
00
00
00
42
42
42
44
7C
42
42
7C
00
00
ENDCHAR
STARTCHAR U+0282
ENCODING 642
SWIDTH 500 0
DWIDTH 8 0
BBX 8 16 0 -2
BITMAP
00
00
00
00
00
00
3C
42
40
30
0C
02
42
7C
40
30
ENDCHAR
STARTCHAR U+0283
ENCODING 643
SWIDTH 500 0
DWIDTH 8 0
BBX 8 16 0 -2
BITMAP
00
00
00
0C
10
10
10
10
10
10
10
10
10
10
60
00
ENDCHAR
STARTCHAR U+0284
ENCODING 644
SWIDTH 500 0
DWIDTH 8 0
BBX 8 16 0 -2
BITMAP
00
00
00
0C
10
10
10
7C
10
10
7C
10
10
10
60
00
ENDCHAR
STARTCHAR U+0285
ENCODING 645
SWIDTH 500 0
DWIDTH 8 0
BBX 8 16 0 -2
BITMAP
00
00
00
00
00
00
60
10
10
10
10
10
10
10
0C
00
ENDCHAR
STARTCHAR U+0286
ENCODING 646
SWIDTH 500 0
DWIDTH 8 0
BBX 8 16 0 -2
BITMAP
00
00
00
06
08
08
08
08
08
08
08
08
38
4E
30
00
ENDCHAR
STARTCHAR U+0287
ENCODING 647
SWIDTH 500 0
DWIDTH 8 0
BBX 8 16 0 -2
BITMAP
00
00
00
00
60
10
10
10
10
10
10
7C
10
10
00
00
ENDCHAR
STARTCHAR U+0288
ENCODING 648
SWIDTH 500 0
DWIDTH 8 0
BBX 8 16 0 -2
BITMAP
00
00
00
00
10
10
7C
10
10
10
10
10
10
10
0E
00
ENDCHAR
STARTCHAR U+0289
ENCODING 649
SWIDTH 500 0
DWIDTH 8 0
BBX 8 16 0 -2
BITMAP
00
00
00
00
00
00
22
22
22
7F
22
22
26
1A
00
00
ENDCHAR
STARTCHAR U+028A
ENCODING 650
SWIDTH 500 0
DWIDTH 8 0
BBX 8 16 0 -2
BITMAP
00
00
00
00
00
00
42
24
42
42
42
42
24
18
00
00
ENDCHAR
STARTCHAR U+028B
ENCODING 651
SWIDTH 500 0
DWIDTH 8 0
BBX 8 16 0 -2
BITMAP
00
00
00
00
00
00
4C
42
42
42
42
44
48
30
00
00
ENDCHAR
STARTCHAR U+028C
ENCODING 652
SWIDTH 500 0
DWIDTH 8 0
BBX 8 16 0 -2
BITMAP
00
00
00
00
00
00
18
18
24
24
24
42
42
42
00
00
ENDCHAR
STARTCHAR U+028D
ENCODING 653
SWIDTH 500 0
DWIDTH 8 0
BBX 8 16 0 -2
BITMAP
00
00
00
00
00
00
36
49
49
49
49
49
49
41
00
00
ENDCHAR
STARTCHAR U+028E
ENCODING 654
SWIDTH 500 0
DWIDTH 8 0
BBX 8 16 0 -2
BITMAP
00
00
00
00
00
00
3C
40
40
58
64
42
42
42
42
42
ENDCHAR
STARTCHAR U+028F
ENCODING 655
SWIDTH 500 0
DWIDTH 8 0
BBX 8 16 0 -2
BITMAP
00
00
00
00
00
00
41
41
22
14
08
08
08
08
00
00
ENDCHAR
STARTCHAR U+0290
ENCODING 656
SWIDTH 500 0
DWIDTH 8 0
BBX 8 16 0 -2
BITMAP
00
00
00
00
00
00
7C
08
08
10
10
20
20
7C
04
03
ENDCHAR
STARTCHAR U+0291
ENCODING 657
SWIDTH 500 0
DWIDTH 8 0
BBX 8 16 0 -2
BITMAP
00
00
00
00
00
00
7E
02
04
08
10
26
49
7E
10
00
ENDCHAR
STARTCHAR U+0292
ENCODING 658
SWIDTH 500 0
DWIDTH 8 0
BBX 8 16 0 -2
BITMAP
00
00
00
00
00
00
3E
04
08
10
1C
02
02
02
42
3C
ENDCHAR
STARTCHAR U+0293
ENCODING 659
SWIDTH 500 0
DWIDTH 8 0
BBX 8 16 0 -2
BITMAP
00
00
00
00
00
00
3E
04
08
10
1C
02
02
32
4A
3C
ENDCHAR
STARTCHAR U+0294
ENCODING 660
SWIDTH 500 0
DWIDTH 8 0
BBX 8 16 0 -2
BITMAP
00
00
00
00
3C
42
42
02
04
08
08
08
08
08
00
00
ENDCHAR
STARTCHAR U+0295
ENCODING 661
SWIDTH 500 0
DWIDTH 8 0
BBX 8 16 0 -2
BITMAP
00
00
00
00
3C
42
42
40
20
10
10
10
10
10
00
00
ENDCHAR
STARTCHAR U+0296
ENCODING 662
SWIDTH 500 0
DWIDTH 8 0
BBX 8 16 0 -2
BITMAP
00
00
00
00
08
08
08
08
08
04
02
42
42
3C
00
00
ENDCHAR
STARTCHAR U+0297
ENCODING 663
SWIDTH 500 0
DWIDTH 8 0
BBX 8 16 0 -2
BITMAP
00
00
00
00
00
00
3C
42
40
40
40
40
40
40
42
3C
ENDCHAR
STARTCHAR U+0298
ENCODING 664
SWIDTH 500 0
DWIDTH 8 0
BBX 8 16 0 -2
BITMAP
00
00
00
00
00
00
3C
42
42
5A
5A
42
42
3C
00
00
ENDCHAR
STARTCHAR U+0299
ENCODING 665
SWIDTH 500 0
DWIDTH 8 0
BBX 8 16 0 -2
BITMAP
00
00
00
00
00
00
7C
42
42
7C
42
42
42
7C
00
00
ENDCHAR
STARTCHAR U+029A
ENCODING 666
SWIDTH 500 0
DWIDTH 8 0
BBX 8 16 0 -2
BITMAP
00
00
00
00
00
00
3C
42
42
3A
42
42
42
3C
00
00
ENDCHAR
STARTCHAR U+029B
ENCODING 667
SWIDTH 500 0
DWIDTH 8 0
BBX 8 16 0 -2
BITMAP
00
00
00
00
00
00
3B
44
40
40
4C
44
44
3C
00
00
ENDCHAR
STARTCHAR U+029C
ENCODING 668
SWIDTH 500 0
DWIDTH 8 0
BBX 8 16 0 -2
BITMAP
00
00
00
00
00
00
22
22
22
3E
22
22
22
22
00
00
ENDCHAR
STARTCHAR U+029D
ENCODING 669
SWIDTH 500 0
DWIDTH 8 0
BBX 8 16 0 -2
BITMAP
00
00
00
04
04
00
0C
04
04
04
04
04
04
3E
48
30
ENDCHAR
STARTCHAR U+029E
ENCODING 670
SWIDTH 500 0
DWIDTH 8 0
BBX 8 16 0 -2
BITMAP
00
00
00
00
00
00
42
22
12
0A
06
0A
12
22
02
02
ENDCHAR
STARTCHAR U+029F
ENCODING 671
SWIDTH 500 0
DWIDTH 8 0
BBX 8 16 0 -2
BITMAP
00
00
00
00
00
00
40
40
40
40
40
40
40
7E
00
00
ENDCHAR
STARTCHAR U+02A0
ENCODING 672
SWIDTH 500 0
DWIDTH 8 0
BBX 8 16 0 -2
BITMAP
00
00
00
00
00
03
34
4C
44
44
44
44
4C
34
04
04
ENDCHAR
STARTCHAR U+02A1
ENCODING 673
SWIDTH 500 0
DWIDTH 8 0
BBX 8 16 0 -2
BITMAP
00
00
00
00
3C
42
42
02
04
08
08
3E
08
08
00
00
ENDCHAR
STARTCHAR U+02A2
ENCODING 674
SWIDTH 500 0
DWIDTH 8 0
BBX 8 16 0 -2
BITMAP
00
00
00
00
3C
42
42
40
20
10
10
7C
10
10
00
00
ENDCHAR
STARTCHAR U+02A3
ENCODING 675
SWIDTH 500 0
DWIDTH 8 0
BBX 8 16 0 -2
BITMAP
00
00
00
10
10
10
3F
51
52
52
54
54
58
3F
00
00
ENDCHAR
STARTCHAR U+02A4
ENCODING 676
SWIDTH 500 0
DWIDTH 8 0
BBX 8 16 0 -2
BITMAP
00
00
00
10
10
10
3F
51
52
54
56
51
51
31
09
06
ENDCHAR
STARTCHAR U+02A5
ENCODING 677
SWIDTH 500 0
DWIDTH 8 0
BBX 8 16 0 -2
BITMAP
00
00
00
10
10
10
3F
51
52
54
58
5A
55
3E
04
00
ENDCHAR
STARTCHAR U+02A6
ENCODING 678
SWIDTH 500 0
DWIDTH 8 0
BBX 8 16 0 -2
BITMAP
00
00
00
00
20
20
76
28
28
24
22
21
21
1E
00
00
ENDCHAR
STARTCHAR U+02A7
ENCODING 679
SWIDTH 500 0
DWIDTH 8 0
BBX 8 16 0 -2
BITMAP
00
00
00
03
24
24
7C
24
24
24
24
24
24
1C
04
18
ENDCHAR
STARTCHAR U+02A8
ENCODING 680
SWIDTH 500 0
DWIDTH 8 0
BBX 8 16 0 -2
BITMAP
00
00
00
00
20
20
76
29
28
28
28
2A
2D
1E
04
00
ENDCHAR
STARTCHAR U+02BC
ENCODING 700
SWIDTH 500 0
DWIDTH 8 0
BBX 8 16 0 -2
BITMAP
00
00
18
08
08
10
00
00
00
00
00
00
00
00
00
00
ENDCHAR
STARTCHAR U+02BD
ENCODING 701
SWIDTH 500 0
DWIDTH 8 0
BBX 8 16 0 -2
BITMAP
00
00
18
10
10
08
00
00
00
00
00
00
00
00
00
00
ENDCHAR
STARTCHAR U+02C6
ENCODING 710
SWIDTH 500 0
DWIDTH 8 0
BBX 8 16 0 -2
BITMAP
18
24
00
00
00
00
00
00
00
00
00
00
00
00
00
00
ENDCHAR
STARTCHAR U+02C7
ENCODING 711
SWIDTH 500 0
DWIDTH 8 0
BBX 8 16 0 -2
BITMAP
24
18
00
00
00
00
00
00
00
00
00
00
00
00
00
00
ENDCHAR
STARTCHAR U+02C9
ENCODING 713
SWIDTH 500 0
DWIDTH 8 0
BBX 8 16 0 -2
BITMAP
00
3C
00
00
00
00
00
00
00
00
00
00
00
00
00
00
ENDCHAR
STARTCHAR U+02D8
ENCODING 728
SWIDTH 500 0
DWIDTH 8 0
BBX 8 16 0 -2
BITMAP
42
42
3C
00
00
00
00
00
00
00
00
00
00
00
00
00
ENDCHAR
STARTCHAR U+02D9
ENCODING 729
SWIDTH 500 0
DWIDTH 8 0
BBX 8 16 0 -2
BITMAP
10
10
00
00
00
00
00
00
00
00
00
00
00
00
00
00
ENDCHAR
STARTCHAR U+02DA
ENCODING 730
SWIDTH 500 0
DWIDTH 8 0
BBX 8 16 0 -2
BITMAP
18
24
18
00
00
00
00
00
00
00
00
00
00
00
00
00
ENDCHAR
STARTCHAR U+02DB
ENCODING 731
SWIDTH 500 0
DWIDTH 8 0
BBX 8 16 0 -2
BITMAP
00
00
00
00
00
00
00
00
00
00
00
00
00
00
08
06
ENDCHAR
STARTCHAR U+02DC
ENCODING 732
SWIDTH 500 0
DWIDTH 8 0
BBX 8 16 0 -2
BITMAP
32
4C
00
00
00
00
00
00
00
00
00
00
00
00
00
00
ENDCHAR
STARTCHAR U+02DD
ENCODING 733
SWIDTH 500 0
DWIDTH 8 0
BBX 8 16 0 -2
BITMAP
33
44
00
00
00
00
00
00
00
00
00
00
00
00
00
00
ENDCHAR
STARTCHAR U+0300
ENCODING 768
SWIDTH 500 0
DWIDTH 8 0
BBX 8 16 0 -2
BITMAP
30
0C
00
00
00
00
00
00
00
00
00
00
00
00
00
00
ENDCHAR
STARTCHAR U+0301
ENCODING 769
SWIDTH 500 0
DWIDTH 8 0
BBX 8 16 0 -2
BITMAP
0C
30
00
00
00
00
00
00
00
00
00
00
00
00
00
00
ENDCHAR
STARTCHAR U+0302
ENCODING 770
SWIDTH 500 0
DWIDTH 8 0
BBX 8 16 0 -2
BITMAP
18
24
42
00
00
00
00
00
00
00
00
00
00
00
00
00
ENDCHAR
STARTCHAR U+0303
ENCODING 771
SWIDTH 500 0
DWIDTH 8 0
BBX 8 16 0 -2
BITMAP
32
4C
00
00
00
00
00
00
00
00
00
00
00
00
00
00
ENDCHAR
STARTCHAR U+0304
ENCODING 772
SWIDTH 500 0
DWIDTH 8 0
BBX 8 16 0 -2
BITMAP
00
3C
00
00
00
00
00
00
00
00
00
00
00
00
00
00
ENDCHAR
STARTCHAR U+0305
ENCODING 773
SWIDTH 500 0
DWIDTH 8 0
BBX 8 16 0 -2
BITMAP
00
FF
00
00
00
00
00
00
00
00
00
00
00
00
00
00
ENDCHAR
STARTCHAR U+0306
ENCODING 774
SWIDTH 500 0
DWIDTH 8 0
BBX 8 16 0 -2
BITMAP
42
42
3C
00
00
00
00
00
00
00
00
00
00
00
00
00
ENDCHAR
STARTCHAR U+0307
ENCODING 775
SWIDTH 500 0
DWIDTH 8 0
BBX 8 16 0 -2
BITMAP
10
10
00
00
00
00
00
00
00
00
00
00
00
00
00
00
ENDCHAR
STARTCHAR U+0308
ENCODING 776
SWIDTH 500 0
DWIDTH 8 0
BBX 8 16 0 -2
BITMAP
24
24
00
00
00
00
00
00
00
00
00
00
00
00
00
00
ENDCHAR
STARTCHAR U+0309
ENCODING 777
SWIDTH 500 0
DWIDTH 8 0
BBX 8 16 0 -2
BITMAP
18
08
00
00
00
00
00
00
00
00
00
00
00
00
00
00
ENDCHAR
STARTCHAR U+030A
ENCODING 778
SWIDTH 500 0
DWIDTH 8 0
BBX 8 16 0 -2
BITMAP
18
24
18
00
00
00
00
00
00
00
00
00
00
00
00
00
ENDCHAR
STARTCHAR U+030B
ENCODING 779
SWIDTH 500 0
DWIDTH 8 0
BBX 8 16 0 -2
BITMAP
33
44
00
00
00
00
00
00
00
00
00
00
00
00
00
00
ENDCHAR
STARTCHAR U+030C
ENCODING 780
SWIDTH 500 0
DWIDTH 8 0
BBX 8 16 0 -2
BITMAP
22
14
08
00
00
00
00
00
00
00
00
00
00
00
00
00
ENDCHAR
STARTCHAR U+030D
ENCODING 781
SWIDTH 500 0
DWIDTH 8 0
BBX 8 16 0 -2
BITMAP
08
08
08
08
00
00
00
00
00
00
00
00
00
00
00
00
ENDCHAR
STARTCHAR U+030E
ENCODING 782
SWIDTH 500 0
DWIDTH 8 0
BBX 8 16 0 -2
BITMAP
14
14
14
14
00
00
00
00
00
00
00
00
00
00
00
00
ENDCHAR
STARTCHAR U+030F
ENCODING 783
SWIDTH 500 0
DWIDTH 8 0
BBX 8 16 0 -2
BITMAP
CC
22
00
00
00
00
00
00
00
00
00
00
00
00
00
00
ENDCHAR
STARTCHAR U+0310
ENCODING 784
SWIDTH 500 0
DWIDTH 8 0
BBX 8 16 0 -2
BITMAP
18
5A
42
3C
00
00
00
00
00
00
00
00
00
00
00
00
ENDCHAR
STARTCHAR U+0311
ENCODING 785
SWIDTH 500 0
DWIDTH 8 0
BBX 8 16 0 -2
BITMAP
3C
42
42
00
00
00
00
00
00
00
00
00
00
00
00
00
ENDCHAR
STARTCHAR U+0312
ENCODING 786
SWIDTH 500 0
DWIDTH 8 0
BBX 8 16 0 -2
BITMAP
00
00
10
20
30
00
00
00
00
00
00
00
00
00
00
00
ENDCHAR
STARTCHAR U+0313
ENCODING 787
SWIDTH 500 0
DWIDTH 8 0
BBX 8 16 0 -2
BITMAP
00
00
30
10
20
00
00
00
00
00
00
00
00
00
00
00
ENDCHAR
STARTCHAR U+0314
ENCODING 788
SWIDTH 500 0
DWIDTH 8 0
BBX 8 16 0 -2
BITMAP
00
00
30
20
10
00
00
00
00
00
00
00
00
00
00
00
ENDCHAR
STARTCHAR U+0315
ENCODING 789
SWIDTH 500 0
DWIDTH 8 0
BBX 8 16 0 -2
BITMAP
00
00
06
02
04
00
00
00
00
00
00
00
00
00
00
00
ENDCHAR
STARTCHAR U+0316
ENCODING 790
SWIDTH 500 0
DWIDTH 8 0
BBX 8 16 0 -2
BITMAP
00
00
00
00
00
00
00
00
00
00
00
00
00
00
30
0C
ENDCHAR
STARTCHAR U+0317
ENCODING 791
SWIDTH 500 0
DWIDTH 8 0
BBX 8 16 0 -2
BITMAP
00
00
00
00
00
00
00
00
00
00
00
00
00
00
0C
30
ENDCHAR
STARTCHAR U+0318
ENCODING 792
SWIDTH 500 0
DWIDTH 8 0
BBX 8 16 0 -2
BITMAP
00
00
00
00
00
00
00
00
00
00
00
04
04
3C
04
04
ENDCHAR
STARTCHAR U+0319
ENCODING 793
SWIDTH 500 0
DWIDTH 8 0
BBX 8 16 0 -2
BITMAP
00
00
00
00
00
00
00
00
00
00
00
20
20
3C
20
20
ENDCHAR
STARTCHAR U+031A
ENCODING 794
SWIDTH 500 0
DWIDTH 8 0
BBX 8 16 0 -2
BITMAP
00
3C
04
04
00
00
00
00
00
00
00
00
00
00
00
00
ENDCHAR
STARTCHAR U+031B
ENCODING 795
SWIDTH 500 0
DWIDTH 8 0
BBX 8 16 0 -2
BITMAP
00
00
01
01
06
00
00
00
00
00
00
00
00
00
00
00
ENDCHAR
STARTCHAR U+031C
ENCODING 796
SWIDTH 500 0
DWIDTH 8 0
BBX 8 16 0 -2
BITMAP
00
00
00
00
00
00
00
00
00
00
00
00
00
18
20
18
ENDCHAR
STARTCHAR U+031D
ENCODING 797
SWIDTH 500 0
DWIDTH 8 0
BBX 8 16 0 -2
BITMAP
00
00
00
00
00
00
00
00
00
00
00
00
08
08
1C
00
ENDCHAR
STARTCHAR U+031E
ENCODING 798
SWIDTH 500 0
DWIDTH 8 0
BBX 8 16 0 -2
BITMAP
00
00
00
00
00
00
00
00
00
00
00
00
00
1C
08
08
ENDCHAR
STARTCHAR U+031F
ENCODING 799
SWIDTH 500 0
DWIDTH 8 0
BBX 8 16 0 -2
BITMAP
00
00
00
00
00
00
00
00
00
00
00
08
08
3E
08
08
ENDCHAR
STARTCHAR U+0320
ENCODING 800
SWIDTH 500 0
DWIDTH 8 0
BBX 8 16 0 -2
BITMAP
00
00
00
00
00
00
00
00
00
00
00
00
00
00
3C
00
ENDCHAR
STARTCHAR U+0321
ENCODING 801
SWIDTH 500 0
DWIDTH 8 0
BBX 8 16 0 -2
BITMAP
00
00
00
00
00
00
00
00
00
00
00
00
02
02
0A
04
ENDCHAR
STARTCHAR U+0322
ENCODING 802
SWIDTH 500 0
DWIDTH 8 0
BBX 8 16 0 -2
BITMAP
00
00
00
00
00
00
00
00
00
00
00
00
04
04
05
02
ENDCHAR
STARTCHAR U+0323
ENCODING 803
SWIDTH 500 0
DWIDTH 8 0
BBX 8 16 0 -2
BITMAP
00
00
00
00
00
00
00
00
00
00
00
00
00
00
18
18
ENDCHAR
STARTCHAR U+0324
ENCODING 804
SWIDTH 500 0
DWIDTH 8 0
BBX 8 16 0 -2
BITMAP
00
00
00
00
00
00
00
00
00
00
00
00
00
00
24
24
ENDCHAR
STARTCHAR U+0325
ENCODING 805
SWIDTH 500 0
DWIDTH 8 0
BBX 8 16 0 -2
BITMAP
00
00
00
00
00
00
00
00
00
00
00
00
00
18
24
18
ENDCHAR
STARTCHAR U+0326
ENCODING 806
SWIDTH 500 0
DWIDTH 8 0
BBX 8 16 0 -2
BITMAP
00
00
00
00
00
00
00
00
00
00
00
00
18
08
10
00
ENDCHAR
STARTCHAR U+0327
ENCODING 807
SWIDTH 500 0
DWIDTH 8 0
BBX 8 16 0 -2
BITMAP
00
00
00
00
00
00
00
00
00
00
00
00
10
10
48
30
ENDCHAR
STARTCHAR U+0328
ENCODING 808
SWIDTH 500 0
DWIDTH 8 0
BBX 8 16 0 -2
BITMAP
00
00
00
00
00
00
00
00
00
00
00
00
00
04
09
06
ENDCHAR
STARTCHAR U+0329
ENCODING 809
SWIDTH 500 0
DWIDTH 8 0
BBX 8 16 0 -2
BITMAP
00
00
00
00
00
00
00
00
00
00
00
00
00
10
10
10
ENDCHAR
STARTCHAR U+032A
ENCODING 810
SWIDTH 500 0
DWIDTH 8 0
BBX 8 16 0 -2
BITMAP
00
00
00
00
00
00
00
00
00
00
00
00
00
7E
42
42
ENDCHAR
STARTCHAR U+032B
ENCODING 811
SWIDTH 500 0
DWIDTH 8 0
BBX 8 16 0 -2
BITMAP
00
00
00
00
00
00
00
00
00
00
00
00
00
54
54
28
ENDCHAR
STARTCHAR U+032C
ENCODING 812
SWIDTH 500 0
DWIDTH 8 0
BBX 8 16 0 -2
BITMAP
00
00
00
00
00
00
00
00
00
00
00
00
00
22
14
08
ENDCHAR
STARTCHAR U+032D
ENCODING 813
SWIDTH 500 0
DWIDTH 8 0
BBX 8 16 0 -2
BITMAP
00
00
00
00
00
00
00
00
00
00
00
00
00
18
24
42
ENDCHAR
STARTCHAR U+032E
ENCODING 814
SWIDTH 500 0
DWIDTH 8 0
BBX 8 16 0 -2
BITMAP
00
00
00
00
00
00
00
00
00
00
00
00
00
42
42
3C
ENDCHAR
STARTCHAR U+032F
ENCODING 815
SWIDTH 500 0
DWIDTH 8 0
BBX 8 16 0 -2
BITMAP
00
00
00
00
00
00
00
00
00
00
00
00
00
3C
42
42
ENDCHAR
STARTCHAR U+0330
ENCODING 816
SWIDTH 500 0
DWIDTH 8 0
BBX 8 16 0 -2
BITMAP
00
00
00
00
00
00
00
00
00
00
00
00
00
00
32
4C
ENDCHAR
STARTCHAR U+0331
ENCODING 817
SWIDTH 500 0
DWIDTH 8 0
BBX 8 16 0 -2
BITMAP
00
00
00
00
00
00
00
00
00
00
00
00
00
00
7E
00
ENDCHAR
STARTCHAR U+0332
ENCODING 818
SWIDTH 500 0
DWIDTH 8 0
BBX 8 16 0 -2
BITMAP
00
00
00
00
00
00
00
00
00
00
00
00
00
00
FF
00
ENDCHAR
STARTCHAR U+0333
ENCODING 819
SWIDTH 500 0
DWIDTH 8 0
BBX 8 16 0 -2
BITMAP
00
00
00
00
00
00
00
00
00
00
00
00
00
FF
00
FF
ENDCHAR
STARTCHAR U+0334
ENCODING 820
SWIDTH 500 0
DWIDTH 8 0
BBX 8 16 0 -2
BITMAP
00
00
00
00
00
00
32
5A
4C
00
00
00
00
00
00
00
ENDCHAR
STARTCHAR U+0335
ENCODING 821
SWIDTH 500 0
DWIDTH 8 0
BBX 8 16 0 -2
BITMAP
00
00
00
00
00
00
00
3C
00
00
00
00
00
00
00
00
ENDCHAR
STARTCHAR U+0336
ENCODING 822
SWIDTH 500 0
DWIDTH 8 0
BBX 8 16 0 -2
BITMAP
00
00
00
00
00
00
00
FF
00
00
00
00
00
00
00
00
ENDCHAR
STARTCHAR U+0337
ENCODING 823
SWIDTH 500 0
DWIDTH 8 0
BBX 8 16 0 -2
BITMAP
00
00
00
00
00
00
02
04
08
10
20
40
00
00
00
00
ENDCHAR
STARTCHAR U+0338
ENCODING 824
SWIDTH 500 0
DWIDTH 8 0
BBX 8 16 0 -2
BITMAP
00
00
00
02
04
04
08
08
10
10
20
20
40
00
00
00
ENDCHAR
STARTCHAR U+0339
ENCODING 825
SWIDTH 500 0
DWIDTH 8 0
BBX 8 16 0 -2
BITMAP
00
00
00
00
00
00
00
00
00
00
00
00
00
18
04
18
ENDCHAR
STARTCHAR U+033A
ENCODING 826
SWIDTH 500 0
DWIDTH 8 0
BBX 8 16 0 -2
BITMAP
00
00
00
00
00
00
00
00
00
00
00
00
00
42
42
7E
ENDCHAR
STARTCHAR U+033B
ENCODING 827
SWIDTH 500 0
DWIDTH 8 0
BBX 8 16 0 -2
BITMAP
00
00
00
00
00
00
00
00
00
00
00
00
00
38
28
38
ENDCHAR
STARTCHAR U+033C
ENCODING 828
SWIDTH 500 0
DWIDTH 8 0
BBX 8 16 0 -2
BITMAP
00
00
00
00
00
00
00
00
00
00
00
00
00
6C
92
00
ENDCHAR
STARTCHAR U+033D
ENCODING 829
SWIDTH 500 0
DWIDTH 8 0
BBX 8 16 0 -2
BITMAP
00
66
18
66
00
00
00
00
00
00
00
00
00
00
00
00
ENDCHAR
STARTCHAR U+033E
ENCODING 830
SWIDTH 500 0
DWIDTH 8 0
BBX 8 16 0 -2
BITMAP
0C
18
08
0C
18
00
00
00
00
00
00
00
00
00
00
00
ENDCHAR
STARTCHAR U+033F
ENCODING 831
SWIDTH 500 0
DWIDTH 8 0
BBX 8 16 0 -2
BITMAP
7E
00
7E
00
00
00
00
00
00
00
00
00
00
00
00
00
ENDCHAR
STARTCHAR U+0340
ENCODING 832
SWIDTH 500 0
DWIDTH 8 0
BBX 8 16 0 -2
BITMAP
30
0C
00
00
00
00
00
00
00
00
00
00
00
00
00
00
ENDCHAR
STARTCHAR U+0341
ENCODING 833
SWIDTH 500 0
DWIDTH 8 0
BBX 8 16 0 -2
BITMAP
0C
30
00
00
00
00
00
00
00
00
00
00
00
00
00
00
ENDCHAR
STARTCHAR U+0342
ENCODING 834
SWIDTH 500 0
DWIDTH 8 0
BBX 8 16 0 -2
BITMAP
64
98
00
00
00
00
00
00
00
00
00
00
00
00
00
00
ENDCHAR
STARTCHAR U+0343
ENCODING 835
SWIDTH 500 0
DWIDTH 8 0
BBX 8 16 0 -2
BITMAP
00
00
30
10
20
00
00
00
00
00
00
00
00
00
00
00
ENDCHAR
STARTCHAR U+0344
ENCODING 836
SWIDTH 500 0
DWIDTH 8 0
BBX 8 16 0 -2
BITMAP
10
54
10
00
00
00
00
00
00
00
00
00
00
00
00
00
ENDCHAR
STARTCHAR U+0345
ENCODING 837
SWIDTH 500 0
DWIDTH 8 0
BBX 8 16 0 -2
BITMAP
00
00
00
00
00
00
00
00
00
00
00
00
00
00
10
18
ENDCHAR
STARTCHAR U+0346
ENCODING 838
SWIDTH 500 0
DWIDTH 8 0
BBX 8 16 0 -2
BITMAP
3C
24
24
00
00
00
00
00
00
00
00
00
00
00
00
00
ENDCHAR
STARTCHAR U+0347
ENCODING 839
SWIDTH 500 0
DWIDTH 8 0
BBX 8 16 0 -2
BITMAP
00
00
00
00
00
00
00
00
00
00
00
00
00
3C
00
3C
ENDCHAR
STARTCHAR U+0348
ENCODING 840
SWIDTH 500 0
DWIDTH 8 0
BBX 8 16 0 -2
BITMAP
00
00
00
00
00
00
00
00
00
00
00
00
00
14
14
14
ENDCHAR
STARTCHAR U+0349
ENCODING 841
SWIDTH 500 0
DWIDTH 8 0
BBX 8 16 0 -2
BITMAP
00
00
00
00
00
00
00
00
00
00
00
00
00
3C
04
04
ENDCHAR
STARTCHAR U+034A
ENCODING 842
SWIDTH 500 0
DWIDTH 8 0
BBX 8 16 0 -2
BITMAP
04
79
9E
20
00
00
00
00
00
00
00
00
00
00
00
00
ENDCHAR
STARTCHAR U+034B
ENCODING 843
SWIDTH 500 0
DWIDTH 8 0
BBX 8 16 0 -2
BITMAP
04
71
8E
30
00
00
00
00
00
00
00
00
00
00
00
00
ENDCHAR
STARTCHAR U+034C
ENCODING 844
SWIDTH 500 0
DWIDTH 8 0
BBX 8 16 0 -2
BITMAP
32
4C
32
4C
00
00
00
00
00
00
00
00
00
00
00
00
ENDCHAR
STARTCHAR U+034D
ENCODING 845
SWIDTH 500 0
DWIDTH 8 0
BBX 8 16 0 -2
BITMAP
00
00
00
00
00
00
00
00
00
00
00
24
42
FF
42
24
ENDCHAR
STARTCHAR U+034E
ENCODING 846
SWIDTH 500 0
DWIDTH 8 0
BBX 8 16 0 -2
BITMAP
00
00
00
00
00
00
00
00
00
00
00
00
10
38
54
10
ENDCHAR
STARTCHAR U+0374
ENCODING 884
SWIDTH 500 0
DWIDTH 8 0
BBX 8 16 0 -2
BITMAP
00
00
00
00
0C
18
10
20
00
00
00
00
00
00
00
00
ENDCHAR
STARTCHAR U+0375
ENCODING 885
SWIDTH 500 0
DWIDTH 8 0
BBX 8 16 0 -2
BITMAP
00
00
00
00
00
00
00
00
00
00
00
00
0C
18
10
20
ENDCHAR
STARTCHAR U+037A
ENCODING 890
SWIDTH 500 0
DWIDTH 8 0
BBX 8 16 0 -2
BITMAP
00
00
00
00
00
00
00
00
00
00
00
00
00
00
10
18
ENDCHAR
STARTCHAR U+037E
ENCODING 894
SWIDTH 500 0
DWIDTH 8 0
BBX 8 16 0 -2
BITMAP
00
00
00
00
00
00
00
00
18
18
00
00
18
08
08
10
ENDCHAR
STARTCHAR U+0384
ENCODING 900
SWIDTH 500 0
DWIDTH 8 0
BBX 8 16 0 -2
BITMAP
10
10
10
00
00
00
00
00
00
00
00
00
00
00
00
00
ENDCHAR
STARTCHAR U+0385
ENCODING 901
SWIDTH 500 0
DWIDTH 8 0
BBX 8 16 0 -2
BITMAP
10
10
10
44
44
00
00
00
00
00
00
00
00
00
00
00
ENDCHAR
STARTCHAR U+0386
ENCODING 902
SWIDTH 500 0
DWIDTH 8 0
BBX 8 16 0 -2
BITMAP
40
40
40
00
18
24
24
42
42
7E
42
42
42
42
00
00
ENDCHAR
STARTCHAR U+0387
ENCODING 903
SWIDTH 500 0
DWIDTH 8 0
BBX 8 16 0 -2
BITMAP
00
00
00
00
00
00
00
00
08
1C
08
00
00
00
00
00
ENDCHAR
STARTCHAR U+0388
ENCODING 904
SWIDTH 500 0
DWIDTH 8 0
BBX 8 16 0 -2
BITMAP
40
40
40
00
7E
40
40
40
7C
40
40
40
40
7E
00
00
ENDCHAR
STARTCHAR U+0389
ENCODING 905
SWIDTH 500 0
DWIDTH 8 0
BBX 8 16 0 -2
BITMAP
40
40
40
00
42
42
42
42
7E
42
42
42
42
42
00
00
ENDCHAR
STARTCHAR U+038A
ENCODING 906
SWIDTH 500 0
DWIDTH 8 0
BBX 8 16 0 -2
BITMAP
40
40
40
00
3E
08
08
08
08
08
08
08
08
3E
00
00
ENDCHAR
STARTCHAR U+038C
ENCODING 908
SWIDTH 500 0
DWIDTH 8 0
BBX 8 16 0 -2
BITMAP
40
40
40
00
3C
42
42
42
42
42
42
42
42
3C
00
00
ENDCHAR
STARTCHAR U+038E
ENCODING 910
SWIDTH 500 0
DWIDTH 8 0
BBX 8 16 0 -2
BITMAP
40
40
40
00
41
41
22
22
14
08
08
08
08
08
00
00
ENDCHAR
STARTCHAR U+038F
ENCODING 911
SWIDTH 500 0
DWIDTH 8 0
BBX 8 16 0 -2
BITMAP
40
40
40
00
3E
41
41
41
41
41
41
22
14
14
77
00
ENDCHAR
STARTCHAR U+0390
ENCODING 912
SWIDTH 500 0
DWIDTH 8 0
BBX 8 16 0 -2
BITMAP
10
10
10
44
44
00
10
10
10
10
10
10
10
0C
00
00
ENDCHAR
STARTCHAR U+0391
ENCODING 913
SWIDTH 500 0
DWIDTH 8 0
BBX 8 16 0 -2
BITMAP
00
00
00
00
18
24
24
42
42
7E
42
42
42
42
00
00
ENDCHAR
STARTCHAR U+0392
ENCODING 914
SWIDTH 500 0
DWIDTH 8 0
BBX 8 16 0 -2
BITMAP
00
00
00
00
7C
42
42
42
7C
42
42
42
42
7C
00
00
ENDCHAR
STARTCHAR U+0393
ENCODING 915
SWIDTH 500 0
DWIDTH 8 0
BBX 8 16 0 -2
BITMAP
00
00
00
00
7E
40
40
40
40
40
40
40
40
40
00
00
ENDCHAR
STARTCHAR U+0394
ENCODING 916
SWIDTH 500 0
DWIDTH 8 0
BBX 8 16 0 -2
BITMAP
00
00
00
00
08
08
14
14
22
22
22
41
41
7F
00
00
ENDCHAR
STARTCHAR U+0395
ENCODING 917
SWIDTH 500 0
DWIDTH 8 0
BBX 8 16 0 -2
BITMAP
00
00
00
00
7E
40
40
40
7C
40
40
40
40
7E
00
00
ENDCHAR
STARTCHAR U+0396
ENCODING 918
SWIDTH 500 0
DWIDTH 8 0
BBX 8 16 0 -2
BITMAP
00
00
00
00
7E
02
02
04
08
10
20
40
40
7E
00
00
ENDCHAR
STARTCHAR U+0397
ENCODING 919
SWIDTH 500 0
DWIDTH 8 0
BBX 8 16 0 -2
BITMAP
00
00
00
00
42
42
42
42
7E
42
42
42
42
42
00
00
ENDCHAR
STARTCHAR U+0398
ENCODING 920
SWIDTH 500 0
DWIDTH 8 0
BBX 8 16 0 -2
BITMAP
00
00
00
00
3C
42
42
42
7E
42
42
42
42
3C
00
00
ENDCHAR
STARTCHAR U+0399
ENCODING 921
SWIDTH 500 0
DWIDTH 8 0
BBX 8 16 0 -2
BITMAP
00
00
00
00
3E
08
08
08
08
08
08
08
08
3E
00
00
ENDCHAR
STARTCHAR U+039A
ENCODING 922
SWIDTH 500 0
DWIDTH 8 0
BBX 8 16 0 -2
BITMAP
00
00
00
00
42
44
48
50
60
60
50
48
44
42
00
00
ENDCHAR
STARTCHAR U+039B
ENCODING 923
SWIDTH 500 0
DWIDTH 8 0
BBX 8 16 0 -2
BITMAP
00
00
00
00
08
08
14
14
22
22
22
41
41
41
00
00
ENDCHAR
STARTCHAR U+039C
ENCODING 924
SWIDTH 500 0
DWIDTH 8 0
BBX 8 16 0 -2
BITMAP
00
00
00
00
42
42
66
66
5A
5A
42
42
42
42
00
00
ENDCHAR
STARTCHAR U+039D
ENCODING 925
SWIDTH 500 0
DWIDTH 8 0
BBX 8 16 0 -2
BITMAP
00
00
00
00
42
62
62
52
52
4A
4A
46
46
42
00
00
ENDCHAR
STARTCHAR U+039E
ENCODING 926
SWIDTH 500 0
DWIDTH 8 0
BBX 8 16 0 -2
BITMAP
00
00
00
00
7E
00
00
00
3C
00
00
00
00
7E
00
00
ENDCHAR
STARTCHAR U+039F
ENCODING 927
SWIDTH 500 0
DWIDTH 8 0
BBX 8 16 0 -2
BITMAP
00
00
00
00
3C
42
42
42
42
42
42
42
42
3C
00
00
ENDCHAR
STARTCHAR U+03A0
ENCODING 928
SWIDTH 500 0
DWIDTH 8 0
BBX 8 16 0 -2
BITMAP
00
00
00
00
7F
22
22
22
22
22
22
22
22
22
00
00
ENDCHAR
STARTCHAR U+03A1
ENCODING 929
SWIDTH 500 0
DWIDTH 8 0
BBX 8 16 0 -2
BITMAP
00
00
00
00
7C
42
42
42
7C
40
40
40
40
40
00
00
ENDCHAR
STARTCHAR U+03A3
ENCODING 931
SWIDTH 500 0
DWIDTH 8 0
BBX 8 16 0 -2
BITMAP
00
00
00
00
7E
40
20
10
08
08
10
20
40
7E
00
00
ENDCHAR
STARTCHAR U+03A4
ENCODING 932
SWIDTH 500 0
DWIDTH 8 0
BBX 8 16 0 -2
BITMAP
00
00
00
00
7F
08
08
08
08
08
08
08
08
08
00
00
ENDCHAR
STARTCHAR U+03A5
ENCODING 933
SWIDTH 500 0
DWIDTH 8 0
BBX 8 16 0 -2
BITMAP
00
00
00
00
41
41
22
22
14
08
08
08
08
08
00
00
ENDCHAR
STARTCHAR U+03A6
ENCODING 934
SWIDTH 500 0
DWIDTH 8 0
BBX 8 16 0 -2
BITMAP
00
00
00
00
7F
08
3E
49
49
49
49
3E
08
7F
00
00
ENDCHAR
STARTCHAR U+03A7
ENCODING 935
SWIDTH 500 0
DWIDTH 8 0
BBX 8 16 0 -2
BITMAP
00
00
00
00
42
42
24
24
18
18
24
24
42
42
00
00
ENDCHAR
STARTCHAR U+03A8
ENCODING 936
SWIDTH 500 0
DWIDTH 8 0
BBX 8 16 0 -2
BITMAP
00
00
00
00
49
49
49
49
49
3E
08
08
08
08
00
00
ENDCHAR
STARTCHAR U+03A9
ENCODING 937
SWIDTH 500 0
DWIDTH 8 0
BBX 8 16 0 -2
BITMAP
00
00
00
00
3E
41
41
41
41
41
22
14
14
77
00
00
ENDCHAR
STARTCHAR U+03AA
ENCODING 938
SWIDTH 500 0
DWIDTH 8 0
BBX 8 16 0 -2
BITMAP
24
24
00
00
3E
08
08
08
08
08
08
08
08
3E
00
00
ENDCHAR
STARTCHAR U+03AB
ENCODING 939
SWIDTH 500 0
DWIDTH 8 0
BBX 8 16 0 -2
BITMAP
24
24
00
00
41
41
22
22
14
08
08
08
08
08
00
00
ENDCHAR
STARTCHAR U+03AC
ENCODING 940
SWIDTH 500 0
DWIDTH 8 0
BBX 8 16 0 -2
BITMAP
00
10
10
10
00
00
32
4A
44
44
44
44
4A
32
00
00
ENDCHAR
STARTCHAR U+03AD
ENCODING 941
SWIDTH 500 0
DWIDTH 8 0
BBX 8 16 0 -2
BITMAP
00
10
10
10
00
00
3E
40
40
3C
40
40
40
3E
00
00
ENDCHAR
STARTCHAR U+03AE
ENCODING 942
SWIDTH 500 0
DWIDTH 8 0
BBX 8 16 0 -2
BITMAP
00
10
10
10
00
00
5C
62
42
42
42
42
42
42
02
02
ENDCHAR
STARTCHAR U+03AF
ENCODING 943
SWIDTH 500 0
DWIDTH 8 0
BBX 8 16 0 -2
BITMAP
00
10
10
10
00
00
10
10
10
10
10
10
10
0C
00
00
ENDCHAR
STARTCHAR U+03B0
ENCODING 944
SWIDTH 500 0
DWIDTH 8 0
BBX 8 16 0 -2
BITMAP
10
10
10
44
44
00
42
42
42
42
42
42
42
3C
00
00
ENDCHAR
STARTCHAR U+03B1
ENCODING 945
SWIDTH 500 0
DWIDTH 8 0
BBX 8 16 0 -2
BITMAP
00
00
00
00
00
00
32
4A
44
44
44
44
4A
32
00
00
ENDCHAR
STARTCHAR U+03B2
ENCODING 946
SWIDTH 500 0
DWIDTH 8 0
BBX 8 16 0 -2
BITMAP
00
00
00
00
38
44
44
44
7C
42
42
42
62
5C
40
40
ENDCHAR
STARTCHAR U+03B3
ENCODING 947
SWIDTH 500 0
DWIDTH 8 0
BBX 8 16 0 -2
BITMAP
00
00
00
00
00
00
31
49
0A
04
08
08
10
10
00
00
ENDCHAR
STARTCHAR U+03B4
ENCODING 948
SWIDTH 500 0
DWIDTH 8 0
BBX 8 16 0 -2
BITMAP
00
00
00
00
1C
20
20
20
18
24
42
42
42
3C
00
00
ENDCHAR
STARTCHAR U+03B5
ENCODING 949
SWIDTH 500 0
DWIDTH 8 0
BBX 8 16 0 -2
BITMAP
00
00
00
00
00
00
3C
42
40
3C
40
40
42
3C
00
00
ENDCHAR
STARTCHAR U+03B6
ENCODING 950
SWIDTH 500 0
DWIDTH 8 0
BBX 8 16 0 -2
BITMAP
00
00
00
00
20
20
1C
08
10
20
20
20
20
1C
02
1C
ENDCHAR
STARTCHAR U+03B7
ENCODING 951
SWIDTH 500 0
DWIDTH 8 0
BBX 8 16 0 -2
BITMAP
00
00
00
00
00
00
5C
62
42
42
42
42
42
42
02
02
ENDCHAR
STARTCHAR U+03B8
ENCODING 952
SWIDTH 500 0
DWIDTH 8 0
BBX 8 16 0 -2
BITMAP
00
00
00
00
18
24
24
42
7E
42
42
24
24
18
00
00
ENDCHAR
STARTCHAR U+03B9
ENCODING 953
SWIDTH 500 0
DWIDTH 8 0
BBX 8 16 0 -2
BITMAP
00
00
00
00
00
00
10
10
10
10
10
10
10
0C
00
00
ENDCHAR
STARTCHAR U+03BA
ENCODING 954
SWIDTH 500 0
DWIDTH 8 0
BBX 8 16 0 -2
BITMAP
00
00
00
00
00
00
22
24
28
30
30
28
24
22
00
00
ENDCHAR
STARTCHAR U+03BB
ENCODING 955
SWIDTH 500 0
DWIDTH 8 0
BBX 8 16 0 -2
BITMAP
00
00
00
00
20
20
10
10
08
18
24
24
42
42
00
00
ENDCHAR
STARTCHAR U+03BC
ENCODING 956
SWIDTH 500 0
DWIDTH 8 0
BBX 8 16 0 -2
BITMAP
00
00
00
00
00
00
42
42
42
42
66
66
5A
42
40
40
ENDCHAR
STARTCHAR U+03BD
ENCODING 957
SWIDTH 500 0
DWIDTH 8 0
BBX 8 16 0 -2
BITMAP
00
00
00
00
00
00
42
42
42
44
44
48
50
60
00
00
ENDCHAR
STARTCHAR U+03BE
ENCODING 958
SWIDTH 500 0
DWIDTH 8 0
BBX 8 16 0 -2
BITMAP
00
00
00
00
40
40
3C
40
40
3C
40
40
3C
02
02
3C
ENDCHAR
STARTCHAR U+03BF
ENCODING 959
SWIDTH 500 0
DWIDTH 8 0
BBX 8 16 0 -2
BITMAP
00
00
00
00
00
00
3C
42
42
42
42
42
42
3C
00
00
ENDCHAR
STARTCHAR U+03C0
ENCODING 960
SWIDTH 500 0
DWIDTH 8 0
BBX 8 16 0 -2
BITMAP
00
00
00
00
00
00
7E
24
24
24
24
24
24
24
00
00
ENDCHAR
STARTCHAR U+03C1
ENCODING 961
SWIDTH 500 0
DWIDTH 8 0
BBX 8 16 0 -2
BITMAP
00
00
00
00
00
00
3C
42
42
42
42
42
62
5C
40
40
ENDCHAR
STARTCHAR U+03C2
ENCODING 962
SWIDTH 500 0
DWIDTH 8 0
BBX 8 16 0 -2
BITMAP
00
00
00
00
00
00
1E
20
40
40
40
20
1C
02
02
1C
ENDCHAR
STARTCHAR U+03C3
ENCODING 963
SWIDTH 500 0
DWIDTH 8 0
BBX 8 16 0 -2
BITMAP
00
00
00
00
00
00
3F
48
44
44
44
44
44
38
00
00
ENDCHAR
STARTCHAR U+03C4
ENCODING 964
SWIDTH 500 0
DWIDTH 8 0
BBX 8 16 0 -2
BITMAP
00
00
00
00
00
00
7E
10
10
10
10
10
10
0C
00
00
ENDCHAR
STARTCHAR U+03C5
ENCODING 965
SWIDTH 500 0
DWIDTH 8 0
BBX 8 16 0 -2
BITMAP
00
00
00
00
00
00
42
42
42
42
42
42
42
3C
00
00
ENDCHAR
STARTCHAR U+03C6
ENCODING 966
SWIDTH 500 0
DWIDTH 8 0
BBX 8 16 0 -2
BITMAP
00
00
00
00
00
00
3E
49
49
49
49
49
49
3E
08
08
ENDCHAR
STARTCHAR U+03C7
ENCODING 967
SWIDTH 500 0
DWIDTH 8 0
BBX 8 16 0 -2
BITMAP
00
00
00
00
00
00
42
42
24
24
18
18
24
24
42
42
ENDCHAR
STARTCHAR U+03C8
ENCODING 968
SWIDTH 500 0
DWIDTH 8 0
BBX 8 16 0 -2
BITMAP
00
00
00
00
00
00
00
00
49
49
49
49
49
3E
08
08
ENDCHAR
STARTCHAR U+03C9
ENCODING 969
SWIDTH 500 0
DWIDTH 8 0
BBX 8 16 0 -2
BITMAP
00
00
00
00
00
00
22
41
41
49
49
49
49
36
00
00
ENDCHAR
STARTCHAR U+03CA
ENCODING 970
SWIDTH 500 0
DWIDTH 8 0
BBX 8 16 0 -2
BITMAP
00
00
24
24
00
00
10
10
10
10
10
10
10
0C
00
00
ENDCHAR
STARTCHAR U+03CB
ENCODING 971
SWIDTH 500 0
DWIDTH 8 0
BBX 8 16 0 -2
BITMAP
00
00
24
24
00
00
42
42
42
42
42
42
42
3C
00
00
ENDCHAR
STARTCHAR U+03CC
ENCODING 972
SWIDTH 500 0
DWIDTH 8 0
BBX 8 16 0 -2
BITMAP
00
10
10
10
00
00
3C
42
42
42
42
42
42
3C
00
00
ENDCHAR
STARTCHAR U+03CD
ENCODING 973
SWIDTH 500 0
DWIDTH 8 0
BBX 8 16 0 -2
BITMAP
00
10
10
10
00
00
42
42
42
42
42
42
42
3C
00
00
ENDCHAR
STARTCHAR U+03CE
ENCODING 974
SWIDTH 500 0
DWIDTH 8 0
BBX 8 16 0 -2
BITMAP
00
08
08
08
00
00
22
41
41
49
49
49
49
36
00
00
ENDCHAR
STARTCHAR U+0401
ENCODING 1025
SWIDTH 500 0
DWIDTH 8 0
BBX 8 16 0 -2
BITMAP
24
24
00
00
7E
40
40
40
7C
40
40
40
40
7E
00
00
ENDCHAR
STARTCHAR U+0402
ENCODING 1026
SWIDTH 500 0
DWIDTH 8 0
BBX 8 16 0 -2
BITMAP
00
00
00
00
7E
10
10
10
1E
11
11
11
11
1E
00
00
ENDCHAR
STARTCHAR U+0403
ENCODING 1027
SWIDTH 500 0
DWIDTH 8 0
BBX 8 16 0 -2
BITMAP
0C
30
00
00
7E
40
40
40
40
40
40
40
40
40
00
00
ENDCHAR
STARTCHAR U+0404
ENCODING 1028
SWIDTH 500 0
DWIDTH 8 0
BBX 8 16 0 -2
BITMAP
00
00
00
00
1C
22
40
40
7C
40
40
40
22
1C
00
00
ENDCHAR
STARTCHAR U+0405
ENCODING 1029
SWIDTH 500 0
DWIDTH 8 0
BBX 8 16 0 -2
BITMAP
00
00
00
00
3C
42
42
40
30
0C
02
42
42
3C
00
00
ENDCHAR
STARTCHAR U+0406
ENCODING 1030
SWIDTH 500 0
DWIDTH 8 0
BBX 8 16 0 -2
BITMAP
00
00
00
00
3E
08
08
08
08
08
08
08
08
3E
00
00
ENDCHAR
STARTCHAR U+0407
ENCODING 1031
SWIDTH 500 0
DWIDTH 8 0
BBX 8 16 0 -2
BITMAP
24
24
00
00
3E
08
08
08
08
08
08
08
08
3E
00
00
ENDCHAR
STARTCHAR U+0408
ENCODING 1032
SWIDTH 500 0
DWIDTH 8 0
BBX 8 16 0 -2
BITMAP
00
00
00
00
0E
04
04
04
04
04
04
44
44
38
00
00
ENDCHAR
STARTCHAR U+0409
ENCODING 1033
SWIDTH 500 0
DWIDTH 8 0
BBX 8 16 0 -2
BITMAP
00
00
00
00
78
48
48
48
4E
49
49
49
49
8E
00
00
ENDCHAR
STARTCHAR U+040A
ENCODING 1034
SWIDTH 500 0
DWIDTH 8 0
BBX 8 16 0 -2
BITMAP
00
00
00
00
48
48
48
48
7E
49
49
49
49
4E
00
00
ENDCHAR
STARTCHAR U+040B
ENCODING 1035
SWIDTH 500 0
DWIDTH 8 0
BBX 8 16 0 -2
BITMAP
00
00
00
00
7E
10
10
10
1E
11
11
11
11
11
00
00
ENDCHAR
STARTCHAR U+040C
ENCODING 1036
SWIDTH 500 0
DWIDTH 8 0
BBX 8 16 0 -2
BITMAP
0C
30
00
00
40
46
48
50
60
60
50
48
44
42
00
00
ENDCHAR
STARTCHAR U+040E
ENCODING 1038
SWIDTH 500 0
DWIDTH 8 0
BBX 8 16 0 -2
BITMAP
42
42
3C
00
41
41
22
22
14
14
08
08
10
30
00
00
ENDCHAR
STARTCHAR U+040F
ENCODING 1039
SWIDTH 500 0
DWIDTH 8 0
BBX 8 16 0 -2
BITMAP
00
00
00
00
41
41
41
41
41
41
7F
08
08
08
00
00
ENDCHAR
STARTCHAR U+0410
ENCODING 1040
SWIDTH 500 0
DWIDTH 8 0
BBX 8 16 0 -2
BITMAP
00
00
00
00
18
24
24
42
42
7E
42
42
42
42
00
00
ENDCHAR
STARTCHAR U+0411
ENCODING 1041
SWIDTH 500 0
DWIDTH 8 0
BBX 8 16 0 -2
BITMAP
00
00
00
00
7C
40
40
40
7C
42
42
42
42
7C
00
00
ENDCHAR
STARTCHAR U+0412
ENCODING 1042
SWIDTH 500 0
DWIDTH 8 0
BBX 8 16 0 -2
BITMAP
00
00
00
00
7C
42
42
42
7C
42
42
42
42
7C
00
00
ENDCHAR
STARTCHAR U+0413
ENCODING 1043
SWIDTH 500 0
DWIDTH 8 0
BBX 8 16 0 -2
BITMAP
00
00
00
00
7E
40
40
40
40
40
40
40
40
40
00
00
ENDCHAR
STARTCHAR U+0414
ENCODING 1044
SWIDTH 500 0
DWIDTH 8 0
BBX 8 16 0 -2
BITMAP
00
00
00
00
0E
12
12
12
22
22
22
42
42
7F
01
01
ENDCHAR
STARTCHAR U+0415
ENCODING 1045
SWIDTH 500 0
DWIDTH 8 0
BBX 8 16 0 -2
BITMAP
00
00
00
00
7E
40
40
40
7C
40
40
40
40
7E
00
00
ENDCHAR
STARTCHAR U+0416
ENCODING 1046
SWIDTH 500 0
DWIDTH 8 0
BBX 8 16 0 -2
BITMAP
00
00
00
00
49
49
2A
2A
1C
1C
2A
2A
49
49
00
00
ENDCHAR
STARTCHAR U+0417
ENCODING 1047
SWIDTH 500 0
DWIDTH 8 0
BBX 8 16 0 -2
BITMAP
00
00
00
00
3C
42
02
02
3C
04
02
02
42
3C
00
00
ENDCHAR
STARTCHAR U+0418
ENCODING 1048
SWIDTH 500 0
DWIDTH 8 0
BBX 8 16 0 -2
BITMAP
00
00
00
00
42
46
46
4A
4A
52
52
62
62
42
00
00
ENDCHAR
STARTCHAR U+0419
ENCODING 1049
SWIDTH 500 0
DWIDTH 8 0
BBX 8 16 0 -2
BITMAP
42
42
3C
00
42
46
46
4A
4A
52
52
62
62
42
00
00
ENDCHAR
STARTCHAR U+041A
ENCODING 1050
SWIDTH 500 0
DWIDTH 8 0
BBX 8 16 0 -2
BITMAP
00
00
00
00
40
46
48
50
60
60
50
48
44
42
00
00
ENDCHAR
STARTCHAR U+041B
ENCODING 1051
SWIDTH 500 0
DWIDTH 8 0
BBX 8 16 0 -2
BITMAP
00
00
00
00
1E
12
12
12
12
12
12
22
22
42
00
00
ENDCHAR
STARTCHAR U+041C
ENCODING 1052
SWIDTH 500 0
DWIDTH 8 0
BBX 8 16 0 -2
BITMAP
00
00
00
00
42
42
66
66
5A
5A
42
42
42
42
00
00
ENDCHAR
STARTCHAR U+041D
ENCODING 1053
SWIDTH 500 0
DWIDTH 8 0
BBX 8 16 0 -2
BITMAP
00
00
00
00
42
42
42
42
7E
42
42
42
42
42
00
00
ENDCHAR
STARTCHAR U+041E
ENCODING 1054
SWIDTH 500 0
DWIDTH 8 0
BBX 8 16 0 -2
BITMAP
00
00
00
00
3C
42
42
42
42
42
42
42
42
3C
00
00
ENDCHAR
STARTCHAR U+041F
ENCODING 1055
SWIDTH 500 0
DWIDTH 8 0
BBX 8 16 0 -2
BITMAP
00
00
00
00
7E
42
42
42
42
42
42
42
42
42
00
00
ENDCHAR
STARTCHAR U+0420
ENCODING 1056
SWIDTH 500 0
DWIDTH 8 0
BBX 8 16 0 -2
BITMAP
00
00
00
00
7C
42
42
42
7C
40
40
40
40
40
00
00
ENDCHAR
STARTCHAR U+0421
ENCODING 1057
SWIDTH 500 0
DWIDTH 8 0
BBX 8 16 0 -2
BITMAP
00
00
00
00
3C
42
42
40
40
40
40
42
42
3C
00
00
ENDCHAR
STARTCHAR U+0422
ENCODING 1058
SWIDTH 500 0
DWIDTH 8 0
BBX 8 16 0 -2
BITMAP
00
00
00
00
7F
08
08
08
08
08
08
08
08
08
00
00
ENDCHAR
STARTCHAR U+0423
ENCODING 1059
SWIDTH 500 0
DWIDTH 8 0
BBX 8 16 0 -2
BITMAP
00
00
00
00
41
41
22
22
14
14
08
08
10
30
00
00
ENDCHAR
STARTCHAR U+0424
ENCODING 1060
SWIDTH 500 0
DWIDTH 8 0
BBX 8 16 0 -2
BITMAP
00
00
00
08
08
3E
49
49
49
49
49
3E
08
08
00
00
ENDCHAR
STARTCHAR U+0425
ENCODING 1061
SWIDTH 500 0
DWIDTH 8 0
BBX 8 16 0 -2
BITMAP
00
00
00
00
42
42
24
24
18
18
24
24
42
42
00
00
ENDCHAR
STARTCHAR U+0426
ENCODING 1062
SWIDTH 500 0
DWIDTH 8 0
BBX 8 16 0 -2
BITMAP
00
00
00
00
42
42
42
42
42
42
42
42
42
7F
01
01
ENDCHAR
STARTCHAR U+0427
ENCODING 1063
SWIDTH 500 0
DWIDTH 8 0
BBX 8 16 0 -2
BITMAP
00
00
00
00
42
42
42
42
42
46
3A
02
02
02
00
00
ENDCHAR
STARTCHAR U+0428
ENCODING 1064
SWIDTH 500 0
DWIDTH 8 0
BBX 8 16 0 -2
BITMAP
00
00
00
00
49
49
49
49
49
49
49
49
49
7F
00
00
ENDCHAR
STARTCHAR U+0429
ENCODING 1065
SWIDTH 500 0
DWIDTH 8 0
BBX 8 16 0 -2
BITMAP
00
00
00
00
49
49
49
49
49
49
49
49
49
7F
01
01
ENDCHAR
STARTCHAR U+042A
ENCODING 1066
SWIDTH 500 0
DWIDTH 8 0
BBX 8 16 0 -2
BITMAP
00
00
00
00
70
10
10
10
1E
11
11
11
11
1E
00
00
ENDCHAR
STARTCHAR U+042B
ENCODING 1067
SWIDTH 500 0
DWIDTH 8 0
BBX 8 16 0 -2
BITMAP
00
00
00
00
42
42
42
42
72
4A
4A
4A
4A
72
00
00
ENDCHAR
STARTCHAR U+042C
ENCODING 1068
SWIDTH 500 0
DWIDTH 8 0
BBX 8 16 0 -2
BITMAP
00
00
00
00
40
40
40
40
7C
42
42
42
42
7C
00
00
ENDCHAR
STARTCHAR U+042D
ENCODING 1069
SWIDTH 500 0
DWIDTH 8 0
BBX 8 16 0 -2
BITMAP
00
00
00
00
38
44
02
02
3E
02
02
02
44
38
00
00
ENDCHAR
STARTCHAR U+042E
ENCODING 1070
SWIDTH 500 0
DWIDTH 8 0
BBX 8 16 0 -2
BITMAP
00
00
00
00
4C
52
52
52
72
52
52
52
52
4C
00
00
ENDCHAR
STARTCHAR U+042F
ENCODING 1071
SWIDTH 500 0
DWIDTH 8 0
BBX 8 16 0 -2
BITMAP
00
00
00
00
3E
42
42
42
3E
12
22
22
42
42
00
00
ENDCHAR
STARTCHAR U+0430
ENCODING 1072
SWIDTH 500 0
DWIDTH 8 0
BBX 8 16 0 -2
BITMAP
00
00
00
00
00
00
3C
42
02
3E
42
42
46
3A
00
00
ENDCHAR
STARTCHAR U+0431
ENCODING 1073
SWIDTH 500 0
DWIDTH 8 0
BBX 8 16 0 -2
BITMAP
00
00
00
00
00
00
7C
40
40
7C
42
42
42
7C
00
00
ENDCHAR
STARTCHAR U+0432
ENCODING 1074
SWIDTH 500 0
DWIDTH 8 0
BBX 8 16 0 -2
BITMAP
00
00
00
00
00
00
7C
42
42
7C
42
42
42
7C
00
00
ENDCHAR
STARTCHAR U+0433
ENCODING 1075
SWIDTH 500 0
DWIDTH 8 0
BBX 8 16 0 -2
BITMAP
00
00
00
00
00
00
7E
40
40
40
40
40
40
40
00
00
ENDCHAR
STARTCHAR U+0434
ENCODING 1076
SWIDTH 500 0
DWIDTH 8 0
BBX 8 16 0 -2
BITMAP
00
00
00
00
00
00
1E
12
22
22
42
42
42
7F
01
00
ENDCHAR
STARTCHAR U+0435
ENCODING 1077
SWIDTH 500 0
DWIDTH 8 0
BBX 8 16 0 -2
BITMAP
00
00
00
00
00
00
3C
42
42
7E
40
40
42
3C
00
00
ENDCHAR
STARTCHAR U+0436
ENCODING 1078
SWIDTH 500 0
DWIDTH 8 0
BBX 8 16 0 -2
BITMAP
00
00
00
00
00
00
49
49
2A
1C
1C
2A
49
49
00
00
ENDCHAR
STARTCHAR U+0437
ENCODING 1079
SWIDTH 500 0
DWIDTH 8 0
BBX 8 16 0 -2
BITMAP
00
00
00
00
00
00
3C
42
02
3C
04
02
42
3C
00
00
ENDCHAR
STARTCHAR U+0438
ENCODING 1080
SWIDTH 500 0
DWIDTH 8 0
BBX 8 16 0 -2
BITMAP
00
00
00
00
00
00
46
46
4A
4A
52
52
62
62
00
00
ENDCHAR
STARTCHAR U+0439
ENCODING 1081
SWIDTH 500 0
DWIDTH 8 0
BBX 8 16 0 -2
BITMAP
00
42
42
3C
00
00
46
46
4A
4A
52
52
62
62
00
00
ENDCHAR
STARTCHAR U+043A
ENCODING 1082
SWIDTH 500 0
DWIDTH 8 0
BBX 8 16 0 -2
BITMAP
00
00
00
00
00
00
46
48
50
60
50
48
44
42
00
00
ENDCHAR
STARTCHAR U+043B
ENCODING 1083
SWIDTH 500 0
DWIDTH 8 0
BBX 8 16 0 -2
BITMAP
00
00
00
00
00
00
1E
12
12
12
12
22
22
42
00
00
ENDCHAR
STARTCHAR U+043C
ENCODING 1084
SWIDTH 500 0
DWIDTH 8 0
BBX 8 16 0 -2
BITMAP
00
00
00
00
00
00
42
66
66
5A
5A
42
42
42
00
00
ENDCHAR
STARTCHAR U+043D
ENCODING 1085
SWIDTH 500 0
DWIDTH 8 0
BBX 8 16 0 -2
BITMAP
00
00
00
00
00
00
42
42
42
7E
42
42
42
42
00
00
ENDCHAR
STARTCHAR U+043E
ENCODING 1086
SWIDTH 500 0
DWIDTH 8 0
BBX 8 16 0 -2
BITMAP
00
00
00
00
00
00
3C
42
42
42
42
42
42
3C
00
00
ENDCHAR
STARTCHAR U+043F
ENCODING 1087
SWIDTH 500 0
DWIDTH 8 0
BBX 8 16 0 -2
BITMAP
00
00
00
00
00
00
7E
42
42
42
42
42
42
42
00
00
ENDCHAR
STARTCHAR U+0440
ENCODING 1088
SWIDTH 500 0
DWIDTH 8 0
BBX 8 16 0 -2
BITMAP
00
00
00
00
00
00
5C
62
42
42
42
42
62
5C
40
40
ENDCHAR
STARTCHAR U+0441
ENCODING 1089
SWIDTH 500 0
DWIDTH 8 0
BBX 8 16 0 -2
BITMAP
00
00
00
00
00
00
3C
42
40
40
40
40
42
3C
00
00
ENDCHAR
STARTCHAR U+0442
ENCODING 1090
SWIDTH 500 0
DWIDTH 8 0
BBX 8 16 0 -2
BITMAP
00
00
00
00
00
00
7F
08
08
08
08
08
08
08
00
00
ENDCHAR
STARTCHAR U+0443
ENCODING 1091
SWIDTH 500 0
DWIDTH 8 0
BBX 8 16 0 -2
BITMAP
00
00
00
00
00
00
42
42
24
24
18
18
10
10
20
60
ENDCHAR
STARTCHAR U+0444
ENCODING 1092
SWIDTH 500 0
DWIDTH 8 0
BBX 8 16 0 -2
BITMAP
00
00
00
00
00
08
08
3E
49
49
49
49
3E
08
08
00
ENDCHAR
STARTCHAR U+0445
ENCODING 1093
SWIDTH 500 0
DWIDTH 8 0
BBX 8 16 0 -2
BITMAP
00
00
00
00
00
00
42
42
24
18
18
24
42
42
00
00
ENDCHAR
STARTCHAR U+0446
ENCODING 1094
SWIDTH 500 0
DWIDTH 8 0
BBX 8 16 0 -2
BITMAP
00
00
00
00
00
00
42
42
42
42
42
42
42
7F
01
01
ENDCHAR
STARTCHAR U+0447
ENCODING 1095
SWIDTH 500 0
DWIDTH 8 0
BBX 8 16 0 -2
BITMAP
00
00
00
00
00
00
42
42
42
42
46
3A
02
02
00
00
ENDCHAR
STARTCHAR U+0448
ENCODING 1096
SWIDTH 500 0
DWIDTH 8 0
BBX 8 16 0 -2
BITMAP
00
00
00
00
00
00
49
49
49
49
49
49
49
7F
00
00
ENDCHAR
STARTCHAR U+0449
ENCODING 1097
SWIDTH 500 0
DWIDTH 8 0
BBX 8 16 0 -2
BITMAP
00
00
00
00
00
00
49
49
49
49
49
49
49
7F
01
01
ENDCHAR
STARTCHAR U+044A
ENCODING 1098
SWIDTH 500 0
DWIDTH 8 0
BBX 8 16 0 -2
BITMAP
00
00
00
00
00
00
70
10
10
1E
11
11
11
1E
00
00
ENDCHAR
STARTCHAR U+044B
ENCODING 1099
SWIDTH 500 0
DWIDTH 8 0
BBX 8 16 0 -2
BITMAP
00
00
00
00
00
00
42
42
42
72
4A
4A
4A
72
00
00
ENDCHAR
STARTCHAR U+044C
ENCODING 1100
SWIDTH 500 0
DWIDTH 8 0
BBX 8 16 0 -2
BITMAP
00
00
00
00
00
00
40
40
40
7C
42
42
42
7C
00
00
ENDCHAR
STARTCHAR U+044D
ENCODING 1101
SWIDTH 500 0
DWIDTH 8 0
BBX 8 16 0 -2
BITMAP
00
00
00
00
00
00
38
44
02
3E
02
02
44
38
00
00
ENDCHAR
STARTCHAR U+044E
ENCODING 1102
SWIDTH 500 0
DWIDTH 8 0
BBX 8 16 0 -2
BITMAP
00
00
00
00
00
00
4C
52
52
72
52
52
52
4C
00
00
ENDCHAR
STARTCHAR U+044F
ENCODING 1103
SWIDTH 500 0
DWIDTH 8 0
BBX 8 16 0 -2
BITMAP
00
00
00
00
00
00
3E
42
42
42
3E
12
22
42
00
00
ENDCHAR
STARTCHAR U+0451
ENCODING 1105
SWIDTH 500 0
DWIDTH 8 0
BBX 8 16 0 -2
BITMAP
00
00
24
24
00
00
3C
42
42
7E
40
40
42
3C
00
00
ENDCHAR
STARTCHAR U+0452
ENCODING 1106
SWIDTH 500 0
DWIDTH 8 0
BBX 8 16 0 -2
BITMAP
00
00
00
00
20
20
78
20
20
3C
22
22
22
22
0C
00
ENDCHAR
STARTCHAR U+0453
ENCODING 1107
SWIDTH 500 0
DWIDTH 8 0
BBX 8 16 0 -2
BITMAP
00
00
0C
30
00
00
7E
40
40
40
40
40
40
40
00
00
ENDCHAR
STARTCHAR U+0454
ENCODING 1108
SWIDTH 500 0
DWIDTH 8 0
BBX 8 16 0 -2
BITMAP
00
00
00
00
00
00
1C
22
40
7C
40
40
22
1C
00
00
ENDCHAR
STARTCHAR U+0455
ENCODING 1109
SWIDTH 500 0
DWIDTH 8 0
BBX 8 16 0 -2
BITMAP
00
00
00
00
00
00
3C
42
40
30
0C
02
42
3C
00
00
ENDCHAR
STARTCHAR U+0456
ENCODING 1110
SWIDTH 500 0
DWIDTH 8 0
BBX 8 16 0 -2
BITMAP
00
00
00
08
08
00
18
08
08
08
08
08
08
3E
00
00
ENDCHAR
STARTCHAR U+0457
ENCODING 1111
SWIDTH 500 0
DWIDTH 8 0
BBX 8 16 0 -2
BITMAP
00
00
00
24
24
00
18
08
08
08
08
08
08
3E
00
00
ENDCHAR
STARTCHAR U+0458
ENCODING 1112
SWIDTH 500 0
DWIDTH 8 0
BBX 8 16 0 -2
BITMAP
00
00
00
04
04
00
0C
04
04
04
04
04
04
04
48
30
ENDCHAR
STARTCHAR U+0459
ENCODING 1113
SWIDTH 500 0
DWIDTH 8 0
BBX 8 16 0 -2
BITMAP
00
00
00
00
00
00
78
48
48
4E
49
49
49
8E
00
00
ENDCHAR
STARTCHAR U+045A
ENCODING 1114
SWIDTH 500 0
DWIDTH 8 0
BBX 8 16 0 -2
BITMAP
00
00
00
00
00
00
48
48
48
7E
49
49
49
4E
00
00
ENDCHAR
STARTCHAR U+045B
ENCODING 1115
SWIDTH 500 0
DWIDTH 8 0
BBX 8 16 0 -2
BITMAP
00
00
00
00
20
20
78
20
20
2C
32
22
22
22
00
00
ENDCHAR
STARTCHAR U+045C
ENCODING 1116
SWIDTH 500 0
DWIDTH 8 0
BBX 8 16 0 -2
BITMAP
00
00
0C
30
00
00
46
48
50
60
50
48
44
42
00
00
ENDCHAR
STARTCHAR U+045E
ENCODING 1118
SWIDTH 500 0
DWIDTH 8 0
BBX 8 16 0 -2
BITMAP
00
42
42
3C
00
00
42
42
24
24
18
18
10
10
20
60
ENDCHAR
STARTCHAR U+045F
ENCODING 1119
SWIDTH 500 0
DWIDTH 8 0
BBX 8 16 0 -2
BITMAP
00
00
00
00
00
00
22
22
22
22
22
22
3E
08
08
08
ENDCHAR
STARTCHAR U+0460
ENCODING 1120
SWIDTH 500 0
DWIDTH 8 0
BBX 8 16 0 -2
BITMAP
00
00
00
00
36
41
41
41
41
49
49
49
49
36
00
00
ENDCHAR
STARTCHAR U+0461
ENCODING 1121
SWIDTH 500 0
DWIDTH 8 0
BBX 8 16 0 -2
BITMAP
00
00
00
00
00
00
22
41
41
49
49
49
49
36
00
00
ENDCHAR
STARTCHAR U+0462
ENCODING 1122
SWIDTH 500 0
DWIDTH 8 0
BBX 8 16 0 -2
BITMAP
00
00
00
00
10
7C
10
10
1E
11
11
11
11
1E
00
00
ENDCHAR
STARTCHAR U+0463
ENCODING 1123
SWIDTH 500 0
DWIDTH 8 0
BBX 8 16 0 -2
BITMAP
00
00
00
00
20
20
78
20
20
3C
22
22
22
3C
00
00
ENDCHAR
STARTCHAR U+0464
ENCODING 1124
SWIDTH 500 0
DWIDTH 8 0
BBX 8 16 0 -2
BITMAP
00
00
00
00
46
49
50
50
7E
50
50
50
49
46
00
00
ENDCHAR
STARTCHAR U+0465
ENCODING 1125
SWIDTH 500 0
DWIDTH 8 0
BBX 8 16 0 -2
BITMAP
00
00
00
00
00
00
46
49
50
7E
50
50
49
46
00
00
ENDCHAR
STARTCHAR U+0466
ENCODING 1126
SWIDTH 500 0
DWIDTH 8 0
BBX 8 16 0 -2
BITMAP
00
00
00
00
08
08
14
14
22
36
2A
49
49
49
00
00
ENDCHAR
STARTCHAR U+0467
ENCODING 1127
SWIDTH 500 0
DWIDTH 8 0
BBX 8 16 0 -2
BITMAP
00
00
00
00
00
00
08
14
14
22
36
49
49
49
00
00
ENDCHAR
STARTCHAR U+0468
ENCODING 1128
SWIDTH 500 0
DWIDTH 8 0
BBX 8 16 0 -2
BITMAP
00
00
00
00
48
48
54
54
52
76
6A
49
49
49
00
00
ENDCHAR
STARTCHAR U+0469
ENCODING 1129
SWIDTH 500 0
DWIDTH 8 0
BBX 8 16 0 -2
BITMAP
00
00
00
00
00
00
48
54
54
52
76
49
49
49
00
00
ENDCHAR
STARTCHAR U+046A
ENCODING 1130
SWIDTH 500 0
DWIDTH 8 0
BBX 8 16 0 -2
BITMAP
00
00
00
00
3E
22
22
14
08
1C
2A
49
49
49
00
00
ENDCHAR
STARTCHAR U+046B
ENCODING 1131
SWIDTH 500 0
DWIDTH 8 0
BBX 8 16 0 -2
BITMAP
00
00
00
00
00
00
3E
22
14
08
3E
49
49
49
00
00
ENDCHAR
STARTCHAR U+046C
ENCODING 1132
SWIDTH 500 0
DWIDTH 8 0
BBX 8 16 0 -2
BITMAP
00
00
00
00
5F
51
51
4A
74
4E
55
55
55
55
00
00
ENDCHAR
STARTCHAR U+046D
ENCODING 1133
SWIDTH 500 0
DWIDTH 8 0
BBX 8 16 0 -2
BITMAP
00
00
00
00
00
00
5F
51
4A
74
4E
55
55
55
00
00
ENDCHAR
STARTCHAR U+046E
ENCODING 1134
SWIDTH 500 0
DWIDTH 8 0
BBX 8 16 0 -2
BITMAP
00
00
24
18
3C
42
02
02
3C
04
02
02
02
3C
40
40
ENDCHAR
STARTCHAR U+046F
ENCODING 1135
SWIDTH 500 0
DWIDTH 8 0
BBX 8 16 0 -2
BITMAP
00
00
00
24
18
00
3C
42
02
3C
04
02
02
3C
40
40
ENDCHAR
STARTCHAR U+0470
ENCODING 1136
SWIDTH 500 0
DWIDTH 8 0
BBX 8 16 0 -2
BITMAP
00
00
00
00
49
49
49
49
49
3E
08
08
08
08
00
00
ENDCHAR
STARTCHAR U+0471
ENCODING 1137
SWIDTH 500 0
DWIDTH 8 0
BBX 8 16 0 -2
BITMAP
00
00
00
00
00
00
00
00
49
49
49
49
49
3E
08
08
ENDCHAR
STARTCHAR U+0472
ENCODING 1138
SWIDTH 500 0
DWIDTH 8 0
BBX 8 16 0 -2
BITMAP
00
00
00
00
3C
42
42
42
7E
42
42
42
42
3C
00
00
ENDCHAR
STARTCHAR U+0473
ENCODING 1139
SWIDTH 500 0
DWIDTH 8 0
BBX 8 16 0 -2
BITMAP
00
00
00
00
00
00
3C
42
42
7E
42
42
42
3C
00
00
ENDCHAR
STARTCHAR U+0474
ENCODING 1140
SWIDTH 500 0
DWIDTH 8 0
BBX 8 16 0 -2
BITMAP
00
00
00
00
43
44
44
44
28
28
28
10
10
10
00
00
ENDCHAR
STARTCHAR U+0475
ENCODING 1141
SWIDTH 500 0
DWIDTH 8 0
BBX 8 16 0 -2
BITMAP
00
00
00
00
00
00
46
48
48
28
28
28
10
10
00
00
ENDCHAR
STARTCHAR U+0476
ENCODING 1142
SWIDTH 500 0
DWIDTH 8 0
BBX 8 16 0 -2
BITMAP
66
11
00
00
43
44
44
44
28
28
28
10
10
10
00
00
ENDCHAR
STARTCHAR U+0477
ENCODING 1143
SWIDTH 500 0
DWIDTH 8 0
BBX 8 16 0 -2
BITMAP
00
00
66
11
00
00
46
48
48
28
28
28
10
10
00
00
ENDCHAR
STARTCHAR U+0478
ENCODING 1144
SWIDTH 500 0
DWIDTH 8 0
BBX 8 16 0 -2
BITMAP
00
00
00
00
20
50
59
59
59
55
56
54
54
24
08
08
ENDCHAR
STARTCHAR U+0479
ENCODING 1145
SWIDTH 500 0
DWIDTH 8 0
BBX 8 16 0 -2
BITMAP
00
00
00
00
00
00
29
59
59
55
56
54
54
24
08
08
ENDCHAR
STARTCHAR U+047A
ENCODING 1146
SWIDTH 500 0
DWIDTH 8 0
BBX 8 16 0 -2
BITMAP
00
00
00
08
3E
49
41
41
41
41
41
41
49
3E
08
00
ENDCHAR
STARTCHAR U+047B
ENCODING 1147
SWIDTH 500 0
DWIDTH 8 0
BBX 8 16 0 -2
BITMAP
00
00
00
00
00
08
3E
49
41
41
41
41
49
3E
08
00
ENDCHAR
STARTCHAR U+047C
ENCODING 1148
SWIDTH 500 0
DWIDTH 8 0
BBX 8 16 0 -2
BITMAP
3C
43
18
00
36
41
41
41
41
49
49
49
49
36
00
00
ENDCHAR
STARTCHAR U+047D
ENCODING 1149
SWIDTH 500 0
DWIDTH 8 0
BBX 8 16 0 -2
BITMAP
00
00
3C
43
18
00
22
41
41
49
49
49
49
36
00
00
ENDCHAR
STARTCHAR U+047E
ENCODING 1150
SWIDTH 500 0
DWIDTH 8 0
BBX 8 16 0 -2
BITMAP
7F
08
00
00
36
41
41
41
41
49
49
49
49
36
00
00
ENDCHAR
STARTCHAR U+047F
ENCODING 1151
SWIDTH 500 0
DWIDTH 8 0
BBX 8 16 0 -2
BITMAP
00
00
7F
08
00
00
22
41
41
49
49
49
49
36
00
00
ENDCHAR
STARTCHAR U+0480
ENCODING 1152
SWIDTH 500 0
DWIDTH 8 0
BBX 8 16 0 -2
BITMAP
00
00
00
00
3C
42
42
40
40
40
40
40
3C
04
04
04
ENDCHAR
STARTCHAR U+0481
ENCODING 1153
SWIDTH 500 0
DWIDTH 8 0
BBX 8 16 0 -2
BITMAP
00
00
00
00
00
00
3C
42
42
40
40
40
3C
04
04
04
ENDCHAR
STARTCHAR U+0482
ENCODING 1154
SWIDTH 500 0
DWIDTH 8 0
BBX 8 16 0 -2
BITMAP
00
00
00
00
00
00
12
0C
44
2A
11
18
24
00
00
00
ENDCHAR
STARTCHAR U+0490
ENCODING 1168
SWIDTH 500 0
DWIDTH 8 0
BBX 8 16 0 -2
BITMAP
00
00
02
02
7E
40
40
40
40
40
40
40
40
40
00
00
ENDCHAR
STARTCHAR U+0491
ENCODING 1169
SWIDTH 500 0
DWIDTH 8 0
BBX 8 16 0 -2
BITMAP
00
00
00
00
02
02
7E
40
40
40
40
40
40
40
00
00
ENDCHAR
STARTCHAR U+0492
ENCODING 1170
SWIDTH 500 0
DWIDTH 8 0
BBX 8 16 0 -2
BITMAP
00
00
00
00
1F
10
10
10
10
7C
10
10
10
10
00
00
ENDCHAR
STARTCHAR U+0493
ENCODING 1171
SWIDTH 500 0
DWIDTH 8 0
BBX 8 16 0 -2
BITMAP
00
00
00
00
00
00
1F
10
10
10
7C
10
10
10
00
00
ENDCHAR
STARTCHAR U+0494
ENCODING 1172
SWIDTH 500 0
DWIDTH 8 0
BBX 8 16 0 -2
BITMAP
00
00
00
00
7E
40
40
40
40
7C
42
42
42
42
0C
00
ENDCHAR
STARTCHAR U+0495
ENCODING 1173
SWIDTH 500 0
DWIDTH 8 0
BBX 8 16 0 -2
BITMAP
00
00
00
00
00
00
7E
40
40
40
7C
42
42
42
0C
00
ENDCHAR
STARTCHAR U+0496
ENCODING 1174
SWIDTH 500 0
DWIDTH 8 0
BBX 8 16 0 -2
BITMAP
00
00
00
00
49
49
2A
2A
1C
1C
2A
2A
49
49
01
01
ENDCHAR
STARTCHAR U+0497
ENCODING 1175
SWIDTH 500 0
DWIDTH 8 0
BBX 8 16 0 -2
BITMAP
00
00
00
00
00
00
49
49
2A
1C
1C
2A
49
49
01
01
ENDCHAR
STARTCHAR U+0498
ENCODING 1176
SWIDTH 500 0
DWIDTH 8 0
BBX 8 16 0 -2
BITMAP
00
00
00
00
3C
42
02
02
3C
04
02
02
42
3C
08
30
ENDCHAR
STARTCHAR U+0499
ENCODING 1177
SWIDTH 500 0
DWIDTH 8 0
BBX 8 16 0 -2
BITMAP
00
00
00
00
00
00
3C
42
02
3C
04
02
42
3C
08
30
ENDCHAR
STARTCHAR U+049A
ENCODING 1178
SWIDTH 500 0
DWIDTH 8 0
BBX 8 16 0 -2
BITMAP
00
00
00
00
40
46
48
50
60
60
50
48
44
42
02
02
ENDCHAR
STARTCHAR U+049B
ENCODING 1179
SWIDTH 500 0
DWIDTH 8 0
BBX 8 16 0 -2
BITMAP
00
00
00
00
00
00
46
48
50
60
50
48
44
42
02
02
ENDCHAR
STARTCHAR U+049C
ENCODING 1180
SWIDTH 500 0
DWIDTH 8 0
BBX 8 16 0 -2
BITMAP
00
00
00
00
40
43
54
54
78
54
54
54
42
41
00
00
ENDCHAR
STARTCHAR U+049D
ENCODING 1181
SWIDTH 500 0
DWIDTH 8 0
BBX 8 16 0 -2
BITMAP
00
00
00
00
00
00
43
54
54
78
54
54
42
41
00
00
ENDCHAR
STARTCHAR U+049E
ENCODING 1182
SWIDTH 500 0
DWIDTH 8 0
BBX 8 16 0 -2
BITMAP
00
00
00
00
20
73
24
28
30
30
28
24
22
21
00
00
ENDCHAR
STARTCHAR U+049F
ENCODING 1183
SWIDTH 500 0
DWIDTH 8 0
BBX 8 16 0 -2
BITMAP
00
00
00
00
00
00
23
74
28
30
28
24
22
21
00
00
ENDCHAR
STARTCHAR U+04A0
ENCODING 1184
SWIDTH 500 0
DWIDTH 8 0
BBX 8 16 0 -2
BITMAP
00
00
00
00
E0
23
24
28
30
30
28
24
22
21
00
00
ENDCHAR
STARTCHAR U+04A1
ENCODING 1185
SWIDTH 500 0
DWIDTH 8 0
BBX 8 16 0 -2
BITMAP
00
00
00
00
00
00
E3
24
28
30
28
24
22
21
00
00
ENDCHAR
STARTCHAR U+04A2
ENCODING 1186
SWIDTH 500 0
DWIDTH 8 0
BBX 8 16 0 -2
BITMAP
00
00
00
00
42
42
42
42
7E
42
42
42
42
43
01
01
ENDCHAR
STARTCHAR U+04A3
ENCODING 1187
SWIDTH 500 0
DWIDTH 8 0
BBX 8 16 0 -2
BITMAP
00
00
00
00
00
00
42
42
42
7E
42
42
42
43
01
01
ENDCHAR
STARTCHAR U+04A4
ENCODING 1188
SWIDTH 500 0
DWIDTH 8 0
BBX 8 16 0 -2
BITMAP
00
00
00
00
47
44
44
44
7C
44
44
44
44
44
00
00
ENDCHAR
STARTCHAR U+04A5
ENCODING 1189
SWIDTH 500 0
DWIDTH 8 0
BBX 8 16 0 -2
BITMAP
00
00
00
00
00
00
47
44
44
7C
44
44
44
44
00
00
ENDCHAR
STARTCHAR U+04A6
ENCODING 1190
SWIDTH 500 0
DWIDTH 8 0
BBX 8 16 0 -2
BITMAP
00
00
00
00
78
48
48
48
48
4E
49
49
49
49
01
06
ENDCHAR
STARTCHAR U+04A7
ENCODING 1191
SWIDTH 500 0
DWIDTH 8 0
BBX 8 16 0 -2
BITMAP
00
00
00
00
00
00
78
48
48
48
4E
49
49
49
01
06
ENDCHAR
STARTCHAR U+04A8
ENCODING 1192
SWIDTH 500 0
DWIDTH 8 0
BBX 8 16 0 -2
BITMAP
00
00
00
00
1C
20
40
4C
52
52
52
52
2C
18
06
00
ENDCHAR
STARTCHAR U+04A9
ENCODING 1193
SWIDTH 500 0
DWIDTH 8 0
BBX 8 16 0 -2
BITMAP
00
00
00
00
00
00
1C
20
4C
52
52
52
2C
18
06
00
ENDCHAR
STARTCHAR U+04AA
ENCODING 1194
SWIDTH 500 0
DWIDTH 8 0
BBX 8 16 0 -2
BITMAP
00
00
00
00
3C
42
42
40
40
40
40
42
42
3C
10
0C
ENDCHAR
STARTCHAR U+04AB
ENCODING 1195
SWIDTH 500 0
DWIDTH 8 0
BBX 8 16 0 -2
BITMAP
00
00
00
00
00
00
3C
42
42
40
40
42
42
3C
10
0C
ENDCHAR
STARTCHAR U+04AC
ENCODING 1196
SWIDTH 500 0
DWIDTH 8 0
BBX 8 16 0 -2
BITMAP
00
00
00
00
7F
08
08
08
08
08
08
08
08
0C
04
04
ENDCHAR
STARTCHAR U+04AD
ENCODING 1197
SWIDTH 500 0
DWIDTH 8 0
BBX 8 16 0 -2
BITMAP
00
00
00
00
00
00
7F
08
08
08
08
08
08
0C
04
04
ENDCHAR
STARTCHAR U+04AE
ENCODING 1198
SWIDTH 500 0
DWIDTH 8 0
BBX 8 16 0 -2
BITMAP
00
00
00
00
41
41
22
22
14
08
08
08
08
08
00
00
ENDCHAR
STARTCHAR U+04AF
ENCODING 1199
SWIDTH 500 0
DWIDTH 8 0
BBX 8 16 0 -2
BITMAP
00
00
00
00
00
00
22
22
22
14
14
08
08
08
08
08
ENDCHAR
STARTCHAR U+04B0
ENCODING 1200
SWIDTH 500 0
DWIDTH 8 0
BBX 8 16 0 -2
BITMAP
00
00
00
00
41
41
22
22
14
08
08
3E
08
08
00
00
ENDCHAR
STARTCHAR U+04B1
ENCODING 1201
SWIDTH 500 0
DWIDTH 8 0
BBX 8 16 0 -2
BITMAP
00
00
00
00
00
00
22
22
22
14
08
08
3E
08
00
00
ENDCHAR
STARTCHAR U+04B2
ENCODING 1202
SWIDTH 500 0
DWIDTH 8 0
BBX 8 16 0 -2
BITMAP
00
00
00
00
42
42
24
24
18
18
24
24
42
43
01
01
ENDCHAR
STARTCHAR U+04B3
ENCODING 1203
SWIDTH 500 0
DWIDTH 8 0
BBX 8 16 0 -2
BITMAP
00
00
00
00
00
00
42
42
24
18
18
24
42
43
01
01
ENDCHAR
STARTCHAR U+04B4
ENCODING 1204
SWIDTH 500 0
DWIDTH 8 0
BBX 8 16 0 -2
BITMAP
00
00
00
00
FA
22
22
22
22
22
22
22
22
3F
01
01
ENDCHAR
STARTCHAR U+04B5
ENCODING 1205
SWIDTH 500 0
DWIDTH 8 0
BBX 8 16 0 -2
BITMAP
00
00
00
00
00
00
FA
22
22
22
22
22
22
3F
01
01
ENDCHAR
STARTCHAR U+04B6
ENCODING 1206
SWIDTH 500 0
DWIDTH 8 0
BBX 8 16 0 -2
BITMAP
00
00
00
00
42
42
42
42
42
46
3A
02
02
03
01
01
ENDCHAR
STARTCHAR U+04B7
ENCODING 1207
SWIDTH 500 0
DWIDTH 8 0
BBX 8 16 0 -2
BITMAP
00
00
00
00
00
00
42
42
42
42
46
3A
02
03
01
01
ENDCHAR
STARTCHAR U+04B8
ENCODING 1208
SWIDTH 500 0
DWIDTH 8 0
BBX 8 16 0 -2
BITMAP
00
00
00
00
42
42
42
42
52
56
3A
12
12
02
00
00
ENDCHAR
STARTCHAR U+04B9
ENCODING 1209
SWIDTH 500 0
DWIDTH 8 0
BBX 8 16 0 -2
BITMAP
00
00
00
00
00
00
42
42
42
52
56
3A
12
02
00
00
ENDCHAR
STARTCHAR U+04BA
ENCODING 1210
SWIDTH 500 0
DWIDTH 8 0
BBX 8 16 0 -2
BITMAP
00
00
00
00
40
40
40
5C
62
42
42
42
42
42
00
00
ENDCHAR
STARTCHAR U+04BB
ENCODING 1211
SWIDTH 500 0
DWIDTH 8 0
BBX 8 16 0 -2
BITMAP
00
00
00
00
00
00
40
40
5C
62
42
42
42
42
00
00
ENDCHAR
STARTCHAR U+04BC
ENCODING 1212
SWIDTH 500 0
DWIDTH 8 0
BBX 8 16 0 -2
BITMAP
00
00
00
00
4C
52
52
52
3E
10
10
12
12
0C
00
00
ENDCHAR
STARTCHAR U+04BD
ENCODING 1213
SWIDTH 500 0
DWIDTH 8 0
BBX 8 16 0 -2
BITMAP
00
00
00
00
00
00
4C
52
52
3E
10
10
12
0C
00
00
ENDCHAR
STARTCHAR U+04BE
ENCODING 1214
SWIDTH 500 0
DWIDTH 8 0
BBX 8 16 0 -2
BITMAP
00
00
00
00
4C
52
52
52
3E
10
10
12
12
0C
08
06
ENDCHAR
STARTCHAR U+04BF
ENCODING 1215
SWIDTH 500 0
DWIDTH 8 0
BBX 8 16 0 -2
BITMAP
00
00
00
00
00
00
4C
52
52
3E
10
10
12
0C
08
06
ENDCHAR
STARTCHAR U+04C0
ENCODING 1216
SWIDTH 500 0
DWIDTH 8 0
BBX 8 16 0 -2
BITMAP
00
00
00
00
3E
08
08
08
08
08
08
08
08
3E
00
00
ENDCHAR
STARTCHAR U+04C1
ENCODING 1217
SWIDTH 500 0
DWIDTH 8 0
BBX 8 16 0 -2
BITMAP
41
41
3E
00
49
49
2A
2A
1C
1C
2A
2A
49
49
00
00
ENDCHAR
STARTCHAR U+04C2
ENCODING 1218
SWIDTH 500 0
DWIDTH 8 0
BBX 8 16 0 -2
BITMAP
00
22
22
1C
00
00
49
49
2A
1C
1C
2A
49
49
00
00
ENDCHAR
STARTCHAR U+04C3
ENCODING 1219
SWIDTH 500 0
DWIDTH 8 0
BBX 8 16 0 -2
BITMAP
00
00
00
00
40
46
48
50
60
7C
42
42
42
42
02
0C
ENDCHAR
STARTCHAR U+04C4
ENCODING 1220
SWIDTH 500 0
DWIDTH 8 0
BBX 8 16 0 -2
BITMAP
00
00
00
00
00
00
46
48
50
60
7C
42
42
42
02
0C
ENDCHAR
STARTCHAR U+04C7
ENCODING 1223
SWIDTH 500 0
DWIDTH 8 0
BBX 8 16 0 -2
BITMAP
00
00
00
00
42
42
42
42
7E
42
42
42
42
42
02
0C
ENDCHAR
STARTCHAR U+04C8
ENCODING 1224
SWIDTH 500 0
DWIDTH 8 0
BBX 8 16 0 -2
BITMAP
00
00
00
00
00
00
42
42
42
7E
42
42
42
42
02
0C
ENDCHAR
STARTCHAR U+04CB
ENCODING 1227
SWIDTH 500 0
DWIDTH 8 0
BBX 8 16 0 -2
BITMAP
00
00
00
00
42
42
42
42
42
46
3A
02
02
06
04
04
ENDCHAR
STARTCHAR U+04CC
ENCODING 1228
SWIDTH 500 0
DWIDTH 8 0
BBX 8 16 0 -2
BITMAP
00
00
00
00
00
00
42
42
42
42
46
3A
02
06
04
04
ENDCHAR
STARTCHAR U+04D0
ENCODING 1232
SWIDTH 500 0
DWIDTH 8 0
BBX 8 16 0 -2
BITMAP
42
42
3C
00
18
24
24
42
42
7E
42
42
42
42
00
00
ENDCHAR
STARTCHAR U+04D1
ENCODING 1233
SWIDTH 500 0
DWIDTH 8 0
BBX 8 16 0 -2
BITMAP
00
42
42
3C
00
00
3C
42
02
3E
42
42
46
3A
00
00
ENDCHAR
STARTCHAR U+04D2
ENCODING 1234
SWIDTH 500 0
DWIDTH 8 0
BBX 8 16 0 -2
BITMAP
24
24
00
00
18
24
24
42
42
7E
42
42
42
42
00
00
ENDCHAR
STARTCHAR U+04D3
ENCODING 1235
SWIDTH 500 0
DWIDTH 8 0
BBX 8 16 0 -2
BITMAP
00
00
24
24
00
00
3C
42
02
3E
42
42
46
3A
00
00
ENDCHAR
STARTCHAR U+04D4
ENCODING 1236
SWIDTH 500 0
DWIDTH 8 0
BBX 8 16 0 -2
BITMAP
00
00
00
00
1F
28
48
48
7F
48
48
48
48
4F
00
00
ENDCHAR
STARTCHAR U+04D5
ENCODING 1237
SWIDTH 500 0
DWIDTH 8 0
BBX 8 16 0 -2
BITMAP
00
00
00
00
00
00
3E
49
09
3F
48
48
49
3E
00
00
ENDCHAR
STARTCHAR U+04D6
ENCODING 1238
SWIDTH 500 0
DWIDTH 8 0
BBX 8 16 0 -2
BITMAP
42
42
3C
00
7E
40
40
40
7C
40
40
40
40
7E
00
00
ENDCHAR
STARTCHAR U+04D7
ENCODING 1239
SWIDTH 500 0
DWIDTH 8 0
BBX 8 16 0 -2
BITMAP
00
00
42
42
3C
00
3C
42
42
7E
40
40
42
3C
00
00
ENDCHAR
STARTCHAR U+04D8
ENCODING 1240
SWIDTH 500 0
DWIDTH 8 0
BBX 8 16 0 -2
BITMAP
00
00
00
00
18
24
42
02
02
7E
42
42
24
18
00
00
ENDCHAR
STARTCHAR U+04D9
ENCODING 1241
SWIDTH 500 0
DWIDTH 8 0
BBX 8 16 0 -2
BITMAP
00
00
00
00
00
00
3C
42
02
02
7E
42
42
3C
00
00
ENDCHAR
STARTCHAR U+04DA
ENCODING 1242
SWIDTH 500 0
DWIDTH 8 0
BBX 8 16 0 -2
BITMAP
24
24
00
00
18
24
42
02
02
7E
42
42
24
18
00
00
ENDCHAR
STARTCHAR U+04DB
ENCODING 1243
SWIDTH 500 0
DWIDTH 8 0
BBX 8 16 0 -2
BITMAP
00
00
24
24
00
00
3C
42
02
02
7E
42
42
3C
00
00
ENDCHAR
STARTCHAR U+04DC
ENCODING 1244
SWIDTH 500 0
DWIDTH 8 0
BBX 8 16 0 -2
BITMAP
24
24
00
00
49
49
2A
2A
1C
1C
2A
2A
49
49
00
00
ENDCHAR
STARTCHAR U+04DD
ENCODING 1245
SWIDTH 500 0
DWIDTH 8 0
BBX 8 16 0 -2
BITMAP
00
00
24
24
00
00
49
49
2A
1C
1C
2A
49
49
00
00
ENDCHAR
STARTCHAR U+04DE
ENCODING 1246
SWIDTH 500 0
DWIDTH 8 0
BBX 8 16 0 -2
BITMAP
24
24
00
00
3C
42
02
02
3C
04
02
02
42
3C
00
00
ENDCHAR
STARTCHAR U+04DF
ENCODING 1247
SWIDTH 500 0
DWIDTH 8 0
BBX 8 16 0 -2
BITMAP
00
00
24
24
00
00
3C
42
02
3C
04
02
42
3C
00
00
ENDCHAR
STARTCHAR U+04E0
ENCODING 1248
SWIDTH 500 0
DWIDTH 8 0
BBX 8 16 0 -2
BITMAP
00
00
00
00
7E
04
08
10
1C
02
02
02
46
3C
00
00
ENDCHAR
STARTCHAR U+04E1
ENCODING 1249
SWIDTH 500 0
DWIDTH 8 0
BBX 8 16 0 -2
BITMAP
00
00
00
00
00
00
3E
04
08
10
1C
02
02
02
42
3C
ENDCHAR
STARTCHAR U+04E2
ENCODING 1250
SWIDTH 500 0
DWIDTH 8 0
BBX 8 16 0 -2
BITMAP
00
3C
00
00
42
46
46
4A
4A
52
52
62
62
42
00
00
ENDCHAR
STARTCHAR U+04E3
ENCODING 1251
SWIDTH 500 0
DWIDTH 8 0
BBX 8 16 0 -2
BITMAP
00
00
00
3C
00
00
46
46
4A
4A
52
52
62
62
00
00
ENDCHAR
STARTCHAR U+04E4
ENCODING 1252
SWIDTH 500 0
DWIDTH 8 0
BBX 8 16 0 -2
BITMAP
24
24
00
00
42
46
46
4A
4A
52
52
62
62
42
00
00
ENDCHAR
STARTCHAR U+04E5
ENCODING 1253
SWIDTH 500 0
DWIDTH 8 0
BBX 8 16 0 -2
BITMAP
00
00
24
24
00
00
46
46
4A
4A
52
52
62
62
00
00
ENDCHAR
STARTCHAR U+04E6
ENCODING 1254
SWIDTH 500 0
DWIDTH 8 0
BBX 8 16 0 -2
BITMAP
24
24
00
00
3C
42
42
42
42
42
42
42
42
3C
00
00
ENDCHAR
STARTCHAR U+04E7
ENCODING 1255
SWIDTH 500 0
DWIDTH 8 0
BBX 8 16 0 -2
BITMAP
00
00
24
24
00
00
3C
42
42
42
42
42
42
3C
00
00
ENDCHAR
STARTCHAR U+04E8
ENCODING 1256
SWIDTH 500 0
DWIDTH 8 0
BBX 8 16 0 -2
BITMAP
00
00
00
00
3C
42
42
42
7E
42
42
42
42
3C
00
00
ENDCHAR
STARTCHAR U+04E9
ENCODING 1257
SWIDTH 500 0
DWIDTH 8 0
BBX 8 16 0 -2
BITMAP
00
00
00
00
00
00
3C
42
42
7E
42
42
42
3C
00
00
ENDCHAR
STARTCHAR U+04EA
ENCODING 1258
SWIDTH 500 0
DWIDTH 8 0
BBX 8 16 0 -2
BITMAP
24
24
00
00
3C
42
42
42
7E
42
42
42
42
3C
00
00
ENDCHAR
STARTCHAR U+04EB
ENCODING 1259
SWIDTH 500 0
DWIDTH 8 0
BBX 8 16 0 -2
BITMAP
00
00
24
24
00
00
3C
42
42
7E
42
42
42
3C
00
00
ENDCHAR
STARTCHAR U+04EE
ENCODING 1262
SWIDTH 500 0
DWIDTH 8 0
BBX 8 16 0 -2
BITMAP
00
3E
00
00
41
41
22
22
14
14
08
08
10
30
00
00
ENDCHAR
STARTCHAR U+04EF
ENCODING 1263
SWIDTH 500 0
DWIDTH 8 0
BBX 8 16 0 -2
BITMAP
00
00
00
3C
00
00
42
42
24
24
18
18
10
10
20
60
ENDCHAR
STARTCHAR U+04F0
ENCODING 1264
SWIDTH 500 0
DWIDTH 8 0
BBX 8 16 0 -2
BITMAP
24
24
00
00
41
41
22
22
14
14
08
08
10
30
00
00
ENDCHAR
STARTCHAR U+04F1
ENCODING 1265
SWIDTH 500 0
DWIDTH 8 0
BBX 8 16 0 -2
BITMAP
00
00
24
24
00
00
42
42
24
24
18
18
10
10
20
60
ENDCHAR
STARTCHAR U+04F2
ENCODING 1266
SWIDTH 500 0
DWIDTH 8 0
BBX 8 16 0 -2
BITMAP
33
44
00
00
41
41
22
22
14
14
08
08
10
30
00
00
ENDCHAR
STARTCHAR U+04F3
ENCODING 1267
SWIDTH 500 0
DWIDTH 8 0
BBX 8 16 0 -2
BITMAP
00
00
33
44
00
00
42
42
24
24
18
18
10
10
20
60
ENDCHAR
STARTCHAR U+04F4
ENCODING 1268
SWIDTH 500 0
DWIDTH 8 0
BBX 8 16 0 -2
BITMAP
24
24
00
00
42
42
42
42
42
46
3A
02
02
02
00
00
ENDCHAR
STARTCHAR U+04F5
ENCODING 1269
SWIDTH 500 0
DWIDTH 8 0
BBX 8 16 0 -2
BITMAP
00
00
24
24
00
00
42
42
42
42
46
3A
02
02
00
00
ENDCHAR
STARTCHAR U+04F8
ENCODING 1272
SWIDTH 500 0
DWIDTH 8 0
BBX 8 16 0 -2
BITMAP
24
24
00
00
42
42
42
42
72
4A
4A
4A
4A
72
00
00
ENDCHAR
STARTCHAR U+04F9
ENCODING 1273
SWIDTH 500 0
DWIDTH 8 0
BBX 8 16 0 -2
BITMAP
00
00
24
24
00
00
42
42
42
72
4A
4A
4A
72
00
00
ENDCHAR
STARTCHAR U+0531
ENCODING 1329
SWIDTH 500 0
DWIDTH 8 0
BBX 8 16 0 -2
BITMAP
00
00
00
00
44
44
44
44
44
44
44
47
45
38
00
00
ENDCHAR
STARTCHAR U+0532
ENCODING 1330
SWIDTH 500 0
DWIDTH 8 0
BBX 8 16 0 -2
BITMAP
00
00
00
00
3C
42
42
40
7C
42
40
40
40
40
00
00
ENDCHAR
STARTCHAR U+0533
ENCODING 1331
SWIDTH 500 0
DWIDTH 8 0
BBX 8 16 0 -2
BITMAP
00
00
00
00
38
44
44
44
44
3E
05
04
04
04
00
00
ENDCHAR
STARTCHAR U+0534
ENCODING 1332
SWIDTH 500 0
DWIDTH 8 0
BBX 8 16 0 -2
BITMAP
00
00
00
00
38
44
44
04
04
06
05
04
04
04
00
00
ENDCHAR
STARTCHAR U+0535
ENCODING 1333
SWIDTH 500 0
DWIDTH 8 0
BBX 8 16 0 -2
BITMAP
00
00
00
00
40
40
7C
42
40
40
40
42
42
3C
00
00
ENDCHAR
STARTCHAR U+0536
ENCODING 1334
SWIDTH 500 0
DWIDTH 8 0
BBX 8 16 0 -2
BITMAP
00
00
00
00
1C
22
22
22
22
1C
04
08
10
7C
02
00
ENDCHAR
STARTCHAR U+0537
ENCODING 1335
SWIDTH 500 0
DWIDTH 8 0
BBX 8 16 0 -2
BITMAP
00
00
00
00
40
40
40
7C
42
40
40
40
40
7C
02
00
ENDCHAR
STARTCHAR U+0538
ENCODING 1336
SWIDTH 500 0
DWIDTH 8 0
BBX 8 16 0 -2
BITMAP
00
00
00
00
3C
42
42
40
40
40
40
40
40
7C
02
00
ENDCHAR
STARTCHAR U+0539
ENCODING 1337
SWIDTH 500 0
DWIDTH 8 0
BBX 8 16 0 -2
BITMAP
00
00
00
00
38
44
44
4F
54
54
48
40
40
40
00
00
ENDCHAR
STARTCHAR U+053A
ENCODING 1338
SWIDTH 500 0
DWIDTH 8 0
BBX 8 16 0 -2
BITMAP
00
00
00
00
04
04
04
04
3F
44
44
44
44
38
00
00
ENDCHAR
STARTCHAR U+053B
ENCODING 1339
SWIDTH 500 0
DWIDTH 8 0
BBX 8 16 0 -2
BITMAP
00
00
00
00
40
40
5C
62
42
40
40
40
40
40
00
00
ENDCHAR
STARTCHAR U+053C
ENCODING 1340
SWIDTH 500 0
DWIDTH 8 0
BBX 8 16 0 -2
BITMAP
00
00
00
00
40
40
40
40
40
40
40
40
40
7C
02
00
ENDCHAR
STARTCHAR U+053D
ENCODING 1341
SWIDTH 500 0
DWIDTH 8 0
BBX 8 16 0 -2
BITMAP
00
00
00
00
40
40
40
79
49
49
46
40
40
40
00
00
ENDCHAR
STARTCHAR U+053E
ENCODING 1342
SWIDTH 500 0
DWIDTH 8 0
BBX 8 16 0 -2
BITMAP
00
00
00
00
7E
18
24
42
42
42
42
42
24
18
00
00
ENDCHAR
STARTCHAR U+053F
ENCODING 1343
SWIDTH 500 0
DWIDTH 8 0
BBX 8 16 0 -2
BITMAP
00
00
00
00
42
42
42
42
42
42
42
3E
02
02
00
00
ENDCHAR
STARTCHAR U+0540
ENCODING 1344
SWIDTH 500 0
DWIDTH 8 0
BBX 8 16 0 -2
BITMAP
00
00
00
00
08
10
10
08
10
20
40
60
18
06
00
00
ENDCHAR
STARTCHAR U+0541
ENCODING 1345
SWIDTH 500 0
DWIDTH 8 0
BBX 8 16 0 -2
BITMAP
00
00
00
00
1C
22
22
22
22
1C
24
58
48
36
00
00
ENDCHAR
STARTCHAR U+0542
ENCODING 1346
SWIDTH 500 0
DWIDTH 8 0
BBX 8 16 0 -2
BITMAP
00
00
00
00
38
44
44
04
04
04
04
04
04
06
01
00
ENDCHAR
STARTCHAR U+0543
ENCODING 1347
SWIDTH 500 0
DWIDTH 8 0
BBX 8 16 0 -2
BITMAP
00
00
00
00
04
64
18
24
24
42
42
42
42
7E
00
00
ENDCHAR
STARTCHAR U+0544
ENCODING 1348
SWIDTH 500 0
DWIDTH 8 0
BBX 8 16 0 -2
BITMAP
00
00
00
00
47
45
44
44
44
44
44
44
44
38
00
00
ENDCHAR
STARTCHAR U+0545
ENCODING 1349
SWIDTH 500 0
DWIDTH 8 0
BBX 8 16 0 -2
BITMAP
00
00
00
00
1C
22
02
42
7C
42
02
02
22
1C
00
00
ENDCHAR
STARTCHAR U+0546
ENCODING 1350
SWIDTH 500 0
DWIDTH 8 0
BBX 8 16 0 -2
BITMAP
00
00
00
00
40
30
10
10
10
10
10
10
11
11
0E
00
ENDCHAR
STARTCHAR U+0547
ENCODING 1351
SWIDTH 500 0
DWIDTH 8 0
BBX 8 16 0 -2
BITMAP
00
00
00
40
3C
20
40
40
42
42
42
42
42
3C
00
00
ENDCHAR
STARTCHAR U+0548
ENCODING 1352
SWIDTH 500 0
DWIDTH 8 0
BBX 8 16 0 -2
BITMAP
00
00
00
00
3C
42
42
42
42
42
42
42
42
42
00
00
ENDCHAR
STARTCHAR U+0549
ENCODING 1353
SWIDTH 500 0
DWIDTH 8 0
BBX 8 16 0 -2
BITMAP
00
00
00
00
1C
22
22
22
22
1C
08
08
10
7E
00
00
ENDCHAR
STARTCHAR U+054A
ENCODING 1354
SWIDTH 500 0
DWIDTH 8 0
BBX 8 16 0 -2
BITMAP
00
00
00
00
3E
49
49
49
49
09
09
01
01
01
00
00
ENDCHAR
STARTCHAR U+054B
ENCODING 1355
SWIDTH 500 0
DWIDTH 8 0
BBX 8 16 0 -2
BITMAP
00
00
00
00
1C
22
22
22
22
14
0C
08
10
7C
02
00
ENDCHAR
STARTCHAR U+054C
ENCODING 1356
SWIDTH 500 0
DWIDTH 8 0
BBX 8 16 0 -2
BITMAP
00
00
00
00
38
44
44
47
45
44
44
44
44
44
00
00
ENDCHAR
STARTCHAR U+054D
ENCODING 1357
SWIDTH 500 0
DWIDTH 8 0
BBX 8 16 0 -2
BITMAP
00
00
00
00
42
42
42
42
42
42
42
42
42
3C
00
00
ENDCHAR
STARTCHAR U+054E
ENCODING 1358
SWIDTH 500 0
DWIDTH 8 0
BBX 8 16 0 -2
BITMAP
00
00
00
00
44
44
44
44
44
44
44
3C
04
06
01
00
ENDCHAR
STARTCHAR U+054F
ENCODING 1359
SWIDTH 500 0
DWIDTH 8 0
BBX 8 16 0 -2
BITMAP
00
00
00
00
3C
42
42
40
30
0C
02
42
42
3C
00
00
ENDCHAR
STARTCHAR U+0550
ENCODING 1360
SWIDTH 500 0
DWIDTH 8 0
BBX 8 16 0 -2
BITMAP
00
00
00
00
3C
42
42
40
40
40
40
40
40
40
00
00
ENDCHAR
STARTCHAR U+0551
ENCODING 1361
SWIDTH 500 0
DWIDTH 8 0
BBX 8 16 0 -2
BITMAP
00
00
00
00
3C
42
42
42
3C
42
02
02
42
3C
00
00
ENDCHAR
STARTCHAR U+0552
ENCODING 1362
SWIDTH 500 0
DWIDTH 8 0
BBX 8 16 0 -2
BITMAP
00
00
00
00
40
40
58
64
44
44
43
40
40
40
00
00
ENDCHAR
STARTCHAR U+0553
ENCODING 1363
SWIDTH 500 0
DWIDTH 8 0
BBX 8 16 0 -2
BITMAP
00
00
00
00
10
38
54
54
54
54
54
54
38
10
00
00
ENDCHAR
STARTCHAR U+0554
ENCODING 1364
SWIDTH 500 0
DWIDTH 8 0
BBX 8 16 0 -2
BITMAP
00
00
00
00
0C
12
12
12
1C
10
7C
10
10
10
00
00
ENDCHAR
STARTCHAR U+0555
ENCODING 1365
SWIDTH 500 0
DWIDTH 8 0
BBX 8 16 0 -2
BITMAP
00
00
00
00
3C
42
42
42
42
42
42
42
42
3C
00
00
ENDCHAR
STARTCHAR U+0556
ENCODING 1366
SWIDTH 500 0
DWIDTH 8 0
BBX 8 16 0 -2
BITMAP
00
00
00
00
38
48
48
38
0E
09
09
09
49
3E
00
00
ENDCHAR
STARTCHAR U+0559
ENCODING 1369
SWIDTH 500 0
DWIDTH 8 0
BBX 8 16 0 -2
BITMAP
10
20
20
10
00
00
00
00
00
00
00
00
00
00
00
00
ENDCHAR
STARTCHAR U+055A
ENCODING 1370
SWIDTH 500 0
DWIDTH 8 0
BBX 8 16 0 -2
BITMAP
20
10
10
20
00
00
00
00
00
00
00
00
00
00
00
00
ENDCHAR
STARTCHAR U+055B
ENCODING 1371
SWIDTH 500 0
DWIDTH 8 0
BBX 8 16 0 -2
BITMAP
08
18
30
00
00
00
00
00
00
00
00
00
00
00
00
00
ENDCHAR
STARTCHAR U+055C
ENCODING 1372
SWIDTH 500 0
DWIDTH 8 0
BBX 8 16 0 -2
BITMAP
0C
30
00
00
00
00
00
00
00
00
00
00
00
00
00
00
ENDCHAR
STARTCHAR U+055D
ENCODING 1373
SWIDTH 500 0
DWIDTH 8 0
BBX 8 16 0 -2
BITMAP
20
10
08
00
00
00
00
00
00
00
00
00
00
00
00
00
ENDCHAR
STARTCHAR U+055E
ENCODING 1374
SWIDTH 500 0
DWIDTH 8 0
BBX 8 16 0 -2
BITMAP
38
44
54
18
00
00
00
00
00
00
00
00
00
00
00
00
ENDCHAR
STARTCHAR U+055F
ENCODING 1375
SWIDTH 500 0
DWIDTH 8 0
BBX 8 16 0 -2
BITMAP
30
50
40
3C
00
00
00
00
00
00
00
00
00
00
00
00
ENDCHAR
STARTCHAR U+0561
ENCODING 1377
SWIDTH 500 0
DWIDTH 8 0
BBX 8 16 0 -2
BITMAP
00
00
00
00
00
00
49
49
49
49
49
49
49
37
00
00
ENDCHAR
STARTCHAR U+0562
ENCODING 1378
SWIDTH 500 0
DWIDTH 8 0
BBX 8 16 0 -2
BITMAP
00
00
00
00
00
00
00
5C
62
42
42
40
7E
40
40
40
ENDCHAR
STARTCHAR U+0563
ENCODING 1379
SWIDTH 500 0
DWIDTH 8 0
BBX 8 16 0 -2
BITMAP
00
00
00
00
00
00
34
4C
44
44
44
44
3F
04
04
04
ENDCHAR
STARTCHAR U+0564
ENCODING 1380
SWIDTH 500 0
DWIDTH 8 0
BBX 8 16 0 -2
BITMAP
00
00
00
00
00
00
58
64
44
44
44
44
44
47
04
04
ENDCHAR
STARTCHAR U+0565
ENCODING 1381
SWIDTH 500 0
DWIDTH 8 0
BBX 8 16 0 -2
BITMAP
00
00
00
00
00
40
40
40
7E
40
42
42
62
5C
00
00
ENDCHAR
STARTCHAR U+0566
ENCODING 1382
SWIDTH 500 0
DWIDTH 8 0
BBX 8 16 0 -2
BITMAP
00
00
00
00
00
00
34
4C
44
44
44
44
3C
04
04
07
ENDCHAR
STARTCHAR U+0567
ENCODING 1383
SWIDTH 500 0
DWIDTH 8 0
BBX 8 16 0 -2
BITMAP
00
00
00
00
40
40
7C
40
40
40
40
40
40
38
04
00
ENDCHAR
STARTCHAR U+0568
ENCODING 1384
SWIDTH 500 0
DWIDTH 8 0
BBX 8 16 0 -2
BITMAP
00
00
00
00
00
00
5C
62
42
42
42
42
42
42
40
7E
ENDCHAR
STARTCHAR U+0569
ENCODING 1385
SWIDTH 500 0
DWIDTH 8 0
BBX 8 16 0 -2
BITMAP
00
00
00
00
00
00
58
64
44
4F
54
54
48
40
40
40
ENDCHAR
STARTCHAR U+056A
ENCODING 1386
SWIDTH 500 0
DWIDTH 8 0
BBX 8 16 0 -2
BITMAP
00
00
00
00
04
04
04
3F
44
44
44
44
44
38
00
00
ENDCHAR
STARTCHAR U+056B
ENCODING 1387
SWIDTH 500 0
DWIDTH 8 0
BBX 8 16 0 -2
BITMAP
00
00
00
00
40
40
5C
62
42
42
42
42
42
42
40
40
ENDCHAR
STARTCHAR U+056C
ENCODING 1388
SWIDTH 500 0
DWIDTH 8 0
BBX 8 16 0 -2
BITMAP
00
00
00
00
00
00
40
40
40
40
40
40
40
40
40
7C
ENDCHAR
STARTCHAR U+056D
ENCODING 1389
SWIDTH 500 0
DWIDTH 8 0
BBX 8 16 0 -2
BITMAP
00
00
00
00
40
40
40
79
49
49
49
49
46
40
40
40
ENDCHAR
STARTCHAR U+056E
ENCODING 1390
SWIDTH 500 0
DWIDTH 8 0
BBX 8 16 0 -2
BITMAP
00
00
00
00
70
08
04
3F
44
44
44
44
44
38
00
00
ENDCHAR
STARTCHAR U+056F
ENCODING 1391
SWIDTH 500 0
DWIDTH 8 0
BBX 8 16 0 -2
BITMAP
00
00
00
00
40
40
42
42
42
42
42
42
42
3E
02
02
ENDCHAR
STARTCHAR U+0570
ENCODING 1392
SWIDTH 500 0
DWIDTH 8 0
BBX 8 16 0 -2
BITMAP
00
00
00
00
40
40
40
5C
62
42
42
42
42
42
00
00
ENDCHAR
STARTCHAR U+0571
ENCODING 1393
SWIDTH 500 0
DWIDTH 8 0
BBX 8 16 0 -2
BITMAP
00
00
00
00
08
10
08
3E
42
42
42
42
42
3E
00
00
ENDCHAR
STARTCHAR U+0572
ENCODING 1394
SWIDTH 500 0
DWIDTH 8 0
BBX 8 16 0 -2
BITMAP
00
00
00
00
00
00
58
64
44
44
44
44
44
44
04
07
ENDCHAR
STARTCHAR U+0573
ENCODING 1395
SWIDTH 500 0
DWIDTH 8 0
BBX 8 16 0 -2
BITMAP
00
00
00
00
0E
11
10
7F
11
11
11
11
13
0D
00
00
ENDCHAR
STARTCHAR U+0574
ENCODING 1396
SWIDTH 500 0
DWIDTH 8 0
BBX 8 16 0 -2
BITMAP
00
00
00
00
02
05
04
44
44
44
44
44
4C
34
00
00
ENDCHAR
STARTCHAR U+0575
ENCODING 1397
SWIDTH 500 0
DWIDTH 8 0
BBX 8 16 0 -2
BITMAP
00
00
00
00
00
00
0C
04
04
04
04
04
04
04
48
30
ENDCHAR
STARTCHAR U+0576
ENCODING 1398
SWIDTH 500 0
DWIDTH 8 0
BBX 8 16 0 -2
BITMAP
00
00
00
00
3C
42
40
42
42
42
42
42
46
3A
00
00
ENDCHAR
STARTCHAR U+0577
ENCODING 1399
SWIDTH 500 0
DWIDTH 8 0
BBX 8 16 0 -2
BITMAP
00
00
00
00
38
44
04
08
08
10
10
20
20
3F
00
00
ENDCHAR
STARTCHAR U+0578
ENCODING 1400
SWIDTH 500 0
DWIDTH 8 0
BBX 8 16 0 -2
BITMAP
00
00
00
00
00
00
5C
62
42
42
42
42
42
42
00
00
ENDCHAR
STARTCHAR U+0579
ENCODING 1401
SWIDTH 500 0
DWIDTH 8 0
BBX 8 16 0 -2
BITMAP
00
00
00
00
10
20
10
08
08
10
10
20
20
3F
00
00
ENDCHAR
STARTCHAR U+057A
ENCODING 1402
SWIDTH 500 0
DWIDTH 8 0
BBX 8 16 0 -2
BITMAP
00
00
00
00
00
00
49
49
49
49
49
49
49
37
01
01
ENDCHAR
STARTCHAR U+057B
ENCODING 1403
SWIDTH 500 0
DWIDTH 8 0
BBX 8 16 0 -2
BITMAP
00
00
00
00
38
44
44
48
28
10
10
20
20
3F
00
00
ENDCHAR
STARTCHAR U+057C
ENCODING 1404
SWIDTH 500 0
DWIDTH 8 0
BBX 8 16 0 -2
BITMAP
00
00
00
00
00
00
58
64
44
44
44
44
44
47
00
00
ENDCHAR
STARTCHAR U+057D
ENCODING 1405
SWIDTH 500 0
DWIDTH 8 0
BBX 8 16 0 -2
BITMAP
00
00
00
00
00
00
42
42
42
42
42
42
46
3A
00
00
ENDCHAR
STARTCHAR U+057E
ENCODING 1406
SWIDTH 500 0
DWIDTH 8 0
BBX 8 16 0 -2
BITMAP
00
00
00
00
04
04
04
44
44
44
44
44
4C
34
04
07
ENDCHAR
STARTCHAR U+057F
ENCODING 1407
SWIDTH 500 0
DWIDTH 8 0
BBX 8 16 0 -2
BITMAP
00
00
00
00
00
00
4A
4D
49
49
49
49
59
29
00
00
ENDCHAR
STARTCHAR U+0580
ENCODING 1408
SWIDTH 500 0
DWIDTH 8 0
BBX 8 16 0 -2
BITMAP
00
00
00
00
00
00
5C
62
42
42
42
42
42
42
40
40
ENDCHAR
STARTCHAR U+0581
ENCODING 1409
SWIDTH 500 0
DWIDTH 8 0
BBX 8 16 0 -2
BITMAP
00
00
00
00
00
00
3A
46
42
42
42
46
3A
02
42
3C
ENDCHAR
STARTCHAR U+0582
ENCODING 1410
SWIDTH 500 0
DWIDTH 8 0
BBX 8 16 0 -2
BITMAP
00
00
00
00
00
00
18
08
08
08
08
08
08
0E
00
00
ENDCHAR
STARTCHAR U+0583
ENCODING 1411
SWIDTH 500 0
DWIDTH 8 0
BBX 8 16 0 -2
BITMAP
00
00
00
00
08
08
4A
4D
49
49
49
49
59
29
08
08
ENDCHAR
STARTCHAR U+0584
ENCODING 1412
SWIDTH 500 0
DWIDTH 8 0
BBX 8 16 0 -2
BITMAP
00
00
00
0E
11
10
10
7C
10
10
10
10
10
10
00
00
ENDCHAR
STARTCHAR U+0585
ENCODING 1413
SWIDTH 500 0
DWIDTH 8 0
BBX 8 16 0 -2
BITMAP
00
00
00
00
00
00
3C
42
42
42
42
42
42
3C
00
00
ENDCHAR
STARTCHAR U+0586
ENCODING 1414
SWIDTH 500 0
DWIDTH 8 0
BBX 8 16 0 -2
BITMAP
00
00
00
00
38
48
48
38
0E
09
09
09
49
3E
08
08
ENDCHAR
STARTCHAR U+0587
ENCODING 1415
SWIDTH 500 0
DWIDTH 8 0
BBX 8 16 0 -2
BITMAP
00
00
00
00
40
40
40
44
44
44
44
44
44
3B
00
00
ENDCHAR
STARTCHAR U+0589
ENCODING 1417
SWIDTH 500 0
DWIDTH 8 0
BBX 8 16 0 -2
BITMAP
00
00
00
00
00
00
18
18
00
00
00
18
18
00
00
00
ENDCHAR
STARTCHAR U+05D0
ENCODING 1488
SWIDTH 500 0
DWIDTH 8 0
BBX 8 16 0 -2
BITMAP
00
00
00
00
00
46
42
22
12
2C
48
44
42
42
00
00
ENDCHAR
STARTCHAR U+05D1
ENCODING 1489
SWIDTH 500 0
DWIDTH 8 0
BBX 8 16 0 -2
BITMAP
00
00
00
00
00
7C
04
04
04
04
04
04
04
7F
00
00
ENDCHAR
STARTCHAR U+05D2
ENCODING 1490
SWIDTH 500 0
DWIDTH 8 0
BBX 8 16 0 -2
BITMAP
00
00
00
00
00
30
08
08
08
04
0C
14
22
42
00
00
ENDCHAR
STARTCHAR U+05D3
ENCODING 1491
SWIDTH 500 0
DWIDTH 8 0
BBX 8 16 0 -2
BITMAP
00
00
00
00
00
7E
04
04
04
04
04
04
04
04
00
00
ENDCHAR
STARTCHAR U+05D4
ENCODING 1492
SWIDTH 500 0
DWIDTH 8 0
BBX 8 16 0 -2
BITMAP
00
00
00
00
00
7E
02
02
22
22
22
22
22
22
00
00
ENDCHAR
STARTCHAR U+05D5
ENCODING 1493
SWIDTH 500 0
DWIDTH 8 0
BBX 8 16 0 -2
BITMAP
00
00
00
00
00
38
08
08
08
08
08
08
08
08
00
00
ENDCHAR
STARTCHAR U+05D6
ENCODING 1494
SWIDTH 500 0
DWIDTH 8 0
BBX 8 16 0 -2
BITMAP
00
00
00
00
00
30
0C
0A
08
08
08
08
08
08
00
00
ENDCHAR
STARTCHAR U+05D7
ENCODING 1495
SWIDTH 500 0
DWIDTH 8 0
BBX 8 16 0 -2
BITMAP
00
00
00
00
00
7E
22
22
22
22
22
22
22
22
00
00
ENDCHAR
STARTCHAR U+05D8
ENCODING 1496
SWIDTH 500 0
DWIDTH 8 0
BBX 8 16 0 -2
BITMAP
00
00
00
00
00
46
4A
42
42
42
42
42
42
7E
00
00
ENDCHAR
STARTCHAR U+05D9
ENCODING 1497
SWIDTH 500 0
DWIDTH 8 0
BBX 8 16 0 -2
BITMAP
00
00
00
00
00
38
08
08
08
00
00
00
00
00
00
00
ENDCHAR
STARTCHAR U+05DA
ENCODING 1498
SWIDTH 500 0
DWIDTH 8 0
BBX 8 16 0 -2
BITMAP
00
00
00
00
00
7E
02
02
02
02
02
02
02
02
02
02
ENDCHAR
STARTCHAR U+05DB
ENCODING 1499
SWIDTH 500 0
DWIDTH 8 0
BBX 8 16 0 -2
BITMAP
00
00
00
00
00
7E
02
02
02
02
02
02
02
7C
00
00
ENDCHAR
STARTCHAR U+05DC
ENCODING 1500
SWIDTH 500 0
DWIDTH 8 0
BBX 8 16 0 -2
BITMAP
00
00
00
20
20
3E
02
02
02
02
04
04
08
30
00
00
ENDCHAR
STARTCHAR U+05DD
ENCODING 1501
SWIDTH 500 0
DWIDTH 8 0
BBX 8 16 0 -2
BITMAP
00
00
00
00
00
FE
22
22
22
22
22
22
22
3E
00
00
ENDCHAR
STARTCHAR U+05DE
ENCODING 1502
SWIDTH 500 0
DWIDTH 8 0
BBX 8 16 0 -2
BITMAP
00
00
00
00
00
48
48
34
14
22
22
41
41
4F
00
00
ENDCHAR
STARTCHAR U+05DF
ENCODING 1503
SWIDTH 500 0
DWIDTH 8 0
BBX 8 16 0 -2
BITMAP
00
00
00
00
00
38
08
08
08
08
08
08
08
08
08
08
ENDCHAR
STARTCHAR U+05E0
ENCODING 1504
SWIDTH 500 0
DWIDTH 8 0
BBX 8 16 0 -2
BITMAP
00
00
00
00
00
1C
04
04
04
04
04
04
04
3C
00
00
ENDCHAR
STARTCHAR U+05E1
ENCODING 1505
SWIDTH 500 0
DWIDTH 8 0
BBX 8 16 0 -2
BITMAP
00
00
00
00
00
7E
42
42
42
42
42
42
44
78
00
00
ENDCHAR
STARTCHAR U+05E2
ENCODING 1506
SWIDTH 500 0
DWIDTH 8 0
BBX 8 16 0 -2
BITMAP
00
00
00
00
00
12
12
12
12
12
12
12
12
FE
00
00
ENDCHAR
STARTCHAR U+05E3
ENCODING 1507
SWIDTH 500 0
DWIDTH 8 0
BBX 8 16 0 -2
BITMAP
00
00
00
00
00
7E
42
42
42
72
02
02
02
02
02
02
ENDCHAR
STARTCHAR U+05E4
ENCODING 1508
SWIDTH 500 0
DWIDTH 8 0
BBX 8 16 0 -2
BITMAP
00
00
00
00
00
7E
42
42
42
72
02
02
02
7E
00
00
ENDCHAR
STARTCHAR U+05E5
ENCODING 1509
SWIDTH 500 0
DWIDTH 8 0
BBX 8 16 0 -2
BITMAP
00
00
00
00
00
22
22
24
28
30
20
20
20
20
20
20
ENDCHAR
STARTCHAR U+05E6
ENCODING 1510
SWIDTH 500 0
DWIDTH 8 0
BBX 8 16 0 -2
BITMAP
00
00
00
00
00
42
42
24
18
08
04
02
02
7E
00
00
ENDCHAR
STARTCHAR U+05E7
ENCODING 1511
SWIDTH 500 0
DWIDTH 8 0
BBX 8 16 0 -2
BITMAP
00
00
00
00
00
7E
22
22
24
24
28
20
20
20
20
20
ENDCHAR
STARTCHAR U+05E8
ENCODING 1512
SWIDTH 500 0
DWIDTH 8 0
BBX 8 16 0 -2
BITMAP
00
00
00
00
00
7E
02
02
02
02
02
02
02
02
00
00
ENDCHAR
STARTCHAR U+05E9
ENCODING 1513
SWIDTH 500 0
DWIDTH 8 0
BBX 8 16 0 -2
BITMAP
00
00
00
00
00
49
49
49
49
49
49
49
49
7F
00
00
ENDCHAR
STARTCHAR U+05EA
ENCODING 1514
SWIDTH 500 0
DWIDTH 8 0
BBX 8 16 0 -2
BITMAP
00
00
00
00
00
3E
22
22
22
22
22
22
22
62
00
00
ENDCHAR
STARTCHAR U+060C
ENCODING 1548
SWIDTH 500 0
DWIDTH 8 0
BBX 8 16 0 -2
BITMAP
00
00
00
00
00
08
10
18
18
00
00
00
00
00
00
00
ENDCHAR
STARTCHAR U+061B
ENCODING 1563
SWIDTH 500 0
DWIDTH 8 0
BBX 8 16 0 -2
BITMAP
00
00
00
00
00
08
10
18
00
18
00
00
00
00
00
00
ENDCHAR
STARTCHAR U+061F
ENCODING 1567
SWIDTH 500 0
DWIDTH 8 0
BBX 8 16 0 -2
BITMAP
00
3E
41
40
20
10
08
08
00
08
00
00
00
00
00
00
ENDCHAR
STARTCHAR U+0621
ENCODING 1569
SWIDTH 500 0
DWIDTH 8 0
BBX 8 16 0 -2
BITMAP
00
00
00
00
00
0E
10
16
08
10
00
00
00
00
00
00
ENDCHAR
STARTCHAR U+0622
ENCODING 1570
SWIDTH 500 0
DWIDTH 8 0
BBX 8 16 0 -2
BITMAP
1E
60
08
0C
0C
08
08
08
08
00
00
00
00
00
00
00
ENDCHAR
STARTCHAR U+0623
ENCODING 1571
SWIDTH 500 0
DWIDTH 8 0
BBX 8 16 0 -2
BITMAP
30
40
24
46
04
04
04
04
04
00
00
00
00
00
00
00
ENDCHAR
STARTCHAR U+0624
ENCODING 1572
SWIDTH 500 0
DWIDTH 8 0
BBX 8 16 0 -2
BITMAP
00
30
40
30
40
06
09
09
0F
01
02
44
38
00
00
00
ENDCHAR
STARTCHAR U+0625
ENCODING 1573
SWIDTH 500 0
DWIDTH 8 0
BBX 8 16 0 -2
BITMAP
00
00
04
06
04
04
34
44
24
40
00
00
00
00
00
00
ENDCHAR
STARTCHAR U+0626
ENCODING 1574
SWIDTH 500 0
DWIDTH 8 0
BBX 8 16 0 -2
BITMAP
00
00
00
03
04
02
04
00
0C
58
8C
84
78
00
00
00
ENDCHAR
STARTCHAR U+0627
ENCODING 1575
SWIDTH 500 0
DWIDTH 8 0
BBX 8 16 0 -2
BITMAP
00
10
18
18
10
10
10
10
10
00
00
00
00
00
00
00
ENDCHAR
STARTCHAR U+0628
ENCODING 1576
SWIDTH 500 0
DWIDTH 8 0
BBX 8 16 0 -2
BITMAP
00
00
00
00
00
02
41
81
7E
00
00
10
00
00
00
00
ENDCHAR
STARTCHAR U+0629
ENCODING 1577
SWIDTH 500 0
DWIDTH 8 0
BBX 8 16 0 -2
BITMAP
00
12
00
00
0C
12
11
11
0E
00
00
00
00
00
00
00
ENDCHAR
STARTCHAR U+062A
ENCODING 1578
SWIDTH 500 0
DWIDTH 8 0
BBX 8 16 0 -2
BITMAP
00
00
24
00
00
02
41
81
7E
00
00
00
00
00
00
00
ENDCHAR
STARTCHAR U+062B
ENCODING 1579
SWIDTH 500 0
DWIDTH 8 0
BBX 8 16 0 -2
BITMAP
10
00
24
00
00
02
41
81
7E
00
00
00
00
00
00
00
ENDCHAR
STARTCHAR U+062C
ENCODING 1580
SWIDTH 500 0
DWIDTH 8 0
BBX 8 16 0 -2
BITMAP
00
00
00
00
00
00
FC
23
40
80
88
80
41
3E
00
00
ENDCHAR
STARTCHAR U+062D
ENCODING 1581
SWIDTH 500 0
DWIDTH 8 0
BBX 8 16 0 -2
BITMAP
00
00
00
00
00
00
FC
23
40
80
80
80
41
3E
00
00
ENDCHAR
STARTCHAR U+062E
ENCODING 1582
SWIDTH 500 0
DWIDTH 8 0
BBX 8 16 0 -2
BITMAP
00
00
00
10
00
00
FC
23
40
80
80
80
41
3E
00
00
ENDCHAR
STARTCHAR U+062F
ENCODING 1583
SWIDTH 500 0
DWIDTH 8 0
BBX 8 16 0 -2
BITMAP
00
00
00
00
04
02
01
21
3E
00
00
00
00
00
00
00
ENDCHAR
STARTCHAR U+0630
ENCODING 1584
SWIDTH 500 0
DWIDTH 8 0
BBX 8 16 0 -2
BITMAP
00
00
10
00
04
02
01
21
3E
00
00
00
00
00
00
00
ENDCHAR
STARTCHAR U+0631
ENCODING 1585
SWIDTH 500 0
DWIDTH 8 0
BBX 8 16 0 -2
BITMAP
00
00
00
00
00
00
02
01
01
01
02
44
38
00
00
00
ENDCHAR
STARTCHAR U+0632
ENCODING 1586
SWIDTH 500 0
DWIDTH 8 0
BBX 8 16 0 -2
BITMAP
00
00
00
08
00
00
02
01
01
01
02
44
38
00
00
00
ENDCHAR
STARTCHAR U+0633
ENCODING 1587
SWIDTH 500 0
DWIDTH 8 0
BBX 8 16 0 -2
BITMAP
00
00
00
00
00
02
91
49
76
40
40
80
00
00
00
00
ENDCHAR
STARTCHAR U+0634
ENCODING 1588
SWIDTH 500 0
DWIDTH 8 0
BBX 8 16 0 -2
BITMAP
00
20
00
48
00
02
91
49
76
40
40
80
00
00
00
00
ENDCHAR
STARTCHAR U+0635
ENCODING 1589
SWIDTH 500 0
DWIDTH 8 0
BBX 8 16 0 -2
BITMAP
00
00
00
00
00
0E
91
61
7E
40
40
80
00
00
00
00
ENDCHAR
STARTCHAR U+0636
ENCODING 1590
SWIDTH 500 0
DWIDTH 8 0
BBX 8 16 0 -2
BITMAP
00
00
00
20
00
0E
91
61
7E
40
40
80
00
00
00
00
ENDCHAR
STARTCHAR U+0637
ENCODING 1591
SWIDTH 500 0
DWIDTH 8 0
BBX 8 16 0 -2
BITMAP
00
20
20
20
20
2E
31
21
FE
00
00
00
00
00
00
00
ENDCHAR
STARTCHAR U+0638
ENCODING 1592
SWIDTH 500 0
DWIDTH 8 0
BBX 8 16 0 -2
BITMAP
00
20
24
20
20
2E
31
21
FE
00
00
00
00
00
00
00
ENDCHAR
STARTCHAR U+0639
ENCODING 1593
SWIDTH 500 0
DWIDTH 8 0
BBX 8 16 0 -2
BITMAP
00
00
00
0E
11
10
08
1F
20
40
80
80
80
41
3E
00
ENDCHAR
STARTCHAR U+063A
ENCODING 1594
SWIDTH 500 0
DWIDTH 8 0
BBX 8 16 0 -2
BITMAP
00
04
00
0E
11
10
08
1F
20
40
80
80
80
41
3E
00
ENDCHAR
STARTCHAR U+0640
ENCODING 1600
SWIDTH 500 0
DWIDTH 8 0
BBX 8 16 0 -2
BITMAP
00
00
00
00
00
00
00
00
FF
00
00
00
00
00
00
00
ENDCHAR
STARTCHAR U+0641
ENCODING 1601
SWIDTH 500 0
DWIDTH 8 0
BBX 8 16 0 -2
BITMAP
00
04
00
00
0E
09
45
83
7E
00
00
00
00
00
00
00
ENDCHAR
STARTCHAR U+0642
ENCODING 1602
SWIDTH 500 0
DWIDTH 8 0
BBX 8 16 0 -2
BITMAP
00
00
12
00
00
0E
09
45
83
81
82
7C
00
00
00
00
ENDCHAR
STARTCHAR U+0643
ENCODING 1603
SWIDTH 500 0
DWIDTH 8 0
BBX 8 16 0 -2
BITMAP
00
01
09
11
09
41
81
81
7E
00
00
00
00
00
00
00
ENDCHAR
STARTCHAR U+0644
ENCODING 1604
SWIDTH 500 0
DWIDTH 8 0
BBX 8 16 0 -2
BITMAP
00
01
01
01
01
01
01
41
81
81
82
7C
00
00
00
00
ENDCHAR
STARTCHAR U+0645
ENCODING 1605
SWIDTH 500 0
DWIDTH 8 0
BBX 8 16 0 -2
BITMAP
00
00
00
00
0E
11
09
7F
80
80
40
40
20
20
00
00
ENDCHAR
STARTCHAR U+0646
ENCODING 1606
SWIDTH 500 0
DWIDTH 8 0
BBX 8 16 0 -2
BITMAP
00
00
00
08
00
00
02
41
81
81
82
7C
00
00
00
00
ENDCHAR
STARTCHAR U+0647
ENCODING 1607
SWIDTH 500 0
DWIDTH 8 0
BBX 8 16 0 -2
BITMAP
00
00
00
00
0C
12
11
11
0E
00
00
00
00
00
00
00
ENDCHAR
STARTCHAR U+0648
ENCODING 1608
SWIDTH 500 0
DWIDTH 8 0
BBX 8 16 0 -2
BITMAP
00
00
00
00
00
06
09
09
0F
01
02
44
38
00
00
00
ENDCHAR
STARTCHAR U+0649
ENCODING 1609
SWIDTH 500 0
DWIDTH 8 0
BBX 8 16 0 -2
BITMAP
00
00
00
00
00
06
09
08
46
81
81
82
7C
00
00
00
ENDCHAR
STARTCHAR U+064A
ENCODING 1610
SWIDTH 500 0
DWIDTH 8 0
BBX 8 16 0 -2
BITMAP
00
00
00
00
00
06
09
08
46
81
81
82
7C
00
48
00
ENDCHAR
STARTCHAR U+064B
ENCODING 1611
SWIDTH 500 0
DWIDTH 8 0
BBX 8 16 0 -2
BITMAP
0C
38
60
0C
38
60
00
00
00
00
00
00
00
00
00
00
ENDCHAR
STARTCHAR U+064C
ENCODING 1612
SWIDTH 500 0
DWIDTH 8 0
BBX 8 16 0 -2
BITMAP
00
36
36
12
12
24
00
00
00
00
00
00
00
00
00
00
ENDCHAR
STARTCHAR U+064D
ENCODING 1613
SWIDTH 500 0
DWIDTH 8 0
BBX 8 16 0 -2
BITMAP
00
00
00
00
00
00
00
00
00
0C
38
60
0C
38
60
00
ENDCHAR
STARTCHAR U+064E
ENCODING 1614
SWIDTH 500 0
DWIDTH 8 0
BBX 8 16 0 -2
BITMAP
00
0C
38
60
00
00
00
00
00
00
00
00
00
00
00
00
ENDCHAR
STARTCHAR U+064F
ENCODING 1615
SWIDTH 500 0
DWIDTH 8 0
BBX 8 16 0 -2
BITMAP
00
18
18
08
08
10
00
00
00
00
00
00
00
00
00
00
ENDCHAR
STARTCHAR U+0650
ENCODING 1616
SWIDTH 500 0
DWIDTH 8 0
BBX 8 16 0 -2
BITMAP
00
00
00
00
00
00
00
00
00
00
00
00
0C
38
60
00
ENDCHAR
STARTCHAR U+0651
ENCODING 1617
SWIDTH 500 0
DWIDTH 8 0
BBX 8 16 0 -2
BITMAP
22
49
36
00
00
00
00
00
00
00
00
00
00
00
00
00
ENDCHAR
STARTCHAR U+0652
ENCODING 1618
SWIDTH 500 0
DWIDTH 8 0
BBX 8 16 0 -2
BITMAP
00
00
00
00
06
09
11
12
0C
00
00
00
00
00
00
00
ENDCHAR
STARTCHAR U+0660
ENCODING 1632
SWIDTH 500 0
DWIDTH 8 0
BBX 8 16 0 -2
BITMAP
00
00
00
00
00
10
38
10
00
00
00
00
00
00
00
00
ENDCHAR
STARTCHAR U+0661
ENCODING 1633
SWIDTH 500 0
DWIDTH 8 0
BBX 8 16 0 -2
BITMAP
00
20
20
20
10
10
10
08
08
08
04
04
04
04
00
00
ENDCHAR
STARTCHAR U+0662
ENCODING 1634
SWIDTH 500 0
DWIDTH 8 0
BBX 8 16 0 -2
BITMAP
00
82
82
84
44
48
30
10
10
08
08
08
08
08
00
00
ENDCHAR
STARTCHAR U+0663
ENCODING 1635
SWIDTH 500 0
DWIDTH 8 0
BBX 8 16 0 -2
BITMAP
00
92
92
94
FC
48
40
40
20
20
20
10
10
10
00
00
ENDCHAR
STARTCHAR U+0664
ENCODING 1636
SWIDTH 500 0
DWIDTH 8 0
BBX 8 16 0 -2
BITMAP
00
00
04
0C
10
20
10
08
10
20
40
40
26
3C
00
00
ENDCHAR
STARTCHAR U+0665
ENCODING 1637
SWIDTH 500 0
DWIDTH 8 0
BBX 8 16 0 -2
BITMAP
00
00
18
18
24
24
42
42
42
42
24
18
18
00
00
00
ENDCHAR
STARTCHAR U+0666
ENCODING 1638
SWIDTH 500 0
DWIDTH 8 0
BBX 8 16 0 -2
BITMAP
00
40
40
3C
04
04
04
04
04
06
02
02
02
02
00
00
ENDCHAR
STARTCHAR U+0667
ENCODING 1639
SWIDTH 500 0
DWIDTH 8 0
BBX 8 16 0 -2
BITMAP
00
00
82
82
82
44
44
44
28
28
28
10
10
10
00
00
ENDCHAR
STARTCHAR U+0668
ENCODING 1640
SWIDTH 500 0
DWIDTH 8 0
BBX 8 16 0 -2
BITMAP
00
00
10
10
10
28
28
28
44
44
44
82
82
82
00
00
ENDCHAR
STARTCHAR U+0669
ENCODING 1641
SWIDTH 500 0
DWIDTH 8 0
BBX 8 16 0 -2
BITMAP
00
30
48
48
88
88
98
68
04
04
04
02
02
02
00
00
ENDCHAR
STARTCHAR U+10D0
ENCODING 4304
SWIDTH 500 0
DWIDTH 8 0
BBX 8 16 0 -2
BITMAP
00
00
00
00
00
00
00
10
10
0C
02
02
42
3C
00
00
ENDCHAR
STARTCHAR U+10D1
ENCODING 4305
SWIDTH 500 0
DWIDTH 8 0
BBX 8 16 0 -2
BITMAP
00
00
00
00
20
30
10
10
3C
42
42
42
42
3C
00
00
ENDCHAR
STARTCHAR U+10D2
ENCODING 4306
SWIDTH 500 0
DWIDTH 8 0
BBX 8 16 0 -2
BITMAP
00
00
00
00
00
30
48
48
08
08
3C
42
42
42
42
3C
ENDCHAR
STARTCHAR U+10D3
ENCODING 4307
SWIDTH 500 0
DWIDTH 8 0
BBX 8 16 0 -2
BITMAP
00
00
00
00
00
00
00
2C
52
52
52
52
4C
20
1C
02
ENDCHAR
STARTCHAR U+10D4
ENCODING 4308
SWIDTH 500 0
DWIDTH 8 0
BBX 8 16 0 -2
BITMAP
00
00
00
00
3C
42
42
02
02
02
02
02
02
42
42
3C
ENDCHAR
STARTCHAR U+10D5
ENCODING 4309
SWIDTH 500 0
DWIDTH 8 0
BBX 8 16 0 -2
BITMAP
00
00
00
00
00
00
3C
42
42
02
1C
02
02
42
42
3C
ENDCHAR
STARTCHAR U+10D6
ENCODING 4310
SWIDTH 500 0
DWIDTH 8 0
BBX 8 16 0 -2
BITMAP
00
00
00
00
20
50
50
54
38
1C
12
12
12
0C
00
00
ENDCHAR
STARTCHAR U+10D7
ENCODING 4311
SWIDTH 500 0
DWIDTH 8 0
BBX 8 16 0 -2
BITMAP
00
00
00
00
00
00
00
34
4A
4A
4A
4A
4A
32
00
00
ENDCHAR
STARTCHAR U+10D8
ENCODING 4312
SWIDTH 500 0
DWIDTH 8 0
BBX 8 16 0 -2
BITMAP
00
00
00
00
00
00
00
3C
42
42
42
42
42
24
00
00
ENDCHAR
STARTCHAR U+10D9
ENCODING 4313
SWIDTH 500 0
DWIDTH 8 0
BBX 8 16 0 -2
BITMAP
00
00
00
00
00
00
0C
02
02
02
1C
02
02
42
42
3C
ENDCHAR
STARTCHAR U+10DA
ENCODING 4314
SWIDTH 500 0
DWIDTH 8 0
BBX 8 16 0 -2
BITMAP
00
00
00
00
00
00
00
2A
55
55
55
41
42
40
3E
01
ENDCHAR
STARTCHAR U+10DB
ENCODING 4315
SWIDTH 500 0
DWIDTH 8 0
BBX 8 16 0 -2
BITMAP
00
00
00
00
3C
42
42
02
02
3E
42
42
42
3C
00
00
ENDCHAR
STARTCHAR U+10DC
ENCODING 4316
SWIDTH 500 0
DWIDTH 8 0
BBX 8 16 0 -2
BITMAP
00
00
00
00
02
3C
40
40
40
7C
42
42
42
3C
00
00
ENDCHAR
STARTCHAR U+10DD
ENCODING 4317
SWIDTH 500 0
DWIDTH 8 0
BBX 8 16 0 -2
BITMAP
00
00
00
00
00
00
00
28
54
54
54
54
44
24
00
00
ENDCHAR
STARTCHAR U+10DE
ENCODING 4318
SWIDTH 500 0
DWIDTH 8 0
BBX 8 16 0 -2
BITMAP
00
00
00
00
20
18
04
02
02
1C
02
42
42
3C
00
00
ENDCHAR
STARTCHAR U+10DF
ENCODING 4319
SWIDTH 500 0
DWIDTH 8 0
BBX 8 16 0 -2
BITMAP
00
00
00
00
00
00
00
06
0A
52
52
22
02
22
22
1C
ENDCHAR
STARTCHAR U+10E0
ENCODING 4320
SWIDTH 500 0
DWIDTH 8 0
BBX 8 16 0 -2
BITMAP
00
00
00
00
04
38
40
68
54
54
54
54
44
24
00
00
ENDCHAR
STARTCHAR U+10E1
ENCODING 4321
SWIDTH 500 0
DWIDTH 8 0
BBX 8 16 0 -2
BITMAP
00
00
00
00
40
40
40
48
50
48
44
44
44
38
00
00
ENDCHAR
STARTCHAR U+10E2
ENCODING 4322
SWIDTH 500 0
DWIDTH 8 0
BBX 8 16 0 -2
BITMAP
00
00
00
00
18
24
24
3C
66
66
5A
42
42
42
42
3C
ENDCHAR
STARTCHAR U+10E3
ENCODING 4323
SWIDTH 500 0
DWIDTH 8 0
BBX 8 16 0 -2
BITMAP
00
00
00
00
00
00
00
6C
12
12
02
02
02
22
22
1C
ENDCHAR
STARTCHAR U+10E4
ENCODING 4324
SWIDTH 500 0
DWIDTH 8 0
BBX 8 16 0 -2
BITMAP
00
00
00
00
00
00
00
34
4A
4A
4A
4A
34
02
02
1C
ENDCHAR
STARTCHAR U+10E5
ENCODING 4325
SWIDTH 500 0
DWIDTH 8 0
BBX 8 16 0 -2
BITMAP
00
00
00
00
04
0C
04
04
04
1C
24
04
04
04
44
38
ENDCHAR
STARTCHAR U+10E6
ENCODING 4326
SWIDTH 500 0
DWIDTH 8 0
BBX 8 16 0 -2
BITMAP
00
00
00
00
00
00
00
28
54
54
54
44
48
40
38
04
ENDCHAR
STARTCHAR U+10E7
ENCODING 4327
SWIDTH 500 0
DWIDTH 8 0
BBX 8 16 0 -2
BITMAP
00
00
00
00
00
00
00
22
42
42
42
26
1A
42
42
3C
ENDCHAR
STARTCHAR U+10E8
ENCODING 4328
SWIDTH 500 0
DWIDTH 8 0
BBX 8 16 0 -2
BITMAP
00
00
00
00
28
54
54
04
04
1C
24
24
24
18
00
00
ENDCHAR
STARTCHAR U+10E9
ENCODING 4329
SWIDTH 500 0
DWIDTH 8 0
BBX 8 16 0 -2
BITMAP
00
00
00
00
38
44
78
40
5C
62
42
42
42
42
00
00
ENDCHAR
STARTCHAR U+10EA
ENCODING 4330
SWIDTH 500 0
DWIDTH 8 0
BBX 8 16 0 -2
BITMAP
00
00
00
00
00
00
4C
42
42
42
5C
42
42
42
42
3C
ENDCHAR
STARTCHAR U+10EB
ENCODING 4331
SWIDTH 500 0
DWIDTH 8 0
BBX 8 16 0 -2
BITMAP
00
00
00
00
04
02
02
02
02
3E
42
42
42
3C
00
00
ENDCHAR
STARTCHAR U+10EC
ENCODING 4332
SWIDTH 500 0
DWIDTH 8 0
BBX 8 16 0 -2
BITMAP
00
00
00
00
28
54
54
40
40
7C
44
44
28
28
10
10
ENDCHAR
STARTCHAR U+10ED
ENCODING 4333
SWIDTH 500 0
DWIDTH 8 0
BBX 8 16 0 -2
BITMAP
00
00
00
00
08
18
28
08
08
19
26
1D
04
04
44
38
ENDCHAR
STARTCHAR U+10EE
ENCODING 4334
SWIDTH 500 0
DWIDTH 8 0
BBX 8 16 0 -2
BITMAP
00
00
00
00
40
40
40
48
50
78
44
44
44
38
00
00
ENDCHAR
STARTCHAR U+10EF
ENCODING 4335
SWIDTH 500 0
DWIDTH 8 0
BBX 8 16 0 -2
BITMAP
00
00
00
00
00
00
00
00
42
24
18
18
24
42
20
40
ENDCHAR
STARTCHAR U+10F0
ENCODING 4336
SWIDTH 500 0
DWIDTH 8 0
BBX 8 16 0 -2
BITMAP
00
00
10
0C
02
12
0C
02
12
0C
02
42
42
3C
00
00
ENDCHAR
STARTCHAR U+10F1
ENCODING 4337
SWIDTH 500 0
DWIDTH 8 0
BBX 8 16 0 -2
BITMAP
00
00
50
4C
42
52
4C
42
52
4C
42
42
42
3C
00
00
ENDCHAR
STARTCHAR U+10F2
ENCODING 4338
SWIDTH 500 0
DWIDTH 8 0
BBX 8 16 0 -2
BITMAP
00
00
00
00
00
00
3C
42
42
42
42
24
18
7E
00
00
ENDCHAR
STARTCHAR U+10F3
ENCODING 4339
SWIDTH 500 0
DWIDTH 8 0
BBX 8 16 0 -2
BITMAP
00
00
00
00
00
00
3E
02
04
08
1C
02
02
42
42
3C
ENDCHAR
STARTCHAR U+10F4
ENCODING 4340
SWIDTH 500 0
DWIDTH 8 0
BBX 8 16 0 -2
BITMAP
00
00
00
00
08
10
0C
02
02
02
1C
02
02
42
42
3C
ENDCHAR
STARTCHAR U+10F5
ENCODING 4341
SWIDTH 500 0
DWIDTH 8 0
BBX 8 16 0 -2
BITMAP
00
00
00
00
00
38
44
44
3E
04
3E
44
44
38
00
00
ENDCHAR
STARTCHAR U+10F6
ENCODING 4342
SWIDTH 500 0
DWIDTH 8 0
BBX 8 16 0 -2
BITMAP
00
00
00
00
20
10
10
10
38
54
54
38
10
10
10
08
ENDCHAR
STARTCHAR U+10FB
ENCODING 4347
SWIDTH 500 0
DWIDTH 8 0
BBX 8 16 0 -2
BITMAP
00
00
00
00
00
00
30
30
06
06
30
30
00
00
00
00
ENDCHAR
STARTCHAR U+1E00
ENCODING 7680
SWIDTH 500 0
DWIDTH 8 0
BBX 8 16 0 -2
BITMAP
00
00
00
00
18
24
24
42
42
7E
42
42
42
5A
24
18
ENDCHAR
STARTCHAR U+1E01
ENCODING 7681
SWIDTH 500 0
DWIDTH 8 0
BBX 8 16 0 -2
BITMAP
00
00
00
00
00
00
3C
42
02
3E
42
46
3A
18
24
18
ENDCHAR
STARTCHAR U+1E02
ENCODING 7682
SWIDTH 500 0
DWIDTH 8 0
BBX 8 16 0 -2
BITMAP
10
10
00
00
7C
42
42
42
7C
42
42
42
42
7C
00
00
ENDCHAR
STARTCHAR U+1E03
ENCODING 7683
SWIDTH 500 0
DWIDTH 8 0
BBX 8 16 0 -2
BITMAP
10
10
00
40
40
40
5C
62
42
42
42
42
62
5C
00
00
ENDCHAR
STARTCHAR U+1E04
ENCODING 7684
SWIDTH 500 0
DWIDTH 8 0
BBX 8 16 0 -2
BITMAP
00
00
00
00
7C
42
42
42
7C
42
42
42
42
7C
00
18
ENDCHAR
STARTCHAR U+1E05
ENCODING 7685
SWIDTH 500 0
DWIDTH 8 0
BBX 8 16 0 -2
BITMAP
00
00
00
40
40
40
5C
62
42
42
42
42
62
5C
00
18
ENDCHAR
STARTCHAR U+1E06
ENCODING 7686
SWIDTH 500 0
DWIDTH 8 0
BBX 8 16 0 -2
BITMAP
00
00
00
00
7C
42
42
42
7C
42
42
42
42
7C
00
7E
ENDCHAR
STARTCHAR U+1E07
ENCODING 7687
SWIDTH 500 0
DWIDTH 8 0
BBX 8 16 0 -2
BITMAP
00
00
00
40
40
40
5C
62
42
42
42
42
62
5C
00
7E
ENDCHAR
STARTCHAR U+1E08
ENCODING 7688
SWIDTH 500 0
DWIDTH 8 0
BBX 8 16 0 -2
BITMAP
0C
30
00
00
3C
42
42
40
40
40
40
42
42
3C
08
30
ENDCHAR
STARTCHAR U+1E09
ENCODING 7689
SWIDTH 500 0
DWIDTH 8 0
BBX 8 16 0 -2
BITMAP
00
00
0C
30
00
00
3C
42
40
40
40
40
42
3C
08
30
ENDCHAR
STARTCHAR U+1E0A
ENCODING 7690
SWIDTH 500 0
DWIDTH 8 0
BBX 8 16 0 -2
BITMAP
10
10
00
00
78
44
42
42
42
42
42
42
44
78
00
00
ENDCHAR
STARTCHAR U+1E0B
ENCODING 7691
SWIDTH 500 0
DWIDTH 8 0
BBX 8 16 0 -2
BITMAP
08
08
00
02
02
02
3A
46
42
42
42
42
46
3A
00
00
ENDCHAR
STARTCHAR U+1E0C
ENCODING 7692
SWIDTH 500 0
DWIDTH 8 0
BBX 8 16 0 -2
BITMAP
00
00
00
00
78
44
42
42
42
42
42
42
44
78
00
18
ENDCHAR
STARTCHAR U+1E0D
ENCODING 7693
SWIDTH 500 0
DWIDTH 8 0
BBX 8 16 0 -2
BITMAP
00
00
00
02
02
02
3A
46
42
42
42
42
46
3A
00
18
ENDCHAR
STARTCHAR U+1E0E
ENCODING 7694
SWIDTH 500 0
DWIDTH 8 0
BBX 8 16 0 -2
BITMAP
00
00
00
00
78
44
42
42
42
42
42
42
44
78
00
7E
ENDCHAR
STARTCHAR U+1E0F
ENCODING 7695
SWIDTH 500 0
DWIDTH 8 0
BBX 8 16 0 -2
BITMAP
00
00
00
02
02
02
3A
46
42
42
42
42
46
3A
00
7E
ENDCHAR
STARTCHAR U+1E10
ENCODING 7696
SWIDTH 500 0
DWIDTH 8 0
BBX 8 16 0 -2
BITMAP
00
00
00
00
78
44
42
42
42
42
42
42
44
78
10
60
ENDCHAR
STARTCHAR U+1E11
ENCODING 7697
SWIDTH 500 0
DWIDTH 8 0
BBX 8 16 0 -2
BITMAP
00
00
00
02
02
02
3A
46
42
42
42
42
46
3A
10
60
ENDCHAR
STARTCHAR U+1E12
ENCODING 7698
SWIDTH 500 0
DWIDTH 8 0
BBX 8 16 0 -2
BITMAP
00
00
00
00
78
44
42
42
42
42
42
42
44
78
18
24
ENDCHAR
STARTCHAR U+1E13
ENCODING 7699
SWIDTH 500 0
DWIDTH 8 0
BBX 8 16 0 -2
BITMAP
00
00
00
02
02
02
3A
46
42
42
42
42
46
3A
18
24
ENDCHAR
STARTCHAR U+1E14
ENCODING 7700
SWIDTH 500 0
DWIDTH 8 0
BBX 8 16 0 -2
BITMAP
30
0C
00
3C
00
7E
40
40
40
7C
40
40
40
7E
00
00
ENDCHAR
STARTCHAR U+1E15
ENCODING 7701
SWIDTH 500 0
DWIDTH 8 0
BBX 8 16 0 -2
BITMAP
00
30
0C
00
3C
00
3C
42
42
7E
40
40
42
3C
00
00
ENDCHAR
STARTCHAR U+1E16
ENCODING 7702
SWIDTH 500 0
DWIDTH 8 0
BBX 8 16 0 -2
BITMAP
0C
30
00
3C
00
7E
40
40
40
7C
40
40
40
7E
00
00
ENDCHAR
STARTCHAR U+1E17
ENCODING 7703
SWIDTH 500 0
DWIDTH 8 0
BBX 8 16 0 -2
BITMAP
00
0C
30
00
3C
00
3C
42
42
7E
40
40
42
3C
00
00
ENDCHAR
STARTCHAR U+1E18
ENCODING 7704
SWIDTH 500 0
DWIDTH 8 0
BBX 8 16 0 -2
BITMAP
00
00
00
00
7E
40
40
40
7C
40
40
40
40
7E
18
24
ENDCHAR
STARTCHAR U+1E19
ENCODING 7705
SWIDTH 500 0
DWIDTH 8 0
BBX 8 16 0 -2
BITMAP
00
00
00
00
00
00
3C
42
42
7E
40
40
42
3C
18
24
ENDCHAR
STARTCHAR U+1E1A
ENCODING 7706
SWIDTH 500 0
DWIDTH 8 0
BBX 8 16 0 -2
BITMAP
00
00
00
00
7E
40
40
40
7C
40
40
40
7E
00
32
4C
ENDCHAR
STARTCHAR U+1E1B
ENCODING 7707
SWIDTH 500 0
DWIDTH 8 0
BBX 8 16 0 -2
BITMAP
00
00
00
00
00
00
3C
42
42
7E
40
42
3C
00
32
4C
ENDCHAR
STARTCHAR U+1E1C
ENCODING 7708
SWIDTH 500 0
DWIDTH 8 0
BBX 8 16 0 -2
BITMAP
42
42
3C
00
7E
40
40
40
7C
40
40
40
40
7E
08
30
ENDCHAR
STARTCHAR U+1E1D
ENCODING 7709
SWIDTH 500 0
DWIDTH 8 0
BBX 8 16 0 -2
BITMAP
00
42
42
3C
00
00
3C
42
42
7E
40
40
42
3C
08
30
ENDCHAR
STARTCHAR U+1E1E
ENCODING 7710
SWIDTH 500 0
DWIDTH 8 0
BBX 8 16 0 -2
BITMAP
10
10
00
00
7E
40
40
40
7C
40
40
40
40
40
00
00
ENDCHAR
STARTCHAR U+1E1F
ENCODING 7711
SWIDTH 500 0
DWIDTH 8 0
BBX 8 16 0 -2
BITMAP
08
08
00
0C
10
10
10
7C
10
10
10
10
10
10
00
00
ENDCHAR
STARTCHAR U+1E20
ENCODING 7712
SWIDTH 500 0
DWIDTH 8 0
BBX 8 16 0 -2
BITMAP
00
3C
00
00
3C
42
42
40
40
4E
42
42
46
3A
00
00
ENDCHAR
STARTCHAR U+1E21
ENCODING 7713
SWIDTH 500 0
DWIDTH 8 0
BBX 8 16 0 -2
BITMAP
00
00
00
3C
00
02
3A
44
44
44
38
20
3C
42
42
3C
ENDCHAR
STARTCHAR U+1E22
ENCODING 7714
SWIDTH 500 0
DWIDTH 8 0
BBX 8 16 0 -2
BITMAP
10
10
00
00
42
42
42
42
7E
42
42
42
42
42
00
00
ENDCHAR
STARTCHAR U+1E23
ENCODING 7715
SWIDTH 500 0
DWIDTH 8 0
BBX 8 16 0 -2
BITMAP
10
10
00
40
40
40
5C
62
42
42
42
42
42
42
00
00
ENDCHAR
STARTCHAR U+1E24
ENCODING 7716
SWIDTH 500 0
DWIDTH 8 0
BBX 8 16 0 -2
BITMAP
00
00
00
00
42
42
42
42
7E
42
42
42
42
42
00
18
ENDCHAR
STARTCHAR U+1E25
ENCODING 7717
SWIDTH 500 0
DWIDTH 8 0
BBX 8 16 0 -2
BITMAP
00
00
00
40
40
40
5C
62
42
42
42
42
42
42
00
18
ENDCHAR
STARTCHAR U+1E26
ENCODING 7718
SWIDTH 500 0
DWIDTH 8 0
BBX 8 16 0 -2
BITMAP
24
24
00
00
42
42
42
42
7E
42
42
42
42
42
00
00
ENDCHAR
STARTCHAR U+1E27
ENCODING 7719
SWIDTH 500 0
DWIDTH 8 0
BBX 8 16 0 -2
BITMAP
24
24
00
40
40
40
5C
62
42
42
42
42
42
42
00
00
ENDCHAR
STARTCHAR U+1E28
ENCODING 7720
SWIDTH 500 0
DWIDTH 8 0
BBX 8 16 0 -2
BITMAP
00
00
00
00
42
42
42
42
7E
42
42
42
42
42
20
C0
ENDCHAR
STARTCHAR U+1E29
ENCODING 7721
SWIDTH 500 0
DWIDTH 8 0
BBX 8 16 0 -2
BITMAP
00
00
00
40
40
40
5C
62
42
42
42
42
42
42
20
C0
ENDCHAR
STARTCHAR U+1E2A
ENCODING 7722
SWIDTH 500 0
DWIDTH 8 0
BBX 8 16 0 -2
BITMAP
00
00
00
00
42
42
42
42
7E
42
42
42
42
00
42
3C
ENDCHAR
STARTCHAR U+1E2B
ENCODING 7723
SWIDTH 500 0
DWIDTH 8 0
BBX 8 16 0 -2
BITMAP
00
00
00
40
40
40
5C
62
42
42
42
42
42
00
42
3C
ENDCHAR
STARTCHAR U+1E2C
ENCODING 7724
SWIDTH 500 0
DWIDTH 8 0
BBX 8 16 0 -2
BITMAP
00
00
00
00
3E
08
08
08
08
08
08
08
3E
00
32
4C
ENDCHAR
STARTCHAR U+1E2D
ENCODING 7725
SWIDTH 500 0
DWIDTH 8 0
BBX 8 16 0 -2
BITMAP
00
00
00
08
08
00
18
08
08
08
08
08
3E
00
32
4C
ENDCHAR
STARTCHAR U+1E2E
ENCODING 7726
SWIDTH 500 0
DWIDTH 8 0
BBX 8 16 0 -2
BITMAP
06
18
00
36
00
3E
08
08
08
08
08
08
08
3E
00
00
ENDCHAR
STARTCHAR U+1E2F
ENCODING 7727
SWIDTH 500 0
DWIDTH 8 0
BBX 8 16 0 -2
BITMAP
0C
30
00
24
24
00
18
08
08
08
08
08
08
3E
00
00
ENDCHAR
STARTCHAR U+1E30
ENCODING 7728
SWIDTH 500 0
DWIDTH 8 0
BBX 8 16 0 -2
BITMAP
0C
30
00
00
42
44
48
50
60
60
50
48
44
42
00
00
ENDCHAR
STARTCHAR U+1E31
ENCODING 7729
SWIDTH 500 0
DWIDTH 8 0
BBX 8 16 0 -2
BITMAP
0C
30
00
00
40
40
44
48
50
60
50
48
44
42
00
00
ENDCHAR
STARTCHAR U+1E32
ENCODING 7730
SWIDTH 500 0
DWIDTH 8 0
BBX 8 16 0 -2
BITMAP
00
00
00
00
42
44
48
50
60
60
50
48
44
42
00
18
ENDCHAR
STARTCHAR U+1E33
ENCODING 7731
SWIDTH 500 0
DWIDTH 8 0
BBX 8 16 0 -2
BITMAP
00
00
00
00
40
40
44
48
50
60
50
48
44
42
00
18
ENDCHAR
STARTCHAR U+1E34
ENCODING 7732
SWIDTH 500 0
DWIDTH 8 0
BBX 8 16 0 -2
BITMAP
00
00
00
00
42
44
48
50
60
60
50
48
44
42
00
7E
ENDCHAR
STARTCHAR U+1E35
ENCODING 7733
SWIDTH 500 0
DWIDTH 8 0
BBX 8 16 0 -2
BITMAP
00
00
00
00
40
40
44
48
50
60
50
48
44
42
00
7E
ENDCHAR
STARTCHAR U+1E36
ENCODING 7734
SWIDTH 500 0
DWIDTH 8 0
BBX 8 16 0 -2
BITMAP
00
00
00
00
40
40
40
40
40
40
40
40
40
7E
00
18
ENDCHAR
STARTCHAR U+1E37
ENCODING 7735
SWIDTH 500 0
DWIDTH 8 0
BBX 8 16 0 -2
BITMAP
00
00
00
00
18
08
08
08
08
08
08
08
08
3E
00
0C
ENDCHAR
STARTCHAR U+1E38
ENCODING 7736
SWIDTH 500 0
DWIDTH 8 0
BBX 8 16 0 -2
BITMAP
00
00
78
00
40
40
40
40
40
40
40
40
40
7E
00
18
ENDCHAR
STARTCHAR U+1E39
ENCODING 7737
SWIDTH 500 0
DWIDTH 8 0
BBX 8 16 0 -2
BITMAP
00
3C
00
00
18
08
08
08
08
08
08
08
08
3E
00
0C
ENDCHAR
STARTCHAR U+1E3A
ENCODING 7738
SWIDTH 500 0
DWIDTH 8 0
BBX 8 16 0 -2
BITMAP
00
00
00
00
40
40
40
40
40
40
40
40
40
7E
00
7E
ENDCHAR
STARTCHAR U+1E3B
ENCODING 7739
SWIDTH 500 0
DWIDTH 8 0
BBX 8 16 0 -2
BITMAP
00
00
00
00
18
08
08
08
08
08
08
08
08
3E
00
3E
ENDCHAR
STARTCHAR U+1E3C
ENCODING 7740
SWIDTH 500 0
DWIDTH 8 0
BBX 8 16 0 -2
BITMAP
00
00
00
00
40
40
40
40
40
40
40
40
40
7E
18
24
ENDCHAR
STARTCHAR U+1E3D
ENCODING 7741
SWIDTH 500 0
DWIDTH 8 0
BBX 8 16 0 -2
BITMAP
00
00
00
00
18
08
08
08
08
08
08
08
08
3E
0C
12
ENDCHAR
STARTCHAR U+1E3E
ENCODING 7742
SWIDTH 500 0
DWIDTH 8 0
BBX 8 16 0 -2
BITMAP
0C
30
00
00
42
42
66
66
5A
5A
42
42
42
42
00
00
ENDCHAR
STARTCHAR U+1E3F
ENCODING 7743
SWIDTH 500 0
DWIDTH 8 0
BBX 8 16 0 -2
BITMAP
00
00
06
18
00
00
76
49
49
49
49
49
49
49
00
00
ENDCHAR
STARTCHAR U+1E40
ENCODING 7744
SWIDTH 500 0
DWIDTH 8 0
BBX 8 16 0 -2
BITMAP
10
10
00
00
42
42
66
66
5A
5A
42
42
42
42
00
00
ENDCHAR
STARTCHAR U+1E41
ENCODING 7745
SWIDTH 500 0
DWIDTH 8 0
BBX 8 16 0 -2
BITMAP
00
00
08
08
00
00
76
49
49
49
49
49
49
49
00
00
ENDCHAR
STARTCHAR U+1E42
ENCODING 7746
SWIDTH 500 0
DWIDTH 8 0
BBX 8 16 0 -2
BITMAP
00
00
00
00
42
42
66
66
5A
5A
42
42
42
42
00
18
ENDCHAR
STARTCHAR U+1E43
ENCODING 7747
SWIDTH 500 0
DWIDTH 8 0
BBX 8 16 0 -2
BITMAP
00
00
00
00
00
00
76
49
49
49
49
49
49
49
00
18
ENDCHAR
STARTCHAR U+1E44
ENCODING 7748
SWIDTH 500 0
DWIDTH 8 0
BBX 8 16 0 -2
BITMAP
10
10
00
00
42
62
62
52
52
4A
4A
46
46
42
00
00
ENDCHAR
STARTCHAR U+1E45
ENCODING 7749
SWIDTH 500 0
DWIDTH 8 0
BBX 8 16 0 -2
BITMAP
00
00
10
10
00
00
5C
62
42
42
42
42
42
42
00
00
ENDCHAR
STARTCHAR U+1E46
ENCODING 7750
SWIDTH 500 0
DWIDTH 8 0
BBX 8 16 0 -2
BITMAP
00
00
00
00
42
62
62
52
52
4A
4A
46
46
42
00
18
ENDCHAR
STARTCHAR U+1E47
ENCODING 7751
SWIDTH 500 0
DWIDTH 8 0
BBX 8 16 0 -2
BITMAP
00
00
00
00
00
00
5C
62
42
42
42
42
42
42
00
18
ENDCHAR
STARTCHAR U+1E48
ENCODING 7752
SWIDTH 500 0
DWIDTH 8 0
BBX 8 16 0 -2
BITMAP
00
00
00
00
42
62
62
52
52
4A
4A
46
46
42
00
7E
ENDCHAR
STARTCHAR U+1E49
ENCODING 7753
SWIDTH 500 0
DWIDTH 8 0
BBX 8 16 0 -2
BITMAP
00
00
00
00
00
00
5C
62
42
42
42
42
42
42
00
7E
ENDCHAR
STARTCHAR U+1E4A
ENCODING 7754
SWIDTH 500 0
DWIDTH 8 0
BBX 8 16 0 -2
BITMAP
00
00
00
00
42
62
62
52
52
4A
4A
46
46
42
18
24
ENDCHAR
STARTCHAR U+1E4B
ENCODING 7755
SWIDTH 500 0
DWIDTH 8 0
BBX 8 16 0 -2
BITMAP
00
00
00
00
00
00
5C
62
42
42
42
42
42
42
18
24
ENDCHAR
STARTCHAR U+1E4C
ENCODING 7756
SWIDTH 500 0
DWIDTH 8 0
BBX 8 16 0 -2
BITMAP
0C
30
32
4C
00
3C
42
42
42
42
42
42
42
3C
00
00
ENDCHAR
STARTCHAR U+1E4D
ENCODING 7757
SWIDTH 500 0
DWIDTH 8 0
BBX 8 16 0 -2
BITMAP
0C
30
00
32
4C
00
3C
42
42
42
42
42
42
3C
00
00
ENDCHAR
STARTCHAR U+1E4E
ENCODING 7758
SWIDTH 500 0
DWIDTH 8 0
BBX 8 16 0 -2
BITMAP
24
00
32
4C
00
3C
42
42
42
42
42
42
42
3C
00
00
ENDCHAR
STARTCHAR U+1E4F
ENCODING 7759
SWIDTH 500 0
DWIDTH 8 0
BBX 8 16 0 -2
BITMAP
24
24
00
32
4C
00
3C
42
42
42
42
42
42
3C
00
00
ENDCHAR
STARTCHAR U+1E50
ENCODING 7760
SWIDTH 500 0
DWIDTH 8 0
BBX 8 16 0 -2
BITMAP
30
0C
00
3C
00
3C
42
42
42
42
42
42
42
3C
00
00
ENDCHAR
STARTCHAR U+1E51
ENCODING 7761
SWIDTH 500 0
DWIDTH 8 0
BBX 8 16 0 -2
BITMAP
00
30
0C
00
3C
00
3C
42
42
42
42
42
42
3C
00
00
ENDCHAR
STARTCHAR U+1E52
ENCODING 7762
SWIDTH 500 0
DWIDTH 8 0
BBX 8 16 0 -2
BITMAP
0C
30
00
3C
00
3C
42
42
42
42
42
42
42
3C
00
00
ENDCHAR
STARTCHAR U+1E53
ENCODING 7763
SWIDTH 500 0
DWIDTH 8 0
BBX 8 16 0 -2
BITMAP
00
0C
30
00
3C
00
3C
42
42
42
42
42
42
3C
00
00
ENDCHAR
STARTCHAR U+1E54
ENCODING 7764
SWIDTH 500 0
DWIDTH 8 0
BBX 8 16 0 -2
BITMAP
0C
30
00
00
7C
42
42
42
7C
40
40
40
40
40
00
00
ENDCHAR
STARTCHAR U+1E55
ENCODING 7765
SWIDTH 500 0
DWIDTH 8 0
BBX 8 16 0 -2
BITMAP
00
00
0C
30
00
00
5C
62
42
42
42
42
62
5C
40
40
ENDCHAR
STARTCHAR U+1E56
ENCODING 7766
SWIDTH 500 0
DWIDTH 8 0
BBX 8 16 0 -2
BITMAP
10
10
00
00
7C
42
42
42
7C
40
40
40
40
40
00
00
ENDCHAR
STARTCHAR U+1E57
ENCODING 7767
SWIDTH 500 0
DWIDTH 8 0
BBX 8 16 0 -2
BITMAP
00
00
08
08
00
00
5C
62
42
42
42
42
62
5C
40
40
ENDCHAR
STARTCHAR U+1E58
ENCODING 7768
SWIDTH 500 0
DWIDTH 8 0
BBX 8 16 0 -2
BITMAP
10
10
00
00
7C
42
42
42
7C
48
44
44
42
42
00
00
ENDCHAR
STARTCHAR U+1E59
ENCODING 7769
SWIDTH 500 0
DWIDTH 8 0
BBX 8 16 0 -2
BITMAP
00
00
10
10
00
00
5C
62
42
40
40
40
40
40
00
00
ENDCHAR
STARTCHAR U+1E5A
ENCODING 7770
SWIDTH 500 0
DWIDTH 8 0
BBX 8 16 0 -2
BITMAP
00
00
00
00
7C
42
42
42
7C
48
44
44
42
42
00
18
ENDCHAR
STARTCHAR U+1E5B
ENCODING 7771
SWIDTH 500 0
DWIDTH 8 0
BBX 8 16 0 -2
BITMAP
00
00
00
00
00
00
5C
62
42
40
40
40
40
40
00
18
ENDCHAR
STARTCHAR U+1E5C
ENCODING 7772
SWIDTH 500 0
DWIDTH 8 0
BBX 8 16 0 -2
BITMAP
00
3C
00
00
7C
42
42
42
7C
48
44
44
42
42
00
18
ENDCHAR
STARTCHAR U+1E5D
ENCODING 7773
SWIDTH 500 0
DWIDTH 8 0
BBX 8 16 0 -2
BITMAP
00
00
00
3C
00
00
5C
62
42
40
40
40
40
40
00
18
ENDCHAR
STARTCHAR U+1E5E
ENCODING 7774
SWIDTH 500 0
DWIDTH 8 0
BBX 8 16 0 -2
BITMAP
00
00
00
00
7C
42
42
42
7C
48
44
44
42
42
00
7E
ENDCHAR
STARTCHAR U+1E5F
ENCODING 7775
SWIDTH 500 0
DWIDTH 8 0
BBX 8 16 0 -2
BITMAP
00
00
00
00
00
00
5C
62
42
40
40
40
40
40
00
7E
ENDCHAR
STARTCHAR U+1E60
ENCODING 7776
SWIDTH 500 0
DWIDTH 8 0
BBX 8 16 0 -2
BITMAP
10
10
00
00
3C
42
42
40
30
0C
02
42
42
3C
00
00
ENDCHAR
STARTCHAR U+1E61
ENCODING 7777
SWIDTH 500 0
DWIDTH 8 0
BBX 8 16 0 -2
BITMAP
00
00
10
10
00
00
3C
42
40
30
0C
02
42
3C
00
00
ENDCHAR
STARTCHAR U+1E62
ENCODING 7778
SWIDTH 500 0
DWIDTH 8 0
BBX 8 16 0 -2
BITMAP
00
00
00
00
3C
42
42
40
30
0C
02
42
42
3C
00
18
ENDCHAR
STARTCHAR U+1E63
ENCODING 7779
SWIDTH 500 0
DWIDTH 8 0
BBX 8 16 0 -2
BITMAP
00
00
00
00
00
00
3C
42
40
30
0C
02
42
3C
00
18
ENDCHAR
STARTCHAR U+1E64
ENCODING 7780
SWIDTH 500 0
DWIDTH 8 0
BBX 8 16 0 -2
BITMAP
10
10
0C
30
00
3C
42
40
30
0C
02
42
42
3C
00
00
ENDCHAR
STARTCHAR U+1E65
ENCODING 7781
SWIDTH 500 0
DWIDTH 8 0
BBX 8 16 0 -2
BITMAP
10
10
00
0C
30
00
3C
42
40
30
0C
02
42
3C
00
00
ENDCHAR
STARTCHAR U+1E66
ENCODING 7782
SWIDTH 500 0
DWIDTH 8 0
BBX 8 16 0 -2
BITMAP
10
10
24
18
00
3C
42
40
30
0C
02
42
42
3C
00
00
ENDCHAR
STARTCHAR U+1E67
ENCODING 7783
SWIDTH 500 0
DWIDTH 8 0
BBX 8 16 0 -2
BITMAP
10
10
00
24
18
00
3C
42
40
30
0C
02
42
3C
00
00
ENDCHAR
STARTCHAR U+1E68
ENCODING 7784
SWIDTH 500 0
DWIDTH 8 0
BBX 8 16 0 -2
BITMAP
10
10
00
00
3C
42
42
40
30
0C
02
42
42
3C
00
18
ENDCHAR
STARTCHAR U+1E69
ENCODING 7785
SWIDTH 500 0
DWIDTH 8 0
BBX 8 16 0 -2
BITMAP
00
00
10
10
00
00
3C
42
40
30
0C
02
42
3C
00
18
ENDCHAR
STARTCHAR U+1E6A
ENCODING 7786
SWIDTH 500 0
DWIDTH 8 0
BBX 8 16 0 -2
BITMAP
08
08
00
00
7F
08
08
08
08
08
08
08
08
08
00
00
ENDCHAR
STARTCHAR U+1E6B
ENCODING 7787
SWIDTH 500 0
DWIDTH 8 0
BBX 8 16 0 -2
BITMAP
10
10
00
00
10
10
7C
10
10
10
10
10
10
0C
00
00
ENDCHAR
STARTCHAR U+1E6C
ENCODING 7788
SWIDTH 500 0
DWIDTH 8 0
BBX 8 16 0 -2
BITMAP
00
00
00
00
7F
08
08
08
08
08
08
08
08
08
00
18
ENDCHAR
STARTCHAR U+1E6D
ENCODING 7789
SWIDTH 500 0
DWIDTH 8 0
BBX 8 16 0 -2
BITMAP
00
00
00
00
10
10
7C
10
10
10
10
10
10
0C
00
18
ENDCHAR
STARTCHAR U+1E6E
ENCODING 7790
SWIDTH 500 0
DWIDTH 8 0
BBX 8 16 0 -2
BITMAP
00
00
00
00
7F
08
08
08
08
08
08
08
08
08
00
3E
ENDCHAR
STARTCHAR U+1E6F
ENCODING 7791
SWIDTH 500 0
DWIDTH 8 0
BBX 8 16 0 -2
BITMAP
00
00
00
00
10
10
7C
10
10
10
10
10
10
0C
00
3C
ENDCHAR
STARTCHAR U+1E70
ENCODING 7792
SWIDTH 500 0
DWIDTH 8 0
BBX 8 16 0 -2
BITMAP
00
00
00
00
7F
08
08
08
08
08
08
08
08
00
0C
12
ENDCHAR
STARTCHAR U+1E71
ENCODING 7793
SWIDTH 500 0
DWIDTH 8 0
BBX 8 16 0 -2
BITMAP
00
00
00
00
10
10
7C
10
10
10
10
10
10
0C
18
24
ENDCHAR
STARTCHAR U+1E72
ENCODING 7794
SWIDTH 500 0
DWIDTH 8 0
BBX 8 16 0 -2
BITMAP
00
00
00
00
42
42
42
42
42
42
42
42
42
3C
00
66
ENDCHAR
STARTCHAR U+1E73
ENCODING 7795
SWIDTH 500 0
DWIDTH 8 0
BBX 8 16 0 -2
BITMAP
00
00
00
00
00
00
42
42
42
42
42
42
46
3A
00
66
ENDCHAR
STARTCHAR U+1E74
ENCODING 7796
SWIDTH 500 0
DWIDTH 8 0
BBX 8 16 0 -2
BITMAP
00
00
00
00
42
42
42
42
42
42
42
42
3C
00
32
4C
ENDCHAR
STARTCHAR U+1E75
ENCODING 7797
SWIDTH 500 0
DWIDTH 8 0
BBX 8 16 0 -2
BITMAP
00
00
00
00
00
00
42
42
42
42
42
46
3A
00
32
4C
ENDCHAR
STARTCHAR U+1E76
ENCODING 7798
SWIDTH 500 0
DWIDTH 8 0
BBX 8 16 0 -2
BITMAP
00
00
00
00
42
42
42
42
42
42
42
42
42
3C
18
24
ENDCHAR
STARTCHAR U+1E77
ENCODING 7799
SWIDTH 500 0
DWIDTH 8 0
BBX 8 16 0 -2
BITMAP
00
00
00
00
00
00
42
42
42
42
42
42
46
3A
18
24
ENDCHAR
STARTCHAR U+1E78
ENCODING 7800
SWIDTH 500 0
DWIDTH 8 0
BBX 8 16 0 -2
BITMAP
0C
30
32
4C
00
42
42
42
42
42
42
42
42
3C
00
00
ENDCHAR
STARTCHAR U+1E79
ENCODING 7801
SWIDTH 500 0
DWIDTH 8 0
BBX 8 16 0 -2
BITMAP
0C
30
00
32
4C
00
42
42
42
42
42
42
46
3A
00
00
ENDCHAR
STARTCHAR U+1E7A
ENCODING 7802
SWIDTH 500 0
DWIDTH 8 0
BBX 8 16 0 -2
BITMAP
24
24
00
3C
00
42
42
42
42
42
42
42
42
3C
00
00
ENDCHAR
STARTCHAR U+1E7B
ENCODING 7803
SWIDTH 500 0
DWIDTH 8 0
BBX 8 16 0 -2
BITMAP
00
24
24
00
3C
00
42
42
42
42
42
42
46
3A
00
00
ENDCHAR
STARTCHAR U+1E7C
ENCODING 7804
SWIDTH 500 0
DWIDTH 8 0
BBX 8 16 0 -2
BITMAP
32
4C
00
00
41
41
41
22
22
22
14
14
08
08
00
00
ENDCHAR
STARTCHAR U+1E7D
ENCODING 7805
SWIDTH 500 0
DWIDTH 8 0
BBX 8 16 0 -2
BITMAP
00
00
32
4C
00
00
42
42
42
24
24
24
18
18
00
00
ENDCHAR
STARTCHAR U+1E7E
ENCODING 7806
SWIDTH 500 0
DWIDTH 8 0
BBX 8 16 0 -2
BITMAP
00
00
00
00
41
41
41
22
22
22
14
14
08
08
00
0C
ENDCHAR
STARTCHAR U+1E7F
ENCODING 7807
SWIDTH 500 0
DWIDTH 8 0
BBX 8 16 0 -2
BITMAP
00
00
00
00
00
00
42
42
42
24
24
24
18
18
00
18
ENDCHAR
STARTCHAR U+1E80
ENCODING 7808
SWIDTH 500 0
DWIDTH 8 0
BBX 8 16 0 -2
BITMAP
30
0C
00
00
42
42
42
42
5A
5A
66
66
42
42
00
00
ENDCHAR
STARTCHAR U+1E81
ENCODING 7809
SWIDTH 500 0
DWIDTH 8 0
BBX 8 16 0 -2
BITMAP
00
00
30
0C
00
00
41
49
49
49
49
49
49
36
00
00
ENDCHAR
STARTCHAR U+1E82
ENCODING 7810
SWIDTH 500 0
DWIDTH 8 0
BBX 8 16 0 -2
BITMAP
0C
30
00
00
42
42
42
5A
5A
66
66
42
42
00
00
00
ENDCHAR
STARTCHAR U+1E83
ENCODING 7811
SWIDTH 500 0
DWIDTH 8 0
BBX 8 16 0 -2
BITMAP
00
00
06
18
00
00
41
49
49
49
49
49
49
36
00
00
ENDCHAR
STARTCHAR U+1E84
ENCODING 7812
SWIDTH 500 0
DWIDTH 8 0
BBX 8 16 0 -2
BITMAP
24
24
00
00
42
42
42
42
5A
5A
66
66
42
42
00
00
ENDCHAR
STARTCHAR U+1E85
ENCODING 7813
SWIDTH 500 0
DWIDTH 8 0
BBX 8 16 0 -2
BITMAP
00
00
12
12
00
00
41
49
49
49
49
49
49
36
00
00
ENDCHAR
STARTCHAR U+1E86
ENCODING 7814
SWIDTH 500 0
DWIDTH 8 0
BBX 8 16 0 -2
BITMAP
10
10
00
00
42
42
42
42
5A
5A
66
66
42
42
00
00
ENDCHAR
STARTCHAR U+1E87
ENCODING 7815
SWIDTH 500 0
DWIDTH 8 0
BBX 8 16 0 -2
BITMAP
00
00
08
08
00
00
41
49
49
49
49
49
49
36
00
00
ENDCHAR
STARTCHAR U+1E88
ENCODING 7816
SWIDTH 500 0
DWIDTH 8 0
BBX 8 16 0 -2
BITMAP
00
00
00
00
42
42
42
42
5A
5A
66
66
42
42
00
18
ENDCHAR
STARTCHAR U+1E89
ENCODING 7817
SWIDTH 500 0
DWIDTH 8 0
BBX 8 16 0 -2
BITMAP
00
00
00
00
00
00
41
49
49
49
49
49
49
36
00
0C
ENDCHAR
STARTCHAR U+1E8A
ENCODING 7818
SWIDTH 500 0
DWIDTH 8 0
BBX 8 16 0 -2
BITMAP
10
10
00
00
42
42
24
24
18
18
24
24
42
42
00
00
ENDCHAR
STARTCHAR U+1E8B
ENCODING 7819
SWIDTH 500 0
DWIDTH 8 0
BBX 8 16 0 -2
BITMAP
00
00
10
10
00
00
42
42
24
18
18
24
42
42
00
00
ENDCHAR
STARTCHAR U+1E8C
ENCODING 7820
SWIDTH 500 0
DWIDTH 8 0
BBX 8 16 0 -2
BITMAP
24
24
00
00
42
42
24
24
18
18
24
24
42
42
00
00
ENDCHAR
STARTCHAR U+1E8D
ENCODING 7821
SWIDTH 500 0
DWIDTH 8 0
BBX 8 16 0 -2
BITMAP
00
00
24
24
00
00
42
42
24
18
18
24
42
42
00
00
ENDCHAR
STARTCHAR U+1E8E
ENCODING 7822
SWIDTH 500 0
DWIDTH 8 0
BBX 8 16 0 -2
BITMAP
08
08
00
00
41
41
22
22
14
08
08
08
08
08
00
00
ENDCHAR
STARTCHAR U+1E8F
ENCODING 7823
SWIDTH 500 0
DWIDTH 8 0
BBX 8 16 0 -2
BITMAP
00
00
08
08
00
00
42
42
42
42
42
26
1A
02
02
3C
ENDCHAR
STARTCHAR U+1E90
ENCODING 7824
SWIDTH 500 0
DWIDTH 8 0
BBX 8 16 0 -2
BITMAP
18
24
00
00
7E
02
02
04
08
10
20
40
40
7E
00
00
ENDCHAR
STARTCHAR U+1E91
ENCODING 7825
SWIDTH 500 0
DWIDTH 8 0
BBX 8 16 0 -2
BITMAP
00
00
18
24
00
00
7E
02
04
08
10
20
40
7E
00
00
ENDCHAR
STARTCHAR U+1E92
ENCODING 7826
SWIDTH 500 0
DWIDTH 8 0
BBX 8 16 0 -2
BITMAP
00
00
00
00
7E
02
02
04
08
10
20
40
40
7E
00
18
ENDCHAR
STARTCHAR U+1E93
ENCODING 7827
SWIDTH 500 0
DWIDTH 8 0
BBX 8 16 0 -2
BITMAP
00
00
00
00
00
00
7E
02
04
08
10
20
40
7E
00
18
ENDCHAR
STARTCHAR U+1E94
ENCODING 7828
SWIDTH 500 0
DWIDTH 8 0
BBX 8 16 0 -2
BITMAP
00
00
00
00
7E
02
02
04
08
10
20
40
40
7E
00
7E
ENDCHAR
STARTCHAR U+1E95
ENCODING 7829
SWIDTH 500 0
DWIDTH 8 0
BBX 8 16 0 -2
BITMAP
00
00
00
00
00
00
7E
02
04
08
10
20
40
7E
00
7E
ENDCHAR
STARTCHAR U+1E96
ENCODING 7830
SWIDTH 500 0
DWIDTH 8 0
BBX 8 16 0 -2
BITMAP
00
00
00
40
40
40
5C
62
42
42
42
42
42
42
00
7E
ENDCHAR
STARTCHAR U+1E97
ENCODING 7831
SWIDTH 500 0
DWIDTH 8 0
BBX 8 16 0 -2
BITMAP
24
24
00
00
10
10
7C
10
10
10
10
10
10
0C
00
00
ENDCHAR
STARTCHAR U+1E98
ENCODING 7832
SWIDTH 500 0
DWIDTH 8 0
BBX 8 16 0 -2
BITMAP
00
00
0C
12
0C
00
41
49
49
49
49
49
49
36
00
00
ENDCHAR
STARTCHAR U+1E99
ENCODING 7833
SWIDTH 500 0
DWIDTH 8 0
BBX 8 16 0 -2
BITMAP
00
00
18
24
18
00
42
42
42
42
42
26
1A
02
02
3C
ENDCHAR
STARTCHAR U+1E9A
ENCODING 7834
SWIDTH 500 0
DWIDTH 8 0
BBX 8 16 0 -2
BITMAP
00
00
04
02
04
00
3C
42
02
3E
42
42
46
3A
00
00
ENDCHAR
STARTCHAR U+1E9B
ENCODING 7835
SWIDTH 500 0
DWIDTH 8 0
BBX 8 16 0 -2
BITMAP
10
10
00
0C
10
10
10
30
10
10
10
10
10
10
00
00
ENDCHAR
STARTCHAR U+1EA0
ENCODING 7840
SWIDTH 500 0
DWIDTH 8 0
BBX 8 16 0 -2
BITMAP
00
00
00
00
18
24
24
42
42
7E
42
42
42
42
00
18
ENDCHAR
STARTCHAR U+1EA1
ENCODING 7841
SWIDTH 500 0
DWIDTH 8 0
BBX 8 16 0 -2
BITMAP
00
00
00
00
00
00
3C
42
02
3E
42
42
46
3A
00
18
ENDCHAR
STARTCHAR U+1EA2
ENCODING 7842
SWIDTH 500 0
DWIDTH 8 0
BBX 8 16 0 -2
BITMAP
18
08
00
00
18
24
24
42
42
7E
42
42
42
42
00
00
ENDCHAR
STARTCHAR U+1EA3
ENCODING 7843
SWIDTH 500 0
DWIDTH 8 0
BBX 8 16 0 -2
BITMAP
00
00
18
08
00
00
3C
42
02
3E
42
42
46
3A
00
00
ENDCHAR
STARTCHAR U+1EA4
ENCODING 7844
SWIDTH 500 0
DWIDTH 8 0
BBX 8 16 0 -2
BITMAP
31
4A
00
00
18
24
24
42
42
7E
42
42
42
42
00
00
ENDCHAR
STARTCHAR U+1EA5
ENCODING 7845
SWIDTH 500 0
DWIDTH 8 0
BBX 8 16 0 -2
BITMAP
00
00
31
4A
00
00
3C
42
02
3E
42
42
46
3A
00
00
ENDCHAR
STARTCHAR U+1EA6
ENCODING 7846
SWIDTH 500 0
DWIDTH 8 0
BBX 8 16 0 -2
BITMAP
46
29
00
00
18
24
24
42
42
7E
42
42
42
42
00
00
ENDCHAR
STARTCHAR U+1EA7
ENCODING 7847
SWIDTH 500 0
DWIDTH 8 0
BBX 8 16 0 -2
BITMAP
00
00
46
29
00
00
3C
42
02
3E
42
42
46
3A
00
00
ENDCHAR
STARTCHAR U+1EA8
ENCODING 7848
SWIDTH 500 0
DWIDTH 8 0
BBX 8 16 0 -2
BITMAP
33
49
00
00
18
24
24
42
42
7E
42
42
42
42
00
00
ENDCHAR
STARTCHAR U+1EA9
ENCODING 7849
SWIDTH 500 0
DWIDTH 8 0
BBX 8 16 0 -2
BITMAP
00
00
33
49
00
00
3C
42
02
3E
42
42
46
3A
00
00
ENDCHAR
STARTCHAR U+1EAA
ENCODING 7850
SWIDTH 500 0
DWIDTH 8 0
BBX 8 16 0 -2
BITMAP
32
4C
18
24
00
18
24
24
42
7E
42
42
42
42
00
00
ENDCHAR
STARTCHAR U+1EAB
ENCODING 7851
SWIDTH 500 0
DWIDTH 8 0
BBX 8 16 0 -2
BITMAP
32
4C
00
18
24
00
3C
42
02
3E
42
42
46
3A
00
00
ENDCHAR
STARTCHAR U+1EAC
ENCODING 7852
SWIDTH 500 0
DWIDTH 8 0
BBX 8 16 0 -2
BITMAP
18
24
00
00
18
24
24
42
42
7E
42
42
42
42
00
18
ENDCHAR
STARTCHAR U+1EAD
ENCODING 7853
SWIDTH 500 0
DWIDTH 8 0
BBX 8 16 0 -2
BITMAP
00
00
18
24
00
00
3C
42
02
3E
42
42
46
3A
00
18
ENDCHAR
STARTCHAR U+1EAE
ENCODING 7854
SWIDTH 500 0
DWIDTH 8 0
BBX 8 16 0 -2
BITMAP
08
10
42
3C
00
18
24
24
42
7E
42
42
42
42
00
00
ENDCHAR
STARTCHAR U+1EAF
ENCODING 7855
SWIDTH 500 0
DWIDTH 8 0
BBX 8 16 0 -2
BITMAP
0C
30
00
42
3C
00
3C
42
02
3E
42
42
46
3A
00
00
ENDCHAR
STARTCHAR U+1EB0
ENCODING 7856
SWIDTH 500 0
DWIDTH 8 0
BBX 8 16 0 -2
BITMAP
10
08
42
3C
00
18
24
24
42
7E
42
42
42
42
00
00
ENDCHAR
STARTCHAR U+1EB1
ENCODING 7857
SWIDTH 500 0
DWIDTH 8 0
BBX 8 16 0 -2
BITMAP
30
0C
00
42
3C
00
3C
42
02
3E
42
42
46
3A
00
00
ENDCHAR
STARTCHAR U+1EB2
ENCODING 7858
SWIDTH 500 0
DWIDTH 8 0
BBX 8 16 0 -2
BITMAP
18
08
42
3C
00
18
24
24
42
7E
42
42
42
42
00
00
ENDCHAR
STARTCHAR U+1EB3
ENCODING 7859
SWIDTH 500 0
DWIDTH 8 0
BBX 8 16 0 -2
BITMAP
18
08
00
42
3C
00
3C
42
02
3E
42
42
46
3A
00
00
ENDCHAR
STARTCHAR U+1EB4
ENCODING 7860
SWIDTH 500 0
DWIDTH 8 0
BBX 8 16 0 -2
BITMAP
32
4C
42
3C
00
18
24
24
42
7E
42
42
42
42
00
00
ENDCHAR
STARTCHAR U+1EB5
ENCODING 7861
SWIDTH 500 0
DWIDTH 8 0
BBX 8 16 0 -2
BITMAP
32
4C
00
42
3C
00
3C
42
02
3E
42
42
46
3A
00
00
ENDCHAR
STARTCHAR U+1EB6
ENCODING 7862
SWIDTH 500 0
DWIDTH 8 0
BBX 8 16 0 -2
BITMAP
42
42
3C
00
18
24
24
42
42
7E
42
42
42
42
00
18
ENDCHAR
STARTCHAR U+1EB7
ENCODING 7863
SWIDTH 500 0
DWIDTH 8 0
BBX 8 16 0 -2
BITMAP
00
00
42
42
3C
00
3C
42
02
3E
42
42
46
3A
00
18
ENDCHAR
STARTCHAR U+1EB8
ENCODING 7864
SWIDTH 500 0
DWIDTH 8 0
BBX 8 16 0 -2
BITMAP
00
00
00
00
7E
40
40
40
7C
40
40
40
40
7E
00
18
ENDCHAR
STARTCHAR U+1EB9
ENCODING 7865
SWIDTH 500 0
DWIDTH 8 0
BBX 8 16 0 -2
BITMAP
00
00
00
00
00
00
3C
42
42
7E
40
40
42
3C
00
18
ENDCHAR
STARTCHAR U+1EBA
ENCODING 7866
SWIDTH 500 0
DWIDTH 8 0
BBX 8 16 0 -2
BITMAP
18
08
00
00
7E
40
40
40
7C
40
40
40
40
7E
00
00
ENDCHAR
STARTCHAR U+1EBB
ENCODING 7867
SWIDTH 500 0
DWIDTH 8 0
BBX 8 16 0 -2
BITMAP
00
00
18
08
00
00
3C
42
42
7E
40
40
42
3C
00
00
ENDCHAR
STARTCHAR U+1EBC
ENCODING 7868
SWIDTH 500 0
DWIDTH 8 0
BBX 8 16 0 -2
BITMAP
32
4C
00
00
7E
40
40
40
7C
40
40
40
40
7E
00
00
ENDCHAR
STARTCHAR U+1EBD
ENCODING 7869
SWIDTH 500 0
DWIDTH 8 0
BBX 8 16 0 -2
BITMAP
00
00
32
4C
00
00
3C
42
42
7E
40
40
42
3C
00
00
ENDCHAR
STARTCHAR U+1EBE
ENCODING 7870
SWIDTH 500 0
DWIDTH 8 0
BBX 8 16 0 -2
BITMAP
31
4A
00
00
7E
40
40
40
7C
40
40
40
40
7E
00
00
ENDCHAR
STARTCHAR U+1EBF
ENCODING 7871
SWIDTH 500 0
DWIDTH 8 0
BBX 8 16 0 -2
BITMAP
00
00
31
4A
00
00
3C
42
42
7E
40
40
42
3C
00
00
ENDCHAR
STARTCHAR U+1EC0
ENCODING 7872
SWIDTH 500 0
DWIDTH 8 0
BBX 8 16 0 -2
BITMAP
46
29
00
00
7E
40
40
40
7C
40
40
40
40
7E
00
00
ENDCHAR
STARTCHAR U+1EC1
ENCODING 7873
SWIDTH 500 0
DWIDTH 8 0
BBX 8 16 0 -2
BITMAP
00
00
46
29
00
00
3C
42
42
7E
40
40
42
3C
00
00
ENDCHAR
STARTCHAR U+1EC2
ENCODING 7874
SWIDTH 500 0
DWIDTH 8 0
BBX 8 16 0 -2
BITMAP
33
49
00
00
7E
40
40
40
7C
40
40
40
40
7E
00
00
ENDCHAR
STARTCHAR U+1EC3
ENCODING 7875
SWIDTH 500 0
DWIDTH 8 0
BBX 8 16 0 -2
BITMAP
00
00
33
49
00
00
3C
42
42
7E
40
40
42
3C
00
00
ENDCHAR
STARTCHAR U+1EC4
ENCODING 7876
SWIDTH 500 0
DWIDTH 8 0
BBX 8 16 0 -2
BITMAP
32
4C
18
24
00
7E
40
40
40
7C
40
40
40
7E
00
00
ENDCHAR
STARTCHAR U+1EC5
ENCODING 7877
SWIDTH 500 0
DWIDTH 8 0
BBX 8 16 0 -2
BITMAP
32
4C
00
18
24
00
3C
42
42
7E
40
40
42
3C
00
00
ENDCHAR
STARTCHAR U+1EC6
ENCODING 7878
SWIDTH 500 0
DWIDTH 8 0
BBX 8 16 0 -2
BITMAP
18
24
00
00
7E
40
40
40
7C
40
40
40
40
7E
00
18
ENDCHAR
STARTCHAR U+1EC7
ENCODING 7879
SWIDTH 500 0
DWIDTH 8 0
BBX 8 16 0 -2
BITMAP
00
00
18
24
00
00
3C
42
42
7E
40
40
42
3C
00
18
ENDCHAR
STARTCHAR U+1EC8
ENCODING 7880
SWIDTH 500 0
DWIDTH 8 0
BBX 8 16 0 -2
BITMAP
18
08
00
00
3E
08
08
08
08
08
08
08
08
3E
00
00
ENDCHAR
STARTCHAR U+1EC9
ENCODING 7881
SWIDTH 500 0
DWIDTH 8 0
BBX 8 16 0 -2
BITMAP
00
00
00
18
08
00
18
08
08
08
08
08
08
3E
00
00
ENDCHAR
STARTCHAR U+1ECA
ENCODING 7882
SWIDTH 500 0
DWIDTH 8 0
BBX 8 16 0 -2
BITMAP
00
00
00
00
3E
08
08
08
08
08
08
08
08
3E
00
18
ENDCHAR
STARTCHAR U+1ECB
ENCODING 7883
SWIDTH 500 0
DWIDTH 8 0
BBX 8 16 0 -2
BITMAP
00
00
00
08
08
00
18
08
08
08
08
08
08
3E
00
18
ENDCHAR
STARTCHAR U+1ECC
ENCODING 7884
SWIDTH 500 0
DWIDTH 8 0
BBX 8 16 0 -2
BITMAP
00
00
00
00
3C
42
42
42
42
42
42
42
42
3C
00
18
ENDCHAR
STARTCHAR U+1ECD
ENCODING 7885
SWIDTH 500 0
DWIDTH 8 0
BBX 8 16 0 -2
BITMAP
00
00
00
00
00
00
3C
42
42
42
42
42
42
3C
00
18
ENDCHAR
STARTCHAR U+1ECE
ENCODING 7886
SWIDTH 500 0
DWIDTH 8 0
BBX 8 16 0 -2
BITMAP
18
08
00
00
3C
42
42
42
42
42
42
42
42
3C
00
00
ENDCHAR
STARTCHAR U+1ECF
ENCODING 7887
SWIDTH 500 0
DWIDTH 8 0
BBX 8 16 0 -2
BITMAP
00
00
18
08
00
00
3C
42
42
42
42
42
42
3C
00
00
ENDCHAR
STARTCHAR U+1ED0
ENCODING 7888
SWIDTH 500 0
DWIDTH 8 0
BBX 8 16 0 -2
BITMAP
31
4A
00
00
3C
42
42
42
42
42
42
42
42
3C
00
00
ENDCHAR
STARTCHAR U+1ED1
ENCODING 7889
SWIDTH 500 0
DWIDTH 8 0
BBX 8 16 0 -2
BITMAP
00
00
31
4A
00
00
3C
42
42
42
42
42
42
3C
00
00
ENDCHAR
STARTCHAR U+1ED2
ENCODING 7890
SWIDTH 500 0
DWIDTH 8 0
BBX 8 16 0 -2
BITMAP
46
29
00
00
3C
42
42
42
42
42
42
42
42
3C
00
00
ENDCHAR
STARTCHAR U+1ED3
ENCODING 7891
SWIDTH 500 0
DWIDTH 8 0
BBX 8 16 0 -2
BITMAP
00
00
46
29
00
00
3C
42
42
42
42
42
42
3C
00
00
ENDCHAR
STARTCHAR U+1ED4
ENCODING 7892
SWIDTH 500 0
DWIDTH 8 0
BBX 8 16 0 -2
BITMAP
33
49
00
00
3C
42
42
42
42
42
42
42
42
3C
00
00
ENDCHAR
STARTCHAR U+1ED5
ENCODING 7893
SWIDTH 500 0
DWIDTH 8 0
BBX 8 16 0 -2
BITMAP
00
00
33
49
00
00
3C
42
42
42
42
42
42
3C
00
00
ENDCHAR
STARTCHAR U+1ED6
ENCODING 7894
SWIDTH 500 0
DWIDTH 8 0
BBX 8 16 0 -2
BITMAP
32
4C
18
24
00
3C
42
42
42
42
42
42
42
3C
00
00
ENDCHAR
STARTCHAR U+1ED7
ENCODING 7895
SWIDTH 500 0
DWIDTH 8 0
BBX 8 16 0 -2
BITMAP
32
4C
00
18
24
00
3C
42
42
42
42
42
42
3C
00
00
ENDCHAR
STARTCHAR U+1ED8
ENCODING 7896
SWIDTH 500 0
DWIDTH 8 0
BBX 8 16 0 -2
BITMAP
18
24
00
00
3C
42
42
42
42
42
42
42
42
3C
00
18
ENDCHAR
STARTCHAR U+1ED9
ENCODING 7897
SWIDTH 500 0
DWIDTH 8 0
BBX 8 16 0 -2
BITMAP
00
00
18
24
00
00
3C
42
42
42
42
42
42
3C
00
18
ENDCHAR
STARTCHAR U+1EDA
ENCODING 7898
SWIDTH 500 0
DWIDTH 8 0
BBX 8 16 0 -2
BITMAP
0C
30
00
02
3A
44
44
44
44
44
44
44
44
38
00
00
ENDCHAR
STARTCHAR U+1EDB
ENCODING 7899
SWIDTH 500 0
DWIDTH 8 0
BBX 8 16 0 -2
BITMAP
00
00
0C
30
00
02
3A
44
44
44
44
44
44
38
00
00
ENDCHAR
STARTCHAR U+1EDC
ENCODING 7900
SWIDTH 500 0
DWIDTH 8 0
BBX 8 16 0 -2
BITMAP
30
0C
00
02
3A
44
44
44
44
44
44
44
44
38
00
00
ENDCHAR
STARTCHAR U+1EDD
ENCODING 7901
SWIDTH 500 0
DWIDTH 8 0
BBX 8 16 0 -2
BITMAP
00
00
30
0C
00
02
3A
44
44
44
44
44
44
38
00
00
ENDCHAR
STARTCHAR U+1EDE
ENCODING 7902
SWIDTH 500 0
DWIDTH 8 0
BBX 8 16 0 -2
BITMAP
18
08
00
02
3A
44
44
44
44
44
44
44
44
38
00
00
ENDCHAR
STARTCHAR U+1EDF
ENCODING 7903
SWIDTH 500 0
DWIDTH 8 0
BBX 8 16 0 -2
BITMAP
00
00
18
08
00
02
3A
44
44
44
44
44
44
38
00
00
ENDCHAR
STARTCHAR U+1EE0
ENCODING 7904
SWIDTH 500 0
DWIDTH 8 0
BBX 8 16 0 -2
BITMAP
32
4C
00
02
3A
44
44
44
44
44
44
44
44
38
00
00
ENDCHAR
STARTCHAR U+1EE1
ENCODING 7905
SWIDTH 500 0
DWIDTH 8 0
BBX 8 16 0 -2
BITMAP
00
00
32
4C
00
02
3A
44
44
44
44
44
44
38
00
00
ENDCHAR
STARTCHAR U+1EE2
ENCODING 7906
SWIDTH 500 0
DWIDTH 8 0
BBX 8 16 0 -2
BITMAP
00
00
00
02
3A
44
44
44
44
44
44
44
44
38
00
18
ENDCHAR
STARTCHAR U+1EE3
ENCODING 7907
SWIDTH 500 0
DWIDTH 8 0
BBX 8 16 0 -2
BITMAP
00
00
00
00
00
02
3A
44
44
44
44
44
44
38
00
18
ENDCHAR
STARTCHAR U+1EE4
ENCODING 7908
SWIDTH 500 0
DWIDTH 8 0
BBX 8 16 0 -2
BITMAP
00
00
00
00
42
42
42
42
42
42
42
42
42
3C
00
18
ENDCHAR
STARTCHAR U+1EE5
ENCODING 7909
SWIDTH 500 0
DWIDTH 8 0
BBX 8 16 0 -2
BITMAP
00
00
00
00
00
00
42
42
42
42
42
42
46
3A
00
18
ENDCHAR
STARTCHAR U+1EE6
ENCODING 7910
SWIDTH 500 0
DWIDTH 8 0
BBX 8 16 0 -2
BITMAP
18
08
00
00
42
42
42
42
42
42
42
42
42
3C
00
00
ENDCHAR
STARTCHAR U+1EE7
ENCODING 7911
SWIDTH 500 0
DWIDTH 8 0
BBX 8 16 0 -2
BITMAP
00
00
18
08
00
00
42
42
42
42
42
42
46
3A
00
00
ENDCHAR
STARTCHAR U+1EE8
ENCODING 7912
SWIDTH 500 0
DWIDTH 8 0
BBX 8 16 0 -2
BITMAP
0C
30
01
01
46
44
44
44
44
44
44
44
44
38
00
00
ENDCHAR
STARTCHAR U+1EE9
ENCODING 7913
SWIDTH 500 0
DWIDTH 8 0
BBX 8 16 0 -2
BITMAP
00
00
0C
30
01
01
46
44
44
44
44
44
4C
34
00
00
ENDCHAR
STARTCHAR U+1EEA
ENCODING 7914
SWIDTH 500 0
DWIDTH 8 0
BBX 8 16 0 -2
BITMAP
30
0C
01
01
46
44
44
44
44
44
44
44
44
38
00
00
ENDCHAR
STARTCHAR U+1EEB
ENCODING 7915
SWIDTH 500 0
DWIDTH 8 0
BBX 8 16 0 -2
BITMAP
00
00
30
0C
01
01
46
44
44
44
44
44
4C
34
00
00
ENDCHAR
STARTCHAR U+1EEC
ENCODING 7916
SWIDTH 500 0
DWIDTH 8 0
BBX 8 16 0 -2
BITMAP
30
10
01
01
46
44
44
44
44
44
44
44
44
38
00
00
ENDCHAR
STARTCHAR U+1EED
ENCODING 7917
SWIDTH 500 0
DWIDTH 8 0
BBX 8 16 0 -2
BITMAP
00
00
30
10
01
01
46
44
44
44
44
44
4C
34
00
00
ENDCHAR
STARTCHAR U+1EEE
ENCODING 7918
SWIDTH 500 0
DWIDTH 8 0
BBX 8 16 0 -2
BITMAP
32
4C
01
01
46
44
44
44
44
44
44
44
44
38
00
00
ENDCHAR
STARTCHAR U+1EEF
ENCODING 7919
SWIDTH 500 0
DWIDTH 8 0
BBX 8 16 0 -2
BITMAP
00
00
32
4C
01
01
46
44
44
44
44
44
4C
34
00
00
ENDCHAR
STARTCHAR U+1EF0
ENCODING 7920
SWIDTH 500 0
DWIDTH 8 0
BBX 8 16 0 -2
BITMAP
00
00
01
01
46
44
44
44
44
44
44
44
44
38
00
18
ENDCHAR
STARTCHAR U+1EF1
ENCODING 7921
SWIDTH 500 0
DWIDTH 8 0
BBX 8 16 0 -2
BITMAP
00
00
00
00
01
01
46
44
44
44
44
44
4C
34
00
30
ENDCHAR
STARTCHAR U+1EF2
ENCODING 7922
SWIDTH 500 0
DWIDTH 8 0
BBX 8 16 0 -2
BITMAP
30
0C
00
00
41
41
22
22
14
08
08
08
08
08
00
00
ENDCHAR
STARTCHAR U+1EF3
ENCODING 7923
SWIDTH 500 0
DWIDTH 8 0
BBX 8 16 0 -2
BITMAP
00
00
30
0C
00
00
42
42
42
42
42
26
1A
02
02
3C
ENDCHAR
STARTCHAR U+1EF4
ENCODING 7924
SWIDTH 500 0
DWIDTH 8 0
BBX 8 16 0 -2
BITMAP
00
00
00
00
41
41
22
22
14
08
08
08
08
08
00
18
ENDCHAR
STARTCHAR U+1EF5
ENCODING 7925
SWIDTH 500 0
DWIDTH 8 0
BBX 8 16 0 -2
BITMAP
00
00
00
00
00
00
42
42
42
42
26
1A
02
3C
00
18
ENDCHAR
STARTCHAR U+1EF6
ENCODING 7926
SWIDTH 500 0
DWIDTH 8 0
BBX 8 16 0 -2
BITMAP
18
08
00
00
41
41
22
22
14
08
08
08
08
08
00
00
ENDCHAR
STARTCHAR U+1EF7
ENCODING 7927
SWIDTH 500 0
DWIDTH 8 0
BBX 8 16 0 -2
BITMAP
00
00
18
08
00
00
42
42
42
42
42
26
1A
02
02
3C
ENDCHAR
STARTCHAR U+1EF8
ENCODING 7928
SWIDTH 500 0
DWIDTH 8 0
BBX 8 16 0 -2
BITMAP
32
4C
00
00
41
41
22
22
14
08
08
08
08
08
00
00
ENDCHAR
STARTCHAR U+1EF9
ENCODING 7929
SWIDTH 500 0
DWIDTH 8 0
BBX 8 16 0 -2
BITMAP
00
00
32
4C
00
00
42
42
42
42
42
26
1A
02
02
3C
ENDCHAR
STARTCHAR U+1F00
ENCODING 7936
SWIDTH 500 0
DWIDTH 8 0
BBX 8 16 0 -2
BITMAP
00
00
30
10
20
00
32
4A
44
44
44
44
4A
32
00
00
ENDCHAR
STARTCHAR U+1F01
ENCODING 7937
SWIDTH 500 0
DWIDTH 8 0
BBX 8 16 0 -2
BITMAP
00
00
30
20
10
00
32
4A
44
44
44
44
4A
32
00
00
ENDCHAR
STARTCHAR U+1F02
ENCODING 7938
SWIDTH 500 0
DWIDTH 8 0
BBX 8 16 0 -2
BITMAP
00
00
68
28
44
00
32
4A
44
44
44
44
4A
32
00
00
ENDCHAR
STARTCHAR U+1F03
ENCODING 7939
SWIDTH 500 0
DWIDTH 8 0
BBX 8 16 0 -2
BITMAP
00
00
68
48
24
00
32
4A
44
44
44
44
4A
32
00
00
ENDCHAR
STARTCHAR U+1F04
ENCODING 7940
SWIDTH 500 0
DWIDTH 8 0
BBX 8 16 0 -2
BITMAP
00
00
64
28
48
00
32
4A
44
44
44
44
4A
32
00
00
ENDCHAR
STARTCHAR U+1F05
ENCODING 7941
SWIDTH 500 0
DWIDTH 8 0
BBX 8 16 0 -2
BITMAP
00
00
64
48
28
00
32
4A
44
44
44
44
4A
32
00
00
ENDCHAR
STARTCHAR U+1F06
ENCODING 7942
SWIDTH 500 0
DWIDTH 8 0
BBX 8 16 0 -2
BITMAP
64
98
00
30
10
20
00
32
4A
44
44
44
4A
32
00
00
ENDCHAR
STARTCHAR U+1F07
ENCODING 7943
SWIDTH 500 0
DWIDTH 8 0
BBX 8 16 0 -2
BITMAP
64
98
00
30
20
10
00
32
4A
44
44
44
4A
32
00
00
ENDCHAR
STARTCHAR U+1F08
ENCODING 7944
SWIDTH 500 0
DWIDTH 8 0
BBX 8 16 0 -2
BITMAP
C0
40
80
00
18
24
24
42
42
7E
42
42
42
42
00
00
ENDCHAR
STARTCHAR U+1F09
ENCODING 7945
SWIDTH 500 0
DWIDTH 8 0
BBX 8 16 0 -2
BITMAP
C0
80
40
00
18
24
24
42
42
7E
42
42
42
42
00
00
ENDCHAR
STARTCHAR U+1F0A
ENCODING 7946
SWIDTH 500 0
DWIDTH 8 0
BBX 8 16 0 -2
BITMAP
D0
50
88
00
18
24
24
42
42
7E
42
42
42
42
00
00
ENDCHAR
STARTCHAR U+1F0B
ENCODING 7947
SWIDTH 500 0
DWIDTH 8 0
BBX 8 16 0 -2
BITMAP
D0
90
48
00
18
24
24
42
42
7E
42
42
42
42
00
00
ENDCHAR
STARTCHAR U+1F0C
ENCODING 7948
SWIDTH 500 0
DWIDTH 8 0
BBX 8 16 0 -2
BITMAP
C8
50
90
00
18
24
24
42
42
7E
42
42
42
42
00
00
ENDCHAR
STARTCHAR U+1F0D
ENCODING 7949
SWIDTH 500 0
DWIDTH 8 0
BBX 8 16 0 -2
BITMAP
C8
90
50
00
18
24
24
42
42
7E
42
42
42
42
00
00
ENDCHAR
STARTCHAR U+1F0E
ENCODING 7950
SWIDTH 500 0
DWIDTH 8 0
BBX 8 16 0 -2
BITMAP
64
98
60
20
40
18
24
24
42
7E
42
42
42
42
00
00
ENDCHAR
STARTCHAR U+1F0F
ENCODING 7951
SWIDTH 500 0
DWIDTH 8 0
BBX 8 16 0 -2
BITMAP
64
98
60
40
20
18
24
24
42
7E
42
42
42
42
00
00
ENDCHAR
STARTCHAR U+1F10
ENCODING 7952
SWIDTH 500 0
DWIDTH 8 0
BBX 8 16 0 -2
BITMAP
00
00
18
08
10
00
3C
42
40
3C
40
40
42
3C
00
00
ENDCHAR
STARTCHAR U+1F11
ENCODING 7953
SWIDTH 500 0
DWIDTH 8 0
BBX 8 16 0 -2
BITMAP
00
00
18
10
08
00
3C
42
40
3C
40
40
42
3C
00
00
ENDCHAR
STARTCHAR U+1F12
ENCODING 7954
SWIDTH 500 0
DWIDTH 8 0
BBX 8 16 0 -2
BITMAP
00
00
34
14
22
00
3C
42
40
3C
40
40
42
3C
00
00
ENDCHAR
STARTCHAR U+1F13
ENCODING 7955
SWIDTH 500 0
DWIDTH 8 0
BBX 8 16 0 -2
BITMAP
00
00
34
24
12
00
3C
42
40
3C
40
40
42
3C
00
00
ENDCHAR
STARTCHAR U+1F14
ENCODING 7956
SWIDTH 500 0
DWIDTH 8 0
BBX 8 16 0 -2
BITMAP
00
00
32
14
24
00
3C
42
40
3C
40
40
42
3C
00
00
ENDCHAR
STARTCHAR U+1F15
ENCODING 7957
SWIDTH 500 0
DWIDTH 8 0
BBX 8 16 0 -2
BITMAP
00
00
32
24
14
00
3C
42
40
3C
40
40
42
3C
00
00
ENDCHAR
STARTCHAR U+1F18
ENCODING 7960
SWIDTH 500 0
DWIDTH 8 0
BBX 8 16 0 -2
BITMAP
C0
40
80
00
7E
40
40
40
7C
40
40
40
40
7E
00
00
ENDCHAR
STARTCHAR U+1F19
ENCODING 7961
SWIDTH 500 0
DWIDTH 8 0
BBX 8 16 0 -2
BITMAP
C0
80
40
00
7E
40
40
40
7C
40
40
40
40
7E
00
00
ENDCHAR
STARTCHAR U+1F1A
ENCODING 7962
SWIDTH 500 0
DWIDTH 8 0
BBX 8 16 0 -2
BITMAP
D0
50
88
00
7E
40
40
40
7C
40
40
40
40
7E
00
00
ENDCHAR
STARTCHAR U+1F1B
ENCODING 7963
SWIDTH 500 0
DWIDTH 8 0
BBX 8 16 0 -2
BITMAP
D0
90
48
00
7E
40
40
40
7C
40
40
40
40
7E
00
00
ENDCHAR
STARTCHAR U+1F1C
ENCODING 7964
SWIDTH 500 0
DWIDTH 8 0
BBX 8 16 0 -2
BITMAP
C8
50
90
00
7E
40
40
40
7C
40
40
40
40
7E
00
00
ENDCHAR
STARTCHAR U+1F1D
ENCODING 7965
SWIDTH 500 0
DWIDTH 8 0
BBX 8 16 0 -2
BITMAP
C8
90
50
00
7E
40
40
40
7C
40
40
40
40
7E
00
00
ENDCHAR
STARTCHAR U+1F20
ENCODING 7968
SWIDTH 500 0
DWIDTH 8 0
BBX 8 16 0 -2
BITMAP
00
00
18
08
10
00
5C
62
42
42
42
42
42
42
02
02
ENDCHAR
STARTCHAR U+1F21
ENCODING 7969
SWIDTH 500 0
DWIDTH 8 0
BBX 8 16 0 -2
BITMAP
00
00
18
10
08
00
5C
62
42
42
42
42
42
42
02
02
ENDCHAR
STARTCHAR U+1F22
ENCODING 7970
SWIDTH 500 0
DWIDTH 8 0
BBX 8 16 0 -2
BITMAP
00
00
34
14
22
00
5C
62
42
42
42
42
42
42
02
02
ENDCHAR
STARTCHAR U+1F23
ENCODING 7971
SWIDTH 500 0
DWIDTH 8 0
BBX 8 16 0 -2
BITMAP
00
00
34
24
12
00
5C
62
42
42
42
42
42
42
02
02
ENDCHAR
STARTCHAR U+1F24
ENCODING 7972
SWIDTH 500 0
DWIDTH 8 0
BBX 8 16 0 -2
BITMAP
00
00
32
14
24
00
5C
62
42
42
42
42
42
42
02
02
ENDCHAR
STARTCHAR U+1F25
ENCODING 7973
SWIDTH 500 0
DWIDTH 8 0
BBX 8 16 0 -2
BITMAP
00
00
32
24
14
00
5C
62
42
42
42
42
42
42
02
02
ENDCHAR
STARTCHAR U+1F26
ENCODING 7974
SWIDTH 500 0
DWIDTH 8 0
BBX 8 16 0 -2
BITMAP
32
4C
00
18
08
10
00
5C
62
42
42
42
42
42
02
02
ENDCHAR
STARTCHAR U+1F27
ENCODING 7975
SWIDTH 500 0
DWIDTH 8 0
BBX 8 16 0 -2
BITMAP
32
4C
00
18
10
08
00
5C
62
42
42
42
42
42
02
02
ENDCHAR
STARTCHAR U+1F28
ENCODING 7976
SWIDTH 500 0
DWIDTH 8 0
BBX 8 16 0 -2
BITMAP
C0
40
80
00
42
42
42
42
7E
42
42
42
42
42
00
00
ENDCHAR
STARTCHAR U+1F29
ENCODING 7977
SWIDTH 500 0
DWIDTH 8 0
BBX 8 16 0 -2
BITMAP
C0
80
40
00
42
42
42
42
7E
42
42
42
42
42
00
00
ENDCHAR
STARTCHAR U+1F2A
ENCODING 7978
SWIDTH 500 0
DWIDTH 8 0
BBX 8 16 0 -2
BITMAP
D0
50
88
00
42
42
42
42
7E
42
42
42
42
42
00
00
ENDCHAR
STARTCHAR U+1F2B
ENCODING 7979
SWIDTH 500 0
DWIDTH 8 0
BBX 8 16 0 -2
BITMAP
D0
90
48
00
42
42
42
42
7E
42
42
42
42
42
00
00
ENDCHAR
STARTCHAR U+1F2C
ENCODING 7980
SWIDTH 500 0
DWIDTH 8 0
BBX 8 16 0 -2
BITMAP
C8
50
90
00
42
42
42
42
7E
42
42
42
42
42
00
00
ENDCHAR
STARTCHAR U+1F2D
ENCODING 7981
SWIDTH 500 0
DWIDTH 8 0
BBX 8 16 0 -2
BITMAP
C8
90
50
00
42
42
42
42
7E
42
42
42
42
42
00
00
ENDCHAR
STARTCHAR U+1F2E
ENCODING 7982
SWIDTH 500 0
DWIDTH 8 0
BBX 8 16 0 -2
BITMAP
64
98
60
20
40
42
42
42
7E
42
42
42
42
42
00
00
ENDCHAR
STARTCHAR U+1F2F
ENCODING 7983
SWIDTH 500 0
DWIDTH 8 0
BBX 8 16 0 -2
BITMAP
64
98
60
40
20
42
42
42
7E
42
42
42
42
42
00
00
ENDCHAR
STARTCHAR U+1F30
ENCODING 7984
SWIDTH 500 0
DWIDTH 8 0
BBX 8 16 0 -2
BITMAP
00
00
18
08
10
00
10
10
10
10
10
10
10
0C
00
00
ENDCHAR
STARTCHAR U+1F31
ENCODING 7985
SWIDTH 500 0
DWIDTH 8 0
BBX 8 16 0 -2
BITMAP
00
00
18
10
08
00
10
10
10
10
10
10
10
0C
00
00
ENDCHAR
STARTCHAR U+1F32
ENCODING 7986
SWIDTH 500 0
DWIDTH 8 0
BBX 8 16 0 -2
BITMAP
00
00
68
28
44
00
10
10
10
10
10
10
10
0C
00
00
ENDCHAR
STARTCHAR U+1F33
ENCODING 7987
SWIDTH 500 0
DWIDTH 8 0
BBX 8 16 0 -2
BITMAP
00
00
68
48
24
00
10
10
10
10
10
10
10
0C
00
00
ENDCHAR
STARTCHAR U+1F34
ENCODING 7988
SWIDTH 500 0
DWIDTH 8 0
BBX 8 16 0 -2
BITMAP
00
00
64
28
48
00
10
10
10
10
10
10
10
0C
00
00
ENDCHAR
STARTCHAR U+1F35
ENCODING 7989
SWIDTH 500 0
DWIDTH 8 0
BBX 8 16 0 -2
BITMAP
00
00
64
48
28
00
10
10
10
10
10
10
10
0C
00
00
ENDCHAR
STARTCHAR U+1F36
ENCODING 7990
SWIDTH 500 0
DWIDTH 8 0
BBX 8 16 0 -2
BITMAP
32
4C
00
18
08
10
00
10
10
10
10
10
10
0C
00
00
ENDCHAR
STARTCHAR U+1F37
ENCODING 7991
SWIDTH 500 0
DWIDTH 8 0
BBX 8 16 0 -2
BITMAP
32
4C
00
18
10
08
00
10
10
10
10
10
10
0C
00
00
ENDCHAR
STARTCHAR U+1F38
ENCODING 7992
SWIDTH 500 0
DWIDTH 8 0
BBX 8 16 0 -2
BITMAP
C0
40
80
00
3E
08
08
08
08
08
08
08
08
3E
00
00
ENDCHAR
STARTCHAR U+1F39
ENCODING 7993
SWIDTH 500 0
DWIDTH 8 0
BBX 8 16 0 -2
BITMAP
C0
80
60
00
3E
08
08
08
08
08
08
08
08
3E
00
00
ENDCHAR
STARTCHAR U+1F3A
ENCODING 7994
SWIDTH 500 0
DWIDTH 8 0
BBX 8 16 0 -2
BITMAP
D0
50
88
00
3E
08
08
08
08
08
08
08
08
3E
00
00
ENDCHAR
STARTCHAR U+1F3B
ENCODING 7995
SWIDTH 500 0
DWIDTH 8 0
BBX 8 16 0 -2
BITMAP
D0
90
48
00
3E
08
08
08
08
08
08
08
08
3E
00
00
ENDCHAR
STARTCHAR U+1F3C
ENCODING 7996
SWIDTH 500 0
DWIDTH 8 0
BBX 8 16 0 -2
BITMAP
C8
50
90
00
3E
08
08
08
08
08
08
08
08
3E
00
00
ENDCHAR
STARTCHAR U+1F3D
ENCODING 7997
SWIDTH 500 0
DWIDTH 8 0
BBX 8 16 0 -2
BITMAP
C8
90
50
00
3E
08
08
08
08
08
08
08
08
3E
00
00
ENDCHAR
STARTCHAR U+1F3E
ENCODING 7998
SWIDTH 500 0
DWIDTH 8 0
BBX 8 16 0 -2
BITMAP
64
98
60
20
40
3E
08
08
08
08
08
08
08
3E
00
00
ENDCHAR
STARTCHAR U+1F3F
ENCODING 7999
SWIDTH 500 0
DWIDTH 8 0
BBX 8 16 0 -2
BITMAP
64
98
60
40
20
3E
08
08
08
08
08
08
08
3E
00
00
ENDCHAR
STARTCHAR U+1F40
ENCODING 8000
SWIDTH 500 0
DWIDTH 8 0
BBX 8 16 0 -2
BITMAP
00
00
18
08
10
00
3C
42
42
42
42
42
42
3C
00
00
ENDCHAR
STARTCHAR U+1F41
ENCODING 8001
SWIDTH 500 0
DWIDTH 8 0
BBX 8 16 0 -2
BITMAP
00
00
18
10
08
00
3C
42
42
42
42
42
42
3C
00
00
ENDCHAR
STARTCHAR U+1F42
ENCODING 8002
SWIDTH 500 0
DWIDTH 8 0
BBX 8 16 0 -2
BITMAP
00
00
34
14
22
00
3C
42
42
42
42
42
42
3C
00
00
ENDCHAR
STARTCHAR U+1F43
ENCODING 8003
SWIDTH 500 0
DWIDTH 8 0
BBX 8 16 0 -2
BITMAP
00
00
34
24
12
00
3C
42
42
42
42
42
42
3C
00
00
ENDCHAR
STARTCHAR U+1F44
ENCODING 8004
SWIDTH 500 0
DWIDTH 8 0
BBX 8 16 0 -2
BITMAP
00
00
32
14
24
00
3C
42
42
42
42
42
42
3C
00
00
ENDCHAR
STARTCHAR U+1F45
ENCODING 8005
SWIDTH 500 0
DWIDTH 8 0
BBX 8 16 0 -2
BITMAP
00
00
32
24
14
00
3C
42
42
42
42
42
42
3C
00
00
ENDCHAR
STARTCHAR U+1F48
ENCODING 8008
SWIDTH 500 0
DWIDTH 8 0
BBX 8 16 0 -2
BITMAP
C0
40
80
00
3C
42
42
42
42
42
42
42
42
3C
00
00
ENDCHAR
STARTCHAR U+1F49
ENCODING 8009
SWIDTH 500 0
DWIDTH 8 0
BBX 8 16 0 -2
BITMAP
C0
80
40
00
3C
42
42
42
42
42
42
42
42
3C
00
00
ENDCHAR
STARTCHAR U+1F4A
ENCODING 8010
SWIDTH 500 0
DWIDTH 8 0
BBX 8 16 0 -2
BITMAP
D0
50
88
00
3C
42
42
42
42
42
42
42
42
3C
00
00
ENDCHAR
STARTCHAR U+1F4B
ENCODING 8011
SWIDTH 500 0
DWIDTH 8 0
BBX 8 16 0 -2
BITMAP
D0
90
48
00
3C
42
42
42
42
42
42
42
42
3C
00
00
ENDCHAR
STARTCHAR U+1F4C
ENCODING 8012
SWIDTH 500 0
DWIDTH 8 0
BBX 8 16 0 -2
BITMAP
C8
50
90
00
3C
42
42
42
42
42
42
42
42
3C
00
00
ENDCHAR
STARTCHAR U+1F4D
ENCODING 8013
SWIDTH 500 0
DWIDTH 8 0
BBX 8 16 0 -2
BITMAP
C8
90
50
00
3C
42
42
42
42
42
42
42
42
3C
00
00
ENDCHAR
STARTCHAR U+1F50
ENCODING 8016
SWIDTH 500 0
DWIDTH 8 0
BBX 8 16 0 -2
BITMAP
00
00
18
08
10
00
42
42
42
42
42
42
42
3C
00
00
ENDCHAR
STARTCHAR U+1F51
ENCODING 8017
SWIDTH 500 0
DWIDTH 8 0
BBX 8 16 0 -2
BITMAP
00
00
18
10
08
00
42
42
42
42
42
42
42
3C
00
00
ENDCHAR
STARTCHAR U+1F52
ENCODING 8018
SWIDTH 500 0
DWIDTH 8 0
BBX 8 16 0 -2
BITMAP
00
00
34
14
22
00
42
42
42
42
42
42
42
3C
00
00
ENDCHAR
STARTCHAR U+1F53
ENCODING 8019
SWIDTH 500 0
DWIDTH 8 0
BBX 8 16 0 -2
BITMAP
00
00
34
24
12
00
42
42
42
42
42
42
42
3C
00
00
ENDCHAR
STARTCHAR U+1F54
ENCODING 8020
SWIDTH 500 0
DWIDTH 8 0
BBX 8 16 0 -2
BITMAP
00
00
32
14
24
00
42
42
42
42
42
42
42
3C
00
00
ENDCHAR
STARTCHAR U+1F55
ENCODING 8021
SWIDTH 500 0
DWIDTH 8 0
BBX 8 16 0 -2
BITMAP
00
00
32
24
14
00
42
42
42
42
42
42
42
3C
00
00
ENDCHAR
STARTCHAR U+1F56
ENCODING 8022
SWIDTH 500 0
DWIDTH 8 0
BBX 8 16 0 -2
BITMAP
32
4C
00
18
08
10
42
42
42
42
42
42
42
3C
00
00
ENDCHAR
STARTCHAR U+1F57
ENCODING 8023
SWIDTH 500 0
DWIDTH 8 0
BBX 8 16 0 -2
BITMAP
32
4C
00
18
10
08
42
42
42
42
42
42
42
3C
00
00
ENDCHAR
STARTCHAR U+1F59
ENCODING 8025
SWIDTH 500 0
DWIDTH 8 0
BBX 8 16 0 -2
BITMAP
C0
80
40
00
41
41
22
22
14
08
08
08
08
08
00
00
ENDCHAR
STARTCHAR U+1F5B
ENCODING 8027
SWIDTH 500 0
DWIDTH 8 0
BBX 8 16 0 -2
BITMAP
D0
90
48
00
41
41
22
22
14
08
08
08
08
08
00
00
ENDCHAR
STARTCHAR U+1F5D
ENCODING 8029
SWIDTH 500 0
DWIDTH 8 0
BBX 8 16 0 -2
BITMAP
C8
90
50
00
41
41
22
22
14
08
08
08
08
08
00
00
ENDCHAR
STARTCHAR U+1F5F
ENCODING 8031
SWIDTH 500 0
DWIDTH 8 0
BBX 8 16 0 -2
BITMAP
64
98
60
40
20
41
22
22
14
08
08
08
08
08
00
00
ENDCHAR
STARTCHAR U+1F60
ENCODING 8032
SWIDTH 500 0
DWIDTH 8 0
BBX 8 16 0 -2
BITMAP
00
00
0C
04
08
00
22
41
41
49
49
49
49
36
00
00
ENDCHAR
STARTCHAR U+1F61
ENCODING 8033
SWIDTH 500 0
DWIDTH 8 0
BBX 8 16 0 -2
BITMAP
00
00
0C
08
04
00
22
41
41
49
49
49
49
36
00
00
ENDCHAR
STARTCHAR U+1F62
ENCODING 8034
SWIDTH 500 0
DWIDTH 8 0
BBX 8 16 0 -2
BITMAP
00
00
34
14
22
00
22
41
41
49
49
49
49
36
00
00
ENDCHAR
STARTCHAR U+1F63
ENCODING 8035
SWIDTH 500 0
DWIDTH 8 0
BBX 8 16 0 -2
BITMAP
00
00
34
24
12
00
22
41
41
49
49
49
49
36
00
00
ENDCHAR
STARTCHAR U+1F64
ENCODING 8036
SWIDTH 500 0
DWIDTH 8 0
BBX 8 16 0 -2
BITMAP
00
00
32
14
24
00
22
41
41
49
49
49
49
36
00
00
ENDCHAR
STARTCHAR U+1F65
ENCODING 8037
SWIDTH 500 0
DWIDTH 8 0
BBX 8 16 0 -2
BITMAP
00
00
32
24
14
00
22
41
41
49
49
49
49
36
00
00
ENDCHAR
STARTCHAR U+1F66
ENCODING 8038
SWIDTH 500 0
DWIDTH 8 0
BBX 8 16 0 -2
BITMAP
32
4C
00
18
08
10
00
22
41
49
49
49
49
36
00
00
ENDCHAR
STARTCHAR U+1F67
ENCODING 8039
SWIDTH 500 0
DWIDTH 8 0
BBX 8 16 0 -2
BITMAP
32
4C
00
18
10
08
00
22
41
49
49
49
49
36
00
00
ENDCHAR
STARTCHAR U+1F68
ENCODING 8040
SWIDTH 500 0
DWIDTH 8 0
BBX 8 16 0 -2
BITMAP
C0
40
80
00
3E
41
41
41
41
41
22
14
14
77
00
00
ENDCHAR
STARTCHAR U+1F69
ENCODING 8041
SWIDTH 500 0
DWIDTH 8 0
BBX 8 16 0 -2
BITMAP
C0
80
40
00
3E
41
41
41
41
41
22
14
14
77
00
00
ENDCHAR
STARTCHAR U+1F6A
ENCODING 8042
SWIDTH 500 0
DWIDTH 8 0
BBX 8 16 0 -2
BITMAP
D0
50
88
00
3E
41
41
41
41
41
22
14
14
77
00
00
ENDCHAR
STARTCHAR U+1F6B
ENCODING 8043
SWIDTH 500 0
DWIDTH 8 0
BBX 8 16 0 -2
BITMAP
D0
90
48
00
3E
41
41
41
41
41
22
14
14
77
00
00
ENDCHAR
STARTCHAR U+1F6C
ENCODING 8044
SWIDTH 500 0
DWIDTH 8 0
BBX 8 16 0 -2
BITMAP
C8
50
90
00
3E
41
41
41
41
41
22
14
14
77
00
00
ENDCHAR
STARTCHAR U+1F6D
ENCODING 8045
SWIDTH 500 0
DWIDTH 8 0
BBX 8 16 0 -2
BITMAP
C8
90
50
00
3E
41
41
41
41
41
22
14
14
77
00
00
ENDCHAR
STARTCHAR U+1F6E
ENCODING 8046
SWIDTH 500 0
DWIDTH 8 0
BBX 8 16 0 -2
BITMAP
32
4C
18
08
10
1C
22
41
41
41
22
14
14
77
00
00
ENDCHAR
STARTCHAR U+1F6F
ENCODING 8047
SWIDTH 500 0
DWIDTH 8 0
BBX 8 16 0 -2
BITMAP
32
4C
18
10
08
1C
23
41
41
41
22
14
14
77
00
00
ENDCHAR
STARTCHAR U+1F70
ENCODING 8048
SWIDTH 500 0
DWIDTH 8 0
BBX 8 16 0 -2
BITMAP
00
00
20
20
10
00
32
4A
44
44
44
44
4A
32
00
00
ENDCHAR
STARTCHAR U+1F71
ENCODING 8049
SWIDTH 500 0
DWIDTH 8 0
BBX 8 16 0 -2
BITMAP
00
00
10
20
20
00
32
4A
44
44
44
44
4A
32
00
00
ENDCHAR
STARTCHAR U+1F72
ENCODING 8050
SWIDTH 500 0
DWIDTH 8 0
BBX 8 16 0 -2
BITMAP
00
00
10
10
08
00
3C
42
40
3C
40
40
42
3C
00
00
ENDCHAR
STARTCHAR U+1F73
ENCODING 8051
SWIDTH 500 0
DWIDTH 8 0
BBX 8 16 0 -2
BITMAP
00
00
08
10
10
00
3C
42
40
3C
40
40
42
3C
00
00
ENDCHAR
STARTCHAR U+1F74
ENCODING 8052
SWIDTH 500 0
DWIDTH 8 0
BBX 8 16 0 -2
BITMAP
00
00
10
10
08
00
5C
62
42
42
42
42
42
42
02
02
ENDCHAR
STARTCHAR U+1F75
ENCODING 8053
SWIDTH 500 0
DWIDTH 8 0
BBX 8 16 0 -2
BITMAP
00
00
08
10
10
00
5C
62
42
42
42
42
42
42
02
02
ENDCHAR
STARTCHAR U+1F76
ENCODING 8054
SWIDTH 500 0
DWIDTH 8 0
BBX 8 16 0 -2
BITMAP
00
00
10
10
08
00
10
10
10
10
10
10
10
0C
00
00
ENDCHAR
STARTCHAR U+1F77
ENCODING 8055
SWIDTH 500 0
DWIDTH 8 0
BBX 8 16 0 -2
BITMAP
00
00
08
10
10
00
10
10
10
10
10
10
10
0C
00
00
ENDCHAR
STARTCHAR U+1F78
ENCODING 8056
SWIDTH 500 0
DWIDTH 8 0
BBX 8 16 0 -2
BITMAP
00
00
10
10
08
00
3C
42
42
42
42
42
42
3C
00
00
ENDCHAR
STARTCHAR U+1F79
ENCODING 8057
SWIDTH 500 0
DWIDTH 8 0
BBX 8 16 0 -2
BITMAP
00
00
08
10
10
00
3C
42
42
42
42
42
42
3C
00
00
ENDCHAR
STARTCHAR U+1F7A
ENCODING 8058
SWIDTH 500 0
DWIDTH 8 0
BBX 8 16 0 -2
BITMAP
00
00
10
10
08
00
42
42
42
42
42
42
42
3C
00
00
ENDCHAR
STARTCHAR U+1F7B
ENCODING 8059
SWIDTH 500 0
DWIDTH 8 0
BBX 8 16 0 -2
BITMAP
00
00
08
10
10
00
42
42
42
42
42
42
42
3C
00
00
ENDCHAR
STARTCHAR U+1F7C
ENCODING 8060
SWIDTH 500 0
DWIDTH 8 0
BBX 8 16 0 -2
BITMAP
00
00
10
10
08
00
22
41
41
49
49
49
49
36
00
00
ENDCHAR
STARTCHAR U+1F7D
ENCODING 8061
SWIDTH 500 0
DWIDTH 8 0
BBX 8 16 0 -2
BITMAP
00
00
04
08
08
00
22
41
41
49
49
49
49
36
00
00
ENDCHAR
STARTCHAR U+1F80
ENCODING 8064
SWIDTH 500 0
DWIDTH 8 0
BBX 8 16 0 -2
BITMAP
00
00
30
10
20
00
32
4A
44
44
44
44
4A
32
20
30
ENDCHAR
STARTCHAR U+1F81
ENCODING 8065
SWIDTH 500 0
DWIDTH 8 0
BBX 8 16 0 -2
BITMAP
00
00
30
20
10
00
32
4A
44
44
44
44
4A
32
20
30
ENDCHAR
ENDFONT
